<svg width="14" height="17" viewBox="0 0 14 17" xmlns="http://www.w3.org/2000/svg">
<path fill-rule="evenodd" clip-rule="evenodd" d="M11.0445 11L11.0445 14.8575C11.0445 15.22 10.7496 15.515 10.3871 15.515L1.97224 15.515C1.60974 15.515 1.31483 15.22 1.31483 14.8575L1.31483 1.97224C1.31483 1.60974 1.60974 1.31483 1.97224 1.31483L10.3871 1.31483C10.7496 1.31483 11.0445 1.60974 11.0445 1.97224L11.0445 5L12.3594 5L12.3594 1.97224C12.3594 0.884747 11.4746 -3.86731e-08 10.3871 -8.62089e-08L1.97224 -4.54036e-07C0.884748 -5.01572e-07 9.15001e-07 0.884747 8.67465e-07 1.97224L3.0423e-07 14.8575C2.56695e-07 15.945 0.884747 16.8298 1.97224 16.8298L10.3871 16.8298C11.4746 16.8298 12.3594 15.945 12.3594 14.8575L12.3594 11L11.0445 11Z"/>
<rect x="6" y="7.23535" width="8" height="2"/>
<rect x="4" y="8.23535" width="5.65685" height="1.41421" transform="rotate(-45 4 8.23535)"/>
<rect x="8" y="12.2354" width="5.65685" height="1.41421" transform="rotate(-135 8 12.2354)"/>
</svg>
