<svg width="31" height="31" viewBox="0 0 31 31" xmlns="http://www.w3.org/2000/svg">
<path d="M14.4724 23.3087C14.6074 23.4437 14.7676 23.5507 14.9439 23.6237C15.1202 23.6968 15.3091 23.7344 15.5 23.7344C15.6908 23.7344 15.8798 23.6968 16.0561 23.6237C16.2324 23.5507 16.3926 23.4437 16.5275 23.3087L22.0076 17.8287C22.2801 17.5562 22.4332 17.1866 22.4332 16.8012C22.4332 16.4158 22.2801 16.0462 22.0076 15.7737C21.735 15.5012 21.3654 15.3481 20.98 15.3481C20.5946 15.3481 20.225 15.5012 19.9525 15.7737L16.9531 18.7731V2.90625C16.9531 2.52086 16.8 2.15125 16.5275 1.87874C16.255 1.60622 15.8854 1.45313 15.5 1.45312C15.1146 1.45313 14.745 1.60622 14.4725 1.87874C14.1999 2.15125 14.0468 2.52086 14.0468 2.90625V18.7731L11.0474 15.7737C10.7749 15.5012 10.4053 15.3481 10.0199 15.3481C9.63451 15.3481 9.26491 15.5012 8.99239 15.7737C8.71988 16.0462 8.56679 16.4158 8.56679 16.8012C8.56679 17.1866 8.71988 17.5562 8.99239 17.8287L14.4724 23.3087Z"/>
<path d="M28.0938 14.0469C27.7084 14.0469 27.3388 14.2 27.0662 14.4725C26.7937 14.745 26.6406 15.1146 26.6406 15.5V26.6406H4.35938V15.5C4.35938 15.1146 4.20628 14.745 3.93376 14.4725C3.66125 14.2 3.29164 14.0469 2.90625 14.0469C2.52086 14.0469 2.15125 14.2 1.87874 14.4725C1.60622 14.745 1.45313 15.1146 1.45312 15.5V27.125C1.45312 27.7673 1.70829 28.3833 2.16248 28.8375C2.61667 29.2917 3.23268 29.5469 3.875 29.5469H27.125C27.7673 29.5469 28.3833 29.2917 28.8375 28.8375C29.2917 28.3833 29.5469 27.7673 29.5469 27.125V15.5C29.5469 15.1146 29.3938 14.745 29.1213 14.4725C28.8487 14.2 28.4791 14.0469 28.0938 14.0469Z"/>
</svg>
