<svg width="18" height="18" viewBox="0 0 18 18" xmlns="http://www.w3.org/2000/svg">
<path d="M17.1441 5.8654C16.8041 6.20543 16.2941 6.20543 16.039 5.8654L11.5337 1.36009C11.1937 1.02007 11.1937 0.510035 11.5337 0.255018C11.8738 -0.0850059 12.3838 -0.0850059 12.6388 0.255018L17.1441 4.76033C17.4841 5.01535 17.4841 5.52538 17.1441 5.8654Z"/>
<path d="M13.9996 7.73558C13.6595 8.0756 13.1495 8.0756 12.8945 7.73558L9.66426 4.50536C9.32423 4.16533 9.32423 3.6553 9.66426 3.40028C10.0043 3.06026 10.5143 3.06026 10.7693 3.40028L13.9996 6.6305C14.3396 6.88552 14.3396 7.39556 13.9996 7.73558Z"/>
<path fill-rule="evenodd" clip-rule="evenodd" d="M5.79007 0.850098H2.31239C1.06846 0.850098 0.0585938 1.87705 0.0585938 3.13739C0.0585938 6.82507 1.50985 10.306 4.14486 12.9334C6.77987 15.5608 10.2642 17.0079 13.9693 17.0079C15.2065 17.0079 16.2164 16.0009 16.2164 14.7606V11.2996L12.4043 9.38578L10.0034 10.9795C7.9703 10.7328 6.34516 9.11237 6.09771 7.08515L7.6961 4.69782L5.79007 0.850098ZM6.32509 10.7528C8.15087 12.5733 10.291 12.4866 10.4047 12.5133L12.5113 11.1129L14.7049 12.2132V14.7539C14.7049 15.174 14.3772 15.5075 13.9626 15.5075C7.12763 15.5075 1.56336 9.95927 1.56336 3.14406C1.56336 2.71728 1.91112 2.35718 2.31908 2.35718H4.86046L5.96395 4.58446L4.55951 6.68504C4.58626 6.80507 4.49931 8.93232 6.32509 10.7528Z"/>
</svg>
