<svg width="174" height="123" viewBox="0 0 174 123" fill="none" xmlns="http://www.w3.org/2000/svg">
<path fill-rule="evenodd" clip-rule="evenodd" d="M153.213 116.698H159.236L162.248 118.204L159.236 119.71H156.601H141.167L140.414 120.086H138.532L137.779 119.71H116.322L111.804 122.345H108.04L102.017 118.957L88.841 111.428L71.5245 106.534L70.7716 115.193L67.76 116.698L63.9956 114.44L65.1249 104.276L29.3625 94.1116L25.5981 91.8529L28.6097 90.3471L65.5014 100.511L65.8778 97.4995L64.372 96.7467L58.3489 93.3586L77.1712 82.4417L58.7253 77.1715L54.9609 74.9128L57.9725 73.407L81.3121 79.8066L97.8757 70.019H101.64L104.652 71.9012H113.31L118.58 68.8896H120.462L130.25 74.5363L118.204 81.6888L141.543 95.2409H145.308L148.32 97.1231H156.978L162.248 94.1116H164.13L173.918 99.7582L149.449 113.687L153.213 116.698ZM139.285 108.793L151.708 101.64H148.696L137.779 108.04L139.285 108.793ZM77.1712 104.652L72.2774 102.017V103.523L77.1712 104.652ZM122.345 116.698H132.132L128.744 114.816L129.497 114.44L127.991 113.687L122.345 116.698Z" fill="url(#paint0_linear)"/>
<path fill-rule="evenodd" clip-rule="evenodd" d="M67.3839 73.7831L69.2661 73.0302L70.3954 71.9009V70.7715L69.2661 69.6422L67.3839 68.8893L21.8339 61.3604H12.7992L4.51737 63.9955L0 68.5128V74.1595L4.51737 78.6769L12.7992 81.312H21.8339L67.3839 73.7831Z" fill="url(#paint1_linear)"/>
<path fill-rule="evenodd" clip-rule="evenodd" d="M7.15369 69.6423V64.372L13.5533 23.7158L18.4471 25.2216L25.5996 47.4319L21.8351 81.3121H12.8004L7.15369 69.6423Z" fill="url(#paint2_linear)"/>
<path fill-rule="evenodd" clip-rule="evenodd" d="M34.6348 74.16V68.5133L21.4592 21.834L18.4476 25.222L21.8356 81.3125L30.1174 78.6773L34.6348 74.16Z" fill="url(#paint3_linear)"/>
<path fill-rule="evenodd" clip-rule="evenodd" d="M0 74.16V68.5133L13.1756 21.834L16.1872 25.222L12.7992 81.3125L4.51737 78.6773L0 74.16Z" fill="#5E5548"/>
<path fill-rule="evenodd" clip-rule="evenodd" d="M0 74.16V68.5133L13.1756 21.834L14.305 24.4691L4.51737 78.6773L0 74.16Z" fill="url(#paint4_linear)"/>
<path fill-rule="evenodd" clip-rule="evenodd" d="M14.3047 20.7046C13.9283 21.081 13.5518 21.4574 13.1754 21.8339C13.1754 22.2103 13.1754 22.5868 13.1754 22.9632C13.5518 23.3397 13.9283 23.7161 14.3047 24.0926C15.0576 24.469 15.434 24.469 16.1869 24.8455C16.9398 24.8455 17.6927 24.8455 18.4456 24.8455C19.1985 24.469 19.5749 24.469 20.3278 24.0926C20.7043 23.7161 21.0807 23.3397 21.4572 22.9632C21.4572 22.5868 21.4572 22.2103 21.4572 21.8339C21.0807 21.4574 20.7043 21.081 20.3278 20.7046C19.5749 20.3281 19.1985 20.3281 18.4456 19.9517C17.6927 19.9517 16.9398 19.9517 16.1869 19.9517C15.434 20.3281 15.0576 20.7046 14.3047 20.7046Z" fill="#77685A"/>
<path fill-rule="evenodd" clip-rule="evenodd" d="M15.0568 21.458C14.6803 21.8344 14.6803 21.8344 14.3039 22.2109C14.3039 22.5873 14.3039 22.9638 14.3039 23.3402C14.6803 23.7167 14.6803 23.7167 15.0568 24.0931C15.4332 24.0931 16.1861 24.4695 16.5626 24.4695C16.939 24.4695 17.6919 24.4695 18.0684 24.4695C18.4448 24.4695 19.1977 24.0931 19.5741 24.0931C19.9506 23.7167 19.9506 23.7167 20.327 23.3402C20.327 22.9638 20.327 22.5873 20.327 22.2109C19.9506 21.8344 19.9506 21.8344 19.5741 21.458C19.1977 21.458 18.4448 21.0815 18.0684 21.0815C17.6919 21.0815 16.939 21.0815 16.5626 21.0815C16.1861 21.0815 15.4332 21.0815 15.0568 21.458Z" fill="url(#paint5_linear)"/>
<path fill-rule="evenodd" clip-rule="evenodd" d="M55.7205 76.0424L58.3556 74.1602L77.5543 65.1255L74.9192 66.6313L55.7205 76.0424Z" fill="#DAA46A"/>
<path fill-rule="evenodd" clip-rule="evenodd" d="M76.4233 65.8779L79.4349 64.3721L98.2572 55.3374L95.6221 56.8432L76.4233 65.8779Z" fill="#DAA46A"/>
<path fill-rule="evenodd" clip-rule="evenodd" d="M78.3047 68.89L81.3163 67.0078L100.515 98.6293L97.5035 100.135L78.3047 68.89Z" fill="url(#paint6_linear)"/>
<path fill-rule="evenodd" clip-rule="evenodd" d="M57.6019 35.0102L60.6134 33.5044L79.4358 64.373L76.4242 65.8788L57.6019 35.0102Z" fill="url(#paint7_linear)"/>
<path fill-rule="evenodd" clip-rule="evenodd" d="M57.6007 35.0097L76.423 65.8783L95.6218 56.8436L99.0098 59.1022L78.3052 68.8898L97.504 100.135L94.116 98.2526L76.423 69.6427L59.1065 77.9245L55.7185 76.0423L74.9172 66.6311L54.2127 33.1274L57.6007 35.0097Z" fill="#B8884F"/>
<path fill-rule="evenodd" clip-rule="evenodd" d="M26.3527 92.9824L28.9879 91.1001L48.5631 82.0654L45.5515 83.5712L26.3527 92.9824Z" fill="#DAA46A"/>
<path fill-rule="evenodd" clip-rule="evenodd" d="M47.4329 82.8178L50.068 80.9356L68.8903 72.2773L66.2552 73.7831L47.4329 82.8178Z" fill="#DAA46A"/>
<path fill-rule="evenodd" clip-rule="evenodd" d="M55.342 79.0534L53.4598 79.4298L68.8941 72.2773L66.259 73.7831L55.342 79.0534Z" fill="url(#paint8_linear)"/>
<path fill-rule="evenodd" clip-rule="evenodd" d="M49.3143 85.83L51.9494 83.9478L71.1482 115.569L68.513 117.075L49.3143 85.83Z" fill="url(#paint9_linear)"/>
<path fill-rule="evenodd" clip-rule="evenodd" d="M49.3143 85.8296L54.961 88.8412L71.1482 115.569L68.513 117.075L49.3143 85.8296Z" fill="url(#paint10_linear)"/>
<path fill-rule="evenodd" clip-rule="evenodd" d="M28.6097 51.9491L31.2449 50.4434L50.0672 80.9355L47.432 82.8177L36.5151 65.5012L28.6097 51.9491Z" fill="url(#paint11_linear)"/>
<path fill-rule="evenodd" clip-rule="evenodd" d="M39.5281 70.0195L47.057 76.0427L50.0686 80.9365L47.4335 82.8187L39.5281 70.0195Z" fill="url(#paint12_linear)"/>
<path fill-rule="evenodd" clip-rule="evenodd" d="M39.5281 70.0195L47.057 76.0427L50.0686 80.9365L47.4335 82.8187L39.5281 70.0195Z" fill="url(#paint13_linear)"/>
<path fill-rule="evenodd" clip-rule="evenodd" d="M28.6096 51.9501L47.4319 82.8187L66.2542 73.784L69.6422 76.0427L49.3141 85.8302L68.5129 117.075L64.7484 115.193L47.4319 86.5832L30.1154 94.865L26.3509 92.9827L45.5497 83.5716L24.8452 50.0679L28.6096 51.9501Z" fill="#B8884F"/>
<path fill-rule="evenodd" clip-rule="evenodd" d="M28.6096 51.9491L39.5265 70.0185L35.7621 67.7598L24.8452 49.6904C25.9745 50.4433 27.1038 51.1962 28.6096 51.9491ZM55.3372 79.0532L66.2542 73.783C67.3836 74.5359 68.5129 75.2888 70.0187 76.0417L59.1017 81.3119L55.3372 79.0532Z" fill="url(#paint14_linear)"/>
<path fill-rule="evenodd" clip-rule="evenodd" d="M57.6007 35.0092C64.0003 45.1732 70.0234 55.3372 76.423 65.8777C82.8226 62.8662 88.8457 59.8546 95.2453 56.843C96.3746 57.5959 97.504 58.3488 99.0098 59.1017C92.2337 62.4897 85.0813 65.5013 78.3052 68.8893C84.7048 79.4298 91.1044 89.9703 97.504 100.134C96.3747 99.3814 94.8689 98.6286 93.7395 97.8757C88.0929 88.4645 82.0697 79.0534 76.423 69.6422L68.1412 73.7831L67.0119 70.3951L74.9172 66.6306C68.1412 55.3373 60.9887 44.0439 54.2127 32.7505C55.342 33.8798 56.4714 34.2563 57.6007 35.0092Z" fill="url(#paint15_linear)"/>
<path fill-rule="evenodd" clip-rule="evenodd" d="M62.1166 32.375H65.8811L26.3542 55.3382H22.5898L62.1166 32.375Z" fill="#77685A"/>
<path fill-rule="evenodd" clip-rule="evenodd" d="M62.1166 31.2451L99.7612 53.079L60.2344 75.6658L22.5898 53.8319L62.1166 31.2451Z" fill="#77685A"/>
<path fill-rule="evenodd" clip-rule="evenodd" d="M61.7402 31.6211L62.8695 32.374L63.9989 32.7504H61.7402L35.389 48.1847H45.1765L41.7886 45.926L64.3753 33.1269L74.9158 39.5265L59.858 48.1847H72.2807L74.9158 49.6905L72.2807 51.5727H71.9042L87.3385 60.231L85.8327 60.9839L85.0799 60.6074L76.7981 65.5012L53.0819 51.9492H51.5761L50.8232 51.5727H29.3658L25.2249 53.8314H22.5898L61.7402 31.6211Z" fill="url(#paint16_linear)"/>
<path fill-rule="evenodd" clip-rule="evenodd" d="M105.784 53.8314L99.7612 50.4434L60.2344 73.4066L66.2575 76.7946L105.784 53.8314Z" fill="#DAA46A"/>
<path fill-rule="evenodd" clip-rule="evenodd" d="M105.782 53.8315L103.147 52.3257H99.7588L96.7472 53.8315L99.7588 55.3372H102.77L105.406 55.7137L105.782 53.8315ZM85.8303 58.7253C82.4423 60.6075 79.4307 62.4897 76.0427 64.372L82.0659 67.76L88.089 66.2542L90.7241 62.8662L91.8535 62.1133L85.8303 58.7253ZM70.7725 74.1596L74.9134 73.4067L76.7956 70.7715H68.1374L65.1258 72.2773L68.1374 73.7831H70.7725V74.1596Z" fill="#895E2E"/>
<path fill-rule="evenodd" clip-rule="evenodd" d="M16.942 48.1851L22.5887 51.5731V55.3375L16.942 51.9495V48.1851Z" fill="#B8884F"/>
<path fill-rule="evenodd" clip-rule="evenodd" d="M60.2344 73.4072L66.2575 76.7952V80.5597L60.2344 77.1717V73.4072Z" fill="#B8884F"/>
<path fill-rule="evenodd" clip-rule="evenodd" d="M62.1155 28.6097L56.4689 25.2217L16.942 48.1849L22.5887 51.5729L62.1155 28.6097Z" fill="#DAA46A"/>
<path fill-rule="evenodd" clip-rule="evenodd" d="M62.1175 28.6098L59.4823 27.104H56.0944L53.0828 28.6098L56.0944 30.1156H59.1059L62.1175 28.6098ZM27.108 48.9379L30.496 48.5614L33.1311 45.5499H24.4729L21.4613 47.0556L24.4729 48.5614H27.108V48.9379Z" fill="#895E2E"/>
<path fill-rule="evenodd" clip-rule="evenodd" d="M62.1166 28.6104V31.2455L22.5898 53.8322V51.5736L62.1166 28.6104Z" fill="url(#paint17_linear)"/>
<path fill-rule="evenodd" clip-rule="evenodd" d="M20.7066 22.9639L30.4942 28.6106V30.8692L20.7066 25.2225V22.9639ZM63.9979 48.1857L73.7855 53.8324V55.7147L63.9979 50.068V48.1857Z" fill="#B8884F"/>
<path fill-rule="evenodd" clip-rule="evenodd" d="M23.7166 24.8457L30.4927 28.6102V30.8688L23.7166 27.1044V24.8457ZM63.9963 48.1853L73.4075 53.4556V55.3378L63.9963 50.0676V48.1853Z" fill="url(#paint18_linear)"/>
<path fill-rule="evenodd" clip-rule="evenodd" d="M24.0938 0L21.0822 1.88223L24.0938 3.38802L27.1053 1.88223L24.0938 0Z" fill="#DAA46A"/>
<path fill-rule="evenodd" clip-rule="evenodd" d="M67.7618 25.2217L64.7502 27.1039L67.7618 28.6097L70.3969 27.1039L67.7618 25.2217Z" fill="#DAA46A"/>
<path fill-rule="evenodd" clip-rule="evenodd" d="M97.1243 35.3857L99.7594 36.8915V55.7138L97.1243 54.208V35.3857Z" fill="#B8884F"/>
<path fill-rule="evenodd" clip-rule="evenodd" d="M97.8771 35.7627L99.7594 36.892V49.6912L97.1243 42.1623V36.1392L97.8771 35.7627Z" fill="url(#paint19_linear)"/>
<path fill-rule="evenodd" clip-rule="evenodd" d="M102.772 35.3857L99.7604 36.8915V55.7138L102.772 54.208V35.3857Z" fill="url(#paint20_linear)"/>
<path fill-rule="evenodd" clip-rule="evenodd" d="M59.1056 10.1636L56.0941 11.6694V30.4917L59.1056 28.9859V10.1636Z" fill="url(#paint21_linear)"/>
<path fill-rule="evenodd" clip-rule="evenodd" d="M53.4598 10.1636L56.0949 11.6694V30.4917L53.4598 28.9859V10.1636Z" fill="#B8884F"/>
<path fill-rule="evenodd" clip-rule="evenodd" d="M54.2127 10.5405L56.0949 11.6699V24.469L53.4598 17.3166V10.917L54.2127 10.5405Z" fill="url(#paint22_linear)"/>
<path fill-rule="evenodd" clip-rule="evenodd" d="M64.3744 9.41085L30.4942 28.986L20.7066 23.3394L54.5868 3.76416L64.3744 9.41085ZM108.042 34.6327L98.2545 28.986L64.3744 48.5612L74.1619 54.2079L108.042 34.6327Z" fill="#DAA46A"/>
<path fill-rule="evenodd" clip-rule="evenodd" d="M73.4101 53.4551H74.5394L80.1861 50.0671L80.939 49.6907L82.0683 48.9378L83.1977 48.1849L73.4101 42.5382L72.2807 43.2911L71.5278 43.6675L63.9989 47.8084L73.4101 53.4551ZM36.8948 25.2217H24.0956L27.1072 26.7275L30.1188 28.2332L30.8717 28.6097L31.6246 28.2332L34.6361 26.7275L36.8948 25.2217Z" fill="url(#paint23_linear)"/>
<path fill-rule="evenodd" clip-rule="evenodd" d="M27.1072 1.88232L24.0956 3.38811V48.9381L27.1072 47.4323V1.88232Z" fill="url(#paint24_linear)"/>
<path fill-rule="evenodd" clip-rule="evenodd" d="M70.3987 27.104L67.7636 28.6098V74.1598L70.3987 72.654V27.104Z" fill="url(#paint25_linear)"/>
<path fill-rule="evenodd" clip-rule="evenodd" d="M108.043 34.6328L74.1627 53.8316V55.7138L108.043 36.515V34.6328Z" fill="url(#paint26_linear)"/>
<path fill-rule="evenodd" clip-rule="evenodd" d="M64.3731 9.41162L30.4929 28.9868V30.869L64.3731 11.2939V9.41162Z" fill="url(#paint27_linear)"/>
<path fill-rule="evenodd" clip-rule="evenodd" d="M70.3987 29.3633L67.7636 30.8691V48.1856L70.3987 46.3034V29.3633Z" fill="url(#paint28_linear)"/>
<path fill-rule="evenodd" clip-rule="evenodd" d="M21.0822 1.88232L24.0938 3.38811V48.9381L21.0822 47.4323V1.88232ZM64.7499 27.1042L67.7615 28.61V74.16L64.7499 72.6542V27.1042Z" fill="#B8884F"/>
<path fill-rule="evenodd" clip-rule="evenodd" d="M21.0822 4.14111L67.7615 30.8688V48.1853L21.0822 21.4576V4.14111Z" fill="#5E5548"/>
<path fill-rule="evenodd" clip-rule="evenodd" d="M22.5898 53.832L60.2344 75.6659V77.1717L22.5898 55.3378V53.832Z" fill="#5E5548"/>
<path fill-rule="evenodd" clip-rule="evenodd" d="M24.0956 5.64694L64.7518 29.363V27.8573L25.225 4.89404L24.0956 5.64694Z" fill="#77685A"/>
<path fill-rule="evenodd" clip-rule="evenodd" d="M26.3543 5.64694L25.225 4.89404L24.0956 5.64694H26.3543Z" fill="url(#paint29_linear)"/>
<path fill-rule="evenodd" clip-rule="evenodd" d="M105.783 53.832V57.5965L66.256 80.5597V76.7952L105.783 53.832Z" fill="url(#paint30_linear)"/>
<path fill-rule="evenodd" clip-rule="evenodd" d="M26.3527 18.822V12.7988L27.4821 13.5517C28.235 13.9282 28.9879 14.3046 29.3643 14.6811C29.7407 15.0575 30.1172 15.4339 30.1172 15.8104C30.4936 16.1868 30.8701 16.9397 30.8701 17.3162C30.8701 17.6926 31.2465 18.4455 31.2465 18.822C31.2465 19.1984 31.2465 19.9513 30.8701 19.9513C30.8701 20.3277 30.4936 20.3277 30.1172 20.7042C29.7407 20.7042 29.7407 20.7042 29.3643 20.7042C28.9879 20.7042 28.6114 20.3277 27.8585 19.9513H27.4821L26.3527 18.822ZM27.8585 18.0691C28.6114 18.4455 28.9879 18.4455 29.3643 18.4455C29.7407 18.4455 29.7407 18.0691 29.7407 17.3162C29.7407 16.5633 29.7407 16.1868 29.3643 15.8104C28.9879 15.4339 28.6114 15.0575 28.235 14.6811H27.8585V18.0691ZM31.9994 21.8335V15.8104L33.5052 16.5633V22.5864L31.9994 21.8335ZM34.6346 23.3393V17.3162L36.1403 18.0691C36.8932 18.4455 37.2697 18.822 37.2697 18.822C37.6461 19.1984 37.6461 19.1984 38.0226 19.5749C38.0226 19.9513 38.399 20.3277 38.399 20.3277C38.399 20.7042 38.399 21.0806 38.399 21.0806C38.399 21.4571 38.399 21.8335 38.0226 22.21C37.6461 22.21 37.6461 22.5864 37.2697 22.21L38.7755 25.598L37.2697 24.8451L36.1403 21.8335V24.0922L34.6346 23.3393ZM36.1403 21.0806C36.8932 21.4571 36.8932 21.4571 36.8932 21.4571C36.8932 21.4571 37.2697 21.4571 37.2697 21.0806C37.2697 20.7042 37.2697 20.7042 36.8932 20.3277C36.8932 19.9513 36.5168 19.9513 36.1403 19.5749H35.7639V21.0806H36.1403ZM39.5283 26.3509V20.3277L42.5399 22.21V23.3393L40.6577 22.21V23.3393L42.5399 24.4686V25.598L40.6577 24.4686V25.598L42.5399 26.7273V28.2331L39.5283 26.3509ZM47.4337 24.8451V26.7273C47.0573 26.3509 47.0573 25.9744 46.6808 25.9744C46.3044 25.598 46.3044 25.598 45.9279 25.598C45.5515 25.2215 45.1751 25.2215 44.7986 25.598C44.4222 25.598 44.4221 25.9744 44.4221 26.7273C44.4221 27.1038 44.4222 27.8567 44.7986 28.2331C45.1751 28.6096 45.5515 28.986 45.9279 29.3624C46.3044 29.3624 46.3044 29.7389 46.6808 29.3624C47.0573 29.3624 47.0573 29.3625 47.4337 28.986V30.8682C47.0573 30.8682 47.0573 30.8682 46.6808 30.8682C46.3044 30.8682 46.3044 30.8682 45.9279 30.4918C45.5515 30.4918 45.5515 30.1153 45.175 29.7389C44.7986 29.3625 44.7986 29.3625 44.4221 28.986C44.0457 28.6096 43.6693 27.8567 43.6693 27.4802C43.2928 26.7273 43.2928 26.3509 43.2928 25.598C43.2928 25.2215 43.2928 24.8451 43.6693 24.4686C43.6693 24.0922 44.0457 24.0922 44.4221 23.7158C44.7986 23.7158 44.7986 23.3393 45.175 23.7158C45.5515 23.7158 45.9279 23.7158 46.3044 24.0922C46.6808 24.0922 46.6808 24.4686 47.0573 24.4686C46.6808 24.4686 47.0573 24.8451 47.4337 24.8451ZM48.9395 31.6211V27.1038L47.8101 26.3509V24.8451L51.5746 27.1038V28.6096L50.4453 27.8567V32.374L48.9395 31.6211ZM57.2213 33.5034C57.2213 33.8798 57.2213 34.2563 56.8449 34.6327C56.8449 35.0091 56.4684 35.0091 56.092 35.3856C55.7155 35.3856 55.3391 35.762 55.3391 35.3856C54.9626 35.3856 54.5862 35.3856 54.2098 35.0091C53.8333 34.6327 53.4569 34.6327 53.0804 34.2563C52.704 33.8798 52.3275 33.5034 52.3275 33.1269C51.9511 32.7505 51.951 32.374 51.5746 31.6211C51.5746 31.2447 51.1982 30.8682 51.1982 30.1153C51.1982 29.7389 51.1982 29.3625 51.5746 28.986C51.5746 28.6096 51.9511 28.6096 52.3275 28.2331C52.704 28.2331 52.704 27.8567 53.0804 28.2331C53.4569 28.2331 53.8333 28.2331 54.2098 28.6096C54.5862 28.986 54.9626 28.986 55.3391 29.3624C55.7155 29.7389 56.092 30.1153 56.092 30.4918C56.4684 30.8682 56.4684 31.2447 56.8449 31.9976C57.2213 32.7505 57.2213 33.1269 57.2213 33.5034ZM54.5862 33.8798C54.9626 34.2562 55.3391 34.2562 55.7155 33.8798C56.092 33.8798 56.092 33.5034 56.092 32.7505C56.092 32.374 56.092 31.6211 55.7155 31.2447C55.3391 30.8682 54.9626 30.4918 54.5862 30.1153C54.2097 29.7389 53.8333 29.7389 53.4568 30.1153C53.0804 30.1153 53.0804 30.4918 53.0804 31.2447C53.0804 31.6211 53.0804 32.374 53.4568 32.7505C53.8333 33.1269 54.2097 33.5034 54.5862 33.8798ZM58.3506 37.2678V31.2447L59.8565 31.9976C60.6093 32.374 60.9857 32.7505 60.9857 32.7505C61.3622 33.1269 61.3622 33.1269 61.7387 33.5034C61.7387 33.8798 62.1151 34.2563 62.1151 34.2563C62.1151 34.6327 62.1151 35.0091 62.1151 35.0091C62.1151 35.3856 62.1151 35.762 61.7387 36.1385C61.3622 36.1385 61.3622 36.5149 60.9857 36.1385L62.4916 39.5265L60.9857 38.7736L59.8565 35.762V38.0207L58.3506 37.2678ZM59.48 34.6327C60.2329 35.0091 60.2329 35.0091 60.2329 35.0091C60.2329 35.0091 60.6093 35.0091 60.6093 34.6327C60.6093 34.2563 60.6093 34.2562 60.2329 33.8798C60.2329 33.5034 59.8564 33.5034 59.48 33.1269H59.1035V34.6327H59.48Z" fill="#E3D6C9"/>
<defs>
<linearGradient id="paint0_linear" x1="70.2325" y1="92.4326" x2="231.095" y2="106.506" gradientUnits="userSpaceOnUse">
<stop stop-color="#CFC0BA"/>
<stop offset="1" stop-color="#EED2C9"/>
</linearGradient>
<linearGradient id="paint1_linear" x1="20.7444" y1="71.6731" x2="96.9491" y2="78.34" gradientUnits="userSpaceOnUse">
<stop stop-color="#CFC0BA"/>
<stop offset="1" stop-color="#EED2C9"/>
</linearGradient>
<linearGradient id="paint2_linear" x1="27.3651" y1="66.3393" x2="92.6691" y2="138.867" gradientUnits="userSpaceOnUse">
<stop stop-color="#4E463B"/>
<stop offset="1" stop-color="#373429"/>
</linearGradient>
<linearGradient id="paint3_linear" x1="-7.89652" y1="51.1787" x2="45.3161" y2="52.1078" gradientUnits="userSpaceOnUse">
<stop stop-color="#4E463B"/>
<stop offset="1" stop-color="#373429"/>
</linearGradient>
<linearGradient id="paint4_linear" x1="30.8904" y1="50.3528" x2="-26.3848" y2="50.3528" gradientUnits="userSpaceOnUse">
<stop stop-color="#5E5548"/>
<stop offset="1" stop-color="#77685A"/>
</linearGradient>
<linearGradient id="paint5_linear" x1="4.47452" y1="22.4044" x2="24.7928" y2="22.759" gradientUnits="userSpaceOnUse">
<stop stop-color="#4E463B"/>
<stop offset="1" stop-color="#373429"/>
</linearGradient>
<linearGradient id="paint6_linear" x1="76.8931" y1="61.8866" x2="111.124" y2="121.176" gradientUnits="userSpaceOnUse">
<stop stop-color="#744C21"/>
<stop offset="1" stop-color="#895E2E"/>
</linearGradient>
<linearGradient id="paint7_linear" x1="81.938" y1="50.5875" x2="56.768" y2="48.8273" gradientUnits="userSpaceOnUse">
<stop stop-color="#744C21"/>
<stop offset="1" stop-color="#895E2E"/>
</linearGradient>
<linearGradient id="paint8_linear" x1="62.0567" y1="82.3277" x2="60.726" y2="71.4898" gradientUnits="userSpaceOnUse">
<stop stop-color="#744C21"/>
<stop offset="1" stop-color="#895E2E"/>
</linearGradient>
<linearGradient id="paint9_linear" x1="73.7728" y1="101.561" x2="48.1251" y2="99.7679" gradientUnits="userSpaceOnUse">
<stop stop-color="#744C21"/>
<stop offset="1" stop-color="#895E2E"/>
</linearGradient>
<linearGradient id="paint10_linear" x1="40.8417" y1="121.383" x2="73.9486" y2="85.88" gradientUnits="userSpaceOnUse">
<stop stop-color="#B8884F"/>
<stop offset="1" stop-color="#895E2E"/>
</linearGradient>
<linearGradient id="paint11_linear" x1="52.6533" y1="67.4911" x2="27.4834" y2="65.7312" gradientUnits="userSpaceOnUse">
<stop stop-color="#744C21"/>
<stop offset="1" stop-color="#895E2E"/>
</linearGradient>
<linearGradient id="paint12_linear" x1="37.8619" y1="82.981" x2="52.6664" y2="67.1051" gradientUnits="userSpaceOnUse">
<stop stop-color="#B8884F"/>
<stop offset="1" stop-color="#895E2E"/>
</linearGradient>
<linearGradient id="paint13_linear" x1="37.8619" y1="82.981" x2="52.6664" y2="67.1051" gradientUnits="userSpaceOnUse">
<stop stop-color="#B8884F"/>
<stop offset="1" stop-color="#895E2E"/>
</linearGradient>
<linearGradient id="paint14_linear" x1="56.2664" y1="51.0283" x2="42.7723" y2="68.9355" gradientUnits="userSpaceOnUse">
<stop stop-color="#744C21"/>
<stop offset="1" stop-color="#895E2E"/>
</linearGradient>
<linearGradient id="paint15_linear" x1="99.3128" y1="80.9514" x2="127.16" y2="105.159" gradientUnits="userSpaceOnUse">
<stop stop-color="#744C21"/>
<stop offset="1" stop-color="#895E2E"/>
</linearGradient>
<linearGradient id="paint16_linear" x1="168.067" y1="55.4637" x2="-162.511" y2="32.3476" gradientUnits="userSpaceOnUse">
<stop stop-color="#4E463B"/>
<stop offset="1" stop-color="#373429"/>
</linearGradient>
<linearGradient id="paint17_linear" x1="44.4425" y1="44.9361" x2="38.9516" y2="35.0303" gradientUnits="userSpaceOnUse">
<stop stop-color="#744C21"/>
<stop offset="1" stop-color="#895E2E"/>
</linearGradient>
<linearGradient id="paint18_linear" x1="65.754" y1="109.094" x2="33.3325" y2="-20.9407" gradientUnits="userSpaceOnUse">
<stop stop-color="#744C21"/>
<stop offset="1" stop-color="#895E2E"/>
</linearGradient>
<linearGradient id="paint19_linear" x1="99.5452" y1="43.3695" x2="102.953" y2="54.5157" gradientUnits="userSpaceOnUse">
<stop stop-color="#744C21"/>
<stop offset="1" stop-color="#895E2E"/>
</linearGradient>
<linearGradient id="paint20_linear" x1="96.2944" y1="34.7533" x2="115.967" y2="76.9424" gradientUnits="userSpaceOnUse">
<stop stop-color="#744C21"/>
<stop offset="1" stop-color="#895E2E"/>
</linearGradient>
<linearGradient id="paint21_linear" x1="52.696" y1="9.58046" x2="72.3685" y2="51.7678" gradientUnits="userSpaceOnUse">
<stop stop-color="#744C21"/>
<stop offset="1" stop-color="#895E2E"/>
</linearGradient>
<linearGradient id="paint22_linear" x1="55.9478" y1="18.1959" x2="59.356" y2="29.344" gradientUnits="userSpaceOnUse">
<stop stop-color="#744C21"/>
<stop offset="1" stop-color="#895E2E"/>
</linearGradient>
<linearGradient id="paint23_linear" x1="1.13168" y1="85.971" x2="21.6826" y2="66.8065" gradientUnits="userSpaceOnUse">
<stop stop-color="#744C21"/>
<stop offset="1" stop-color="#895E2E"/>
</linearGradient>
<linearGradient id="paint24_linear" x1="18.3661" y1="-5.57884" x2="34.764" y2="65.4487" gradientUnits="userSpaceOnUse">
<stop stop-color="#744C21"/>
<stop offset="1" stop-color="#895E2E"/>
</linearGradient>
<linearGradient id="paint25_linear" x1="61.9664" y1="19.5939" x2="78.3644" y2="90.6213" gradientUnits="userSpaceOnUse">
<stop stop-color="#744C21"/>
<stop offset="1" stop-color="#895E2E"/>
</linearGradient>
<linearGradient id="paint26_linear" x1="83.5535" y1="12.9356" x2="100.247" y2="85.2411" gradientUnits="userSpaceOnUse">
<stop stop-color="#744C21"/>
<stop offset="1" stop-color="#895E2E"/>
</linearGradient>
<linearGradient id="paint27_linear" x1="39.9508" y1="-12.2378" x2="56.6435" y2="60.0677" gradientUnits="userSpaceOnUse">
<stop stop-color="#744C21"/>
<stop offset="1" stop-color="#895E2E"/>
</linearGradient>
<linearGradient id="paint28_linear" x1="57.6689" y1="37.903" x2="74.9714" y2="39.1128" gradientUnits="userSpaceOnUse">
<stop stop-color="#4E463B"/>
<stop offset="1" stop-color="#373429"/>
</linearGradient>
<linearGradient id="paint29_linear" x1="28.9266" y1="5.69738" x2="18.0522" y2="4.93697" gradientUnits="userSpaceOnUse">
<stop stop-color="#4E463B"/>
<stop offset="1" stop-color="#373429"/>
</linearGradient>
<linearGradient id="paint30_linear" x1="93.0842" y1="79.3867" x2="83.3354" y2="62.5008" gradientUnits="userSpaceOnUse">
<stop stop-color="#744C21"/>
<stop offset="1" stop-color="#895E2E"/>
</linearGradient>
</defs>
</svg>
