<svg width="80" height="80" viewBox="0 0 80 80" fill="none" xmlns="http://www.w3.org/2000/svg">
<g clip-path="url(#clip0)">
<path d="M71.8139 42.0824C70.3344 35.125 65.7153 29.3322 59.5117 26.2481V17.0318C59.5117 16.2518 58.8256 15.6445 58.0523 15.747C53.5968 16.336 49.981 19.5855 48.8513 23.847H34.2694C21.5552 23.847 10.9534 34.2486 10.987 46.9628C11.0065 54.3596 14.5136 60.9325 19.9463 65.1372C20.0184 68.4544 20.387 71.8168 20.7441 74.3785C21.0993 76.9303 23.2795 78.8279 25.8564 78.8279C28.4326 78.8279 30.6128 76.9303 30.968 74.3785C31.1554 73.0357 31.3452 71.4714 31.4942 69.81C32.3309 69.9022 33.1793 69.9534 34.0399 69.9534H49.2682C49.8632 69.9534 50.4529 69.9296 51.037 69.8857C51.181 71.4732 51.3623 72.9704 51.5411 74.268C51.8951 76.8309 54.0533 78.8139 56.6406 78.8279C59.2291 78.8414 61.4245 76.9395 61.7809 74.3785C62.1166 71.9688 62.4627 68.8511 62.5622 65.7292C66.0332 63.2719 68.7969 59.8802 70.4833 55.919C70.6512 55.5242 71.0381 55.2678 71.4678 55.2678H75.9588C77.2051 55.2678 78.2152 54.2577 78.2152 53.0113V44.3389C78.2152 43.0925 77.2051 42.0824 75.9588 42.0824H71.8139Z" fill="#FFD2C0"/>
<path d="M75.9595 42.0824H74.6802C74.6851 42.1398 74.6893 42.1971 74.6893 42.2551V50.9282C74.6893 52.174 73.6792 53.1841 72.4329 53.1841H67.8589C67.4799 53.1841 67.1368 53.4099 66.9897 53.7596C65.3668 57.6097 62.7283 60.9264 59.411 63.3757C59.1766 63.5485 59.0314 63.8164 59.0204 64.1075C58.9026 67.0739 58.5742 70.0042 58.255 72.2954C57.8986 74.8558 55.7031 76.7583 53.1152 76.7443C52.9181 76.743 52.724 76.7296 52.5323 76.7064C53.4747 77.9863 54.9683 78.8188 56.6412 78.828C59.2297 78.842 61.4246 76.9396 61.7816 74.3785C62.1167 71.9689 62.4628 68.8518 62.5629 65.7299C66.0339 63.272 68.797 59.8809 70.4834 55.9191C70.6512 55.5242 71.0388 55.2678 71.4679 55.2678H75.9595C77.2052 55.2678 78.2153 54.2577 78.2153 53.012V44.3389C78.2153 43.0925 77.2052 42.0824 75.9595 42.0824Z" fill="#EDAA9D"/>
<path d="M51.045 69.9535H34.0412C33.1806 69.9535 32.331 69.9022 31.4942 69.8107C31.3453 71.4714 31.1561 73.0358 30.9687 74.3785C30.6129 76.9304 28.4327 78.828 25.8558 78.828C24.1553 78.828 22.6264 77.9998 21.6822 76.7028C21.8952 76.7302 22.11 76.7443 22.3298 76.7443C24.9067 76.7443 27.0869 74.8467 27.4427 72.2954C27.6301 70.952 27.8187 69.3877 27.9682 67.7269C28.805 67.8185 29.654 67.8698 30.5146 67.8698C30.5146 67.8698 45.1801 67.8539 50.8765 67.8252C50.9229 68.546 50.9809 69.2595 51.045 69.9535Z" fill="#EDAA9D"/>
<path d="M45.6049 21.8738C45.6049 25.3247 43.7794 28.3508 41.0401 30.0348H33.2087C33.0469 30.0348 32.8852 30.036 32.7234 30.0421C32.212 30.0549 31.7036 30.0897 31.2012 30.1459C28.3607 28.4833 26.4533 25.4016 26.4533 21.8738C26.4533 16.5845 30.741 12.2968 36.0297 12.2968C41.3172 12.2968 45.6049 16.5845 45.6049 21.8738Z" fill="#FFCD34"/>
<path d="M39.7699 13.0554C41.6339 14.8029 42.8003 17.2858 42.8003 20.0421C42.8003 25.3308 38.5132 29.6185 33.2239 29.6185C31.897 29.6185 30.633 29.3481 29.4837 28.8599C30.0061 29.35 30.5847 29.7815 31.2067 30.1453C32.5641 29.9957 32.6276 30.036 41.0388 30.0348C47.5049 26.0559 47.5049 16.936 39.7699 13.0554Z" fill="#E69012"/>
<path d="M24.4611 10.7483C24.4611 16.037 20.174 20.3241 14.8853 20.3241C9.59601 20.3241 5.3089 16.037 5.3089 10.7483C5.3089 5.45959 9.59601 1.17188 14.8853 1.17188C20.174 1.17188 24.4611 5.45959 24.4611 10.7483Z" fill="#FFCD34"/>
<path d="M18.6256 1.93054C20.4902 3.67737 21.6566 6.16028 21.6566 8.91724C21.6566 14.2059 17.3689 18.493 12.0802 18.493C10.7527 18.493 9.48862 18.2233 8.33932 17.735C10.052 19.3396 12.353 20.3241 14.8853 20.3241C20.174 20.3241 24.4612 16.037 24.4612 10.7477C24.4612 6.7865 22.0558 3.38745 18.6256 1.93054Z" fill="#E69012"/>
<path d="M62.8997 40.7115C63.5467 40.7115 64.0716 40.1873 64.0716 39.5397V36.9084C64.0716 36.2609 63.5467 35.7366 62.8997 35.7366C62.2521 35.7366 61.7278 36.2609 61.7278 36.9084V39.5397C61.7278 40.1873 62.2521 40.7115 62.8997 40.7115Z" fill="black"/>
</g>
<defs>
<clipPath id="clip0">
<rect width="80" height="80" fill="white"/>
</clipPath>
</defs>
</svg>
