<svg width="81" height="78" viewBox="0 0 81 78" fill="none" xmlns="http://www.w3.org/2000/svg">
<path d="M54.4052 12.0938C54.0363 12.0938 53.6826 11.9588 53.4218 11.7185C53.161 11.4782 53.0145 11.1523 53.0145 10.8125V6.96875C53.0145 6.62894 53.161 6.30305 53.4218 6.06277C53.6826 5.82249 54.0363 5.6875 54.4052 5.6875C54.774 5.6875 55.1277 5.82249 55.3885 6.06277C55.6493 6.30305 55.7958 6.62894 55.7958 6.96875V10.8125C55.7958 11.1523 55.6493 11.4782 55.3885 11.7185C55.1277 11.9588 54.774 12.0938 54.4052 12.0938Z" fill="#F5B02E"/>
<path d="M26.5927 12.0938C26.9615 12.0938 27.3152 11.9588 27.576 11.7185C27.8368 11.4782 27.9833 11.1523 27.9833 10.8125V6.96875C27.9833 6.62894 27.8368 6.30305 27.576 6.06277C27.3152 5.82249 26.9615 5.6875 26.5927 5.6875C26.2239 5.6875 25.8702 5.82249 25.6094 6.06277C25.3486 6.30305 25.2021 6.62894 25.2021 6.96875V10.8125C25.2021 11.1523 25.3486 11.4782 25.6094 11.7185C25.8702 11.9588 26.2239 12.0938 26.5927 12.0938Z" fill="#F5B02E"/>
<path d="M40.499 6.96875C40.1301 6.96875 39.7764 6.83376 39.5156 6.59348C39.2548 6.3532 39.1083 6.02731 39.1083 5.6875V1.84375C39.1083 1.50394 39.2548 1.17805 39.5156 0.937769C39.7764 0.697488 40.1301 0.5625 40.499 0.5625C40.8678 0.5625 41.2215 0.697488 41.4823 0.937769C41.7431 1.17805 41.8896 1.50394 41.8896 1.84375V5.6875C41.8896 6.02731 41.7431 6.3532 41.4823 6.59348C41.2215 6.83376 40.8678 6.96875 40.499 6.96875Z" fill="#F5B02E"/>
<path d="M51.6239 17.2188L51.2383 18.5001L57.1457 18.8084L57.1864 17.2188L58.3363 11.9217C58.4027 11.6154 58.3455 11.2974 58.1754 11.0273C58.0052 10.7572 57.7339 10.5537 57.4124 10.4549L55.5488 9.88255C54.8065 9.65455 54.004 9.65455 53.2617 9.88255L51.3979 10.4549C51.0764 10.5537 50.805 10.7572 50.6349 11.0273C50.4648 11.2974 50.4076 11.6154 50.474 11.9217L51.6239 17.2188Z" fill="#FDB62F"/>
<path d="M29.3741 17.2188L29.7596 18.5001L23.8522 18.8084L23.8116 17.2188L22.6617 11.9208C22.5952 11.6146 22.6525 11.2966 22.8226 11.0265C22.9927 10.7564 23.2641 10.5529 23.5856 10.4541L25.4494 9.88174C26.1916 9.65368 26.9941 9.65368 27.7363 9.88174L29.6001 10.4541C29.9216 10.5529 30.1929 10.7564 30.3631 11.0265C30.5332 11.2966 30.5904 11.6146 30.5239 11.9208L29.3741 17.2188Z" fill="#FDB62F"/>
<path d="M48.1378 20.727C47.9086 20.7273 47.6829 20.6754 47.4808 20.5758C47.2787 20.4763 47.1064 20.3322 46.9794 20.1565L43.9266 15.9375H37.0712L34.0184 20.1573C33.9171 20.2973 33.7869 20.4175 33.6352 20.5112C33.4834 20.6048 33.3132 20.67 33.1341 20.703C32.955 20.736 32.7706 20.7362 32.5915 20.7035C32.4123 20.6709 32.2419 20.606 32.09 20.5127C31.938 20.4194 31.8075 20.2994 31.7059 20.1596C31.6043 20.0198 31.5335 19.8629 31.4977 19.6979C31.4619 19.5329 31.4617 19.363 31.4971 19.198C31.5326 19.0329 31.6029 18.8759 31.7042 18.7359L35.8634 13.375H45.1344L49.2936 18.7359C49.4331 18.9288 49.5132 19.1529 49.5254 19.3844C49.5376 19.616 49.4814 19.8462 49.3628 20.0506C49.2442 20.255 49.0676 20.4259 48.8519 20.5452C48.6362 20.6644 48.3894 20.7275 48.1378 20.7278V20.727Z" fill="#F5B02E"/>
<path d="M43.9267 15.9376H37.0713L35.8635 13.3751L34.3752 9.26097C34.1506 8.64087 34.1917 7.96515 34.4902 7.37208C34.7886 6.77901 35.3217 6.31344 35.9805 6.07065L40.4988 4.40503L45.0171 6.07065C45.6757 6.3134 46.2087 6.77883 46.5072 7.37172C46.8056 7.96461 46.8469 8.64016 46.6226 9.26017L45.1345 13.3751L43.9267 15.9376Z" fill="#FDB62F"/>
<path d="M59.9688 65.9062C59.8546 65.9064 59.7408 65.8935 59.63 65.8679L54.0675 64.5867C53.8729 64.5419 53.6912 64.4588 53.5347 64.3432C53.3782 64.2275 53.2507 64.0821 53.161 63.9168L50.3798 58.7918C50.2981 58.6413 50.2494 58.4774 50.2364 58.3096C50.2235 58.1417 50.2465 57.9731 50.3043 57.8135C50.362 57.6539 50.4533 57.5063 50.573 57.3791C50.6926 57.252 50.8383 57.1478 51.0016 57.0726C51.165 56.9973 51.3428 56.9524 51.525 56.9405C51.7072 56.9285 51.8901 56.9498 52.0634 57.003C52.2367 57.0562 52.3969 57.1403 52.5349 57.2506C52.6729 57.3608 52.7859 57.495 52.8676 57.6455L55.3631 62.2438L60.305 63.3818C60.6343 63.4576 60.9222 63.6416 61.1144 63.8993C61.3067 64.157 61.3899 64.4706 61.3486 64.781C61.3073 65.0914 61.1442 65.3771 60.89 65.5844C60.6359 65.7916 60.3082 65.9061 59.9688 65.9062Z" fill="#EC9E15"/>
<path d="M21.0288 65.9062C20.6894 65.9061 20.3618 65.7916 20.1076 65.5844C19.8535 65.3771 19.6904 65.0914 19.649 64.781C19.6077 64.4706 19.691 64.157 19.8832 63.8993C20.0754 63.6416 20.3633 63.4576 20.6926 63.3818L25.6346 62.2438L28.13 57.6455C28.295 57.3416 28.5843 57.1104 28.9342 57.003C29.2842 56.8955 29.6661 56.9206 29.996 57.0726C30.3259 57.2246 30.5768 57.4911 30.6934 57.8135C30.81 58.1359 30.7828 58.4878 30.6179 58.7918L27.8366 63.9168C27.7469 64.0821 27.6194 64.2275 27.463 64.3432C27.3065 64.4588 27.1247 64.5419 26.9301 64.5867L21.3676 65.8679C21.2568 65.8935 21.143 65.9064 21.0288 65.9062Z" fill="#EC9E15"/>
<path d="M32.1552 32.5938L28.6037 37.2495C28.0679 37.7587 27.3554 38.0788 26.59 38.154C25.8246 38.2293 25.0548 38.0551 24.4144 37.6616L24.3595 37.6279C23.782 37.2753 23.3387 36.7651 23.0916 36.1688C22.8445 35.5725 22.806 34.9199 22.9814 34.3025C23.1163 33.8282 23.2548 33.3321 23.3793 32.8833C23.5093 32.4137 23.4914 31.9196 23.3277 31.459C23.1639 30.9984 22.861 30.5904 22.4545 30.2827L0.170776 13.375L2.48617 19.0639C3.703 22.053 5.74243 24.6991 8.40432 26.7428L12.6864 30.0312L1.5614 28.75C3.36968 31.2488 5.98485 33.1606 9.03706 34.215L15.4677 36.4375L2.95203 37.7188L5.38979 39.0665C8.37333 40.7158 11.6671 41.8331 15.0991 42.3601L18.2489 42.8438L17.1712 43.3402C14.2323 44.694 11.7277 46.7311 9.90515 49.25H10.4536C13.723 49.2499 16.9192 48.3583 19.6395 46.6875V51.8125L23.8114 47.9688L26.5927 50.5312L27.8312 48.8195C28.3058 48.1637 28.9488 47.626 29.7031 47.2541C30.4574 46.8822 31.2996 46.6875 32.1552 46.6875V32.5938Z" fill="#FDB62F"/>
<path d="M48.8427 32.5938L52.3941 37.2503C52.9299 37.7595 53.6424 38.0796 54.4078 38.1548C55.1732 38.2301 55.943 38.0559 56.5834 37.6624L56.6383 37.6287C57.2158 37.2761 57.6591 36.7659 57.9062 36.1696C58.1533 35.5733 58.1918 34.9207 58.0164 34.3033C57.8817 33.829 57.743 33.3329 57.6185 32.8841C57.4885 32.4145 57.5064 31.9204 57.6701 31.4598C57.8339 30.9992 58.1368 30.5912 58.5433 30.2835L80.827 13.375L78.5116 19.0639C77.2949 22.0532 75.2555 24.6997 72.5935 26.7436L68.3114 30.0312L79.4364 28.75C77.6282 31.2491 75.013 33.1612 71.9606 34.2158L65.5302 36.4375L78.0458 37.7188L75.608 39.0657C72.6245 40.715 69.3307 41.8323 65.8987 42.3593L62.7489 42.8438L63.8266 43.3402C66.7655 44.694 69.2701 46.7311 71.0927 49.25H70.5442C67.2748 49.2499 64.0786 48.3583 61.3583 46.6875V51.8125L57.1864 47.9688L54.4052 50.5312L53.1666 48.8195C52.692 48.1637 52.049 47.626 51.2947 47.2541C50.5404 46.8822 49.6982 46.6875 48.8427 46.6875V32.5938Z" fill="#FDB62F"/>
<path d="M26.3503 43.9371C24.6774 43.9383 23.0416 43.4827 21.6495 42.6279C21.3426 42.4394 21.1296 42.1463 21.0572 41.8131C20.9849 41.4799 21.0592 41.1338 21.2638 40.8511C21.4683 40.5684 21.7864 40.3721 22.1481 40.3054C22.5098 40.2388 22.8853 40.3072 23.1922 40.4957C24.1729 41.0973 25.3319 41.4041 26.5096 41.3741C27.6873 41.3441 28.8261 40.9786 29.7692 40.328L31.242 39.3102L32.5631 38.093C32.8252 37.8586 33.1768 37.7285 33.5421 37.731C33.9074 37.7335 34.257 37.8683 34.5153 38.1063C34.7736 38.3443 34.9198 38.6663 34.9225 39.0029C34.9252 39.3395 34.784 39.6635 34.5295 39.9049L33.1388 41.1861C33.0925 41.229 33.0428 41.2688 32.9902 41.305L31.4386 42.3772C29.9707 43.3912 28.185 43.9387 26.3503 43.9371Z" fill="#EFAC2D"/>
<path d="M54.6476 43.9372C52.8131 43.9386 51.0276 43.3913 49.5597 42.3776L48.0081 41.3053C47.9555 41.2691 47.9058 41.2294 47.8595 41.1865L46.4688 39.9053C46.2143 39.6638 46.0731 39.3398 46.0758 39.0033C46.0784 38.6667 46.2247 38.3446 46.483 38.1066C46.7413 37.8686 47.0909 37.7338 47.4561 37.7314C47.8214 37.7289 48.1731 37.8589 48.4352 38.0934L49.7563 39.3106L51.2291 40.3284C52.1722 40.979 53.3109 41.3445 54.4887 41.3745C55.6664 41.4045 56.8253 41.0976 57.8061 40.4961C57.958 40.4027 58.1284 40.3379 58.3076 40.3053C58.4867 40.2726 58.6711 40.2728 58.8502 40.3058C59.0293 40.3388 59.1995 40.404 59.3513 40.4976C59.503 40.5912 59.6332 40.7115 59.7345 40.8515C59.8358 40.9915 59.9062 41.1485 59.9416 41.3135C59.9771 41.4786 59.9769 41.6485 59.9411 41.8134C59.9052 41.9784 59.8345 42.1353 59.7329 42.2751C59.6313 42.4149 59.5007 42.5349 59.3488 42.6282C57.9565 43.483 56.3206 43.9385 54.6476 43.9372Z" fill="#EFAC2D"/>
<path d="M26.2567 17.2188H27.8664C29.6383 17.2187 31.3876 17.5859 32.9847 18.293C34.5819 19.0002 35.9859 20.0293 37.093 21.304C38.4119 22.823 39.2651 24.6399 39.5638 26.5656L40.499 32.5938H32.1552L33.008 28.6651C33.1786 27.8795 33.1796 27.0707 33.0108 26.2848C32.8421 25.4988 32.507 24.7512 32.0247 24.0846C31.2083 22.9559 30.0068 22.1102 28.6102 21.6812C27.9708 21.4847 27.2957 21.4063 26.6234 21.4502C25.9511 21.4942 25.2948 21.6597 24.6919 21.9374L21.0302 23.625L21.9225 20.3367C22.0788 19.7606 22.3685 19.2226 22.7718 18.7594C23.175 18.2962 23.6823 17.9189 24.2587 17.6534C24.8791 17.3676 25.5631 17.2188 26.2567 17.2188Z" fill="#FDB62F"/>
<path d="M45.9147 57.6449L45.3608 56.6239L46.0615 55.6563C47.8668 56.4879 49.3307 57.8366 50.2333 59.5H54.4052C54.4052 58.2814 54.1447 57.0747 53.6386 55.9488C53.1324 54.8229 52.3905 53.7999 51.4552 52.9383L50.472 52.0323C49.4288 51.0712 48.8427 49.7676 48.8427 48.4084V46.6875L40.499 53.0938L32.1552 44.7727V48.4082C32.1552 49.7675 31.5691 51.071 30.5259 52.0321L29.5427 52.9381C28.6074 53.7998 27.8655 54.8228 27.3593 55.9487C26.8531 57.0746 26.5927 58.2814 26.5927 59.5H30.7646C31.6672 57.8366 33.1311 56.4879 34.9365 55.6563L35.6382 56.626L35.1199 57.5831L31.6269 63.2149C30.1516 65.5957 29.3751 68.2897 29.374 71.0313C29.374 71.3711 29.5205 71.697 29.7813 71.9373C30.0421 72.1775 30.3958 72.3125 30.7646 72.3125C31.1334 72.3125 31.4871 72.1775 31.7479 71.9373C32.0087 71.697 32.1552 71.3711 32.1552 71.0313C32.1564 68.7357 32.8066 66.4799 34.0416 64.4862L35.9443 61.4161L35.775 61.8066C34.2744 65.2438 33.9953 69.0309 34.9778 72.6234C35.0222 72.7867 35.1009 72.9403 35.2097 73.0755C35.3184 73.2107 35.455 73.3248 35.6117 73.4114C35.7683 73.4979 35.9419 73.5552 36.1225 73.58C36.3032 73.6047 36.4874 73.5964 36.6646 73.5556C36.8418 73.5148 37.0085 73.4422 37.1552 73.342C37.302 73.2418 37.4258 73.1159 37.5198 72.9716C37.6137 72.8273 37.6759 72.6674 37.7028 72.5009C37.7296 72.3345 37.7207 72.1648 37.6763 72.0015C36.8362 68.9318 37.0746 65.6957 38.3574 62.7587L38.9616 61.3543L39.0035 61.2771L39.1078 61.4213V76.1556C39.1078 76.4955 39.2543 76.8214 39.5151 77.0616C39.7759 77.3019 40.1296 77.4369 40.4984 77.4369C40.8673 77.4369 41.221 77.3019 41.4818 77.0616C41.7426 76.8214 41.8891 76.4955 41.8891 76.1556V61.4219L41.9956 61.2746L42.6407 62.7587C43.9229 65.6958 44.1611 68.9318 43.3211 72.0015C43.2316 72.3312 43.2879 72.6802 43.4776 72.9716C43.6674 73.2631 43.975 73.4731 44.3328 73.5556C44.6907 73.6381 45.0694 73.5862 45.3857 73.4114C45.7021 73.2365 45.9301 72.9531 46.0196 72.6234C47.002 69.0309 46.7231 65.2439 45.2231 61.8066L45.0529 61.4179L46.956 64.4862C48.1911 66.4799 48.8413 68.7357 48.8427 71.0313C48.8427 71.3711 48.9892 71.697 49.25 71.9373C49.5108 72.1775 49.8645 72.3125 50.2333 72.3125C50.6022 72.3125 50.9559 72.1775 51.2167 71.9373C51.4774 71.697 51.624 71.3711 51.624 71.0313C51.6228 68.2897 50.8463 65.5957 49.371 63.2149L45.9147 57.6449Z" fill="#FDB62F"/>
<path d="M62.749 68.4688C61.6489 68.4688 60.5734 68.1682 59.6587 67.605C58.7439 67.0419 58.031 66.2415 57.6099 65.305C57.1889 64.3685 57.0788 63.3381 57.2934 62.3439C57.508 61.3498 58.0378 60.4366 58.8157 59.7198C59.5937 59.0031 60.5848 58.515 61.6638 58.3172C62.7429 58.1195 63.8613 58.221 64.8777 58.6089C65.8941 58.9968 66.7629 59.6537 67.3741 60.4965C67.9853 61.3393 68.3115 62.3301 68.3115 63.3438C68.3098 64.7025 67.7232 66.0052 66.6804 66.9659C65.6376 67.9267 64.2238 68.4672 62.749 68.4688Z" fill="#FDB62F"/>
<path d="M54.7412 17.2188H53.1316C51.3594 17.2187 49.6099 17.586 48.0127 18.2933C46.4154 19.0006 45.0113 20.0298 43.9043 21.3048C42.5853 22.8238 41.7321 24.6407 41.4335 26.5664L40.499 32.5938H48.8427L47.9899 28.6651C47.8193 27.8795 47.8184 27.0707 47.9871 26.2848C48.1558 25.4988 48.4909 24.7512 48.9733 24.0846C49.7899 22.9559 50.9917 22.1102 52.3885 21.6813C53.0278 21.4849 53.703 21.4064 54.3753 21.4504C55.0476 21.4943 55.7039 21.6599 56.3067 21.9376L59.9677 23.625L59.0755 20.3367C58.9191 19.7606 58.6294 19.2226 58.2262 18.7594C57.8229 18.2962 57.3156 17.9189 56.7392 17.6534C56.1189 17.3676 55.4348 17.2188 54.7412 17.2188Z" fill="#FDB62F"/>
<path d="M25.2032 67.1738C25.0079 67.1741 24.8147 67.1363 24.6363 67.0631C24.4578 66.9899 24.2982 66.8829 24.1677 66.7489L16.8768 59.2711C16.7536 59.1461 16.6585 58.9999 16.5968 58.841C16.5351 58.682 16.5081 58.5134 16.5174 58.3448C16.5267 58.1762 16.572 58.0109 16.6509 57.8585C16.7297 57.7061 16.8404 57.5696 16.9767 57.4567C17.113 57.3439 17.2721 57.257 17.445 57.201C17.6178 57.145 17.801 57.121 17.9839 57.1304C18.1669 57.1398 18.346 57.1825 18.511 57.2559C18.676 57.3293 18.8236 57.4321 18.9454 57.5582L26.2366 65.0361C26.4162 65.2202 26.5341 65.4482 26.576 65.6928C26.6179 65.9373 26.582 66.1877 26.4727 66.4139C26.3634 66.64 26.1853 66.8321 25.96 66.967C25.7347 67.1018 25.4719 67.1737 25.2032 67.1738Z" fill="#FDB62F"/>
<path d="M18.9454 57.5582C18.8236 57.4321 18.676 57.3293 18.511 57.2559C18.346 57.1825 18.1669 57.1398 17.9839 57.1304C17.801 57.121 17.6178 57.145 17.445 57.201C17.2721 57.257 17.113 57.3439 16.9767 57.4567C16.8404 57.5696 16.7297 57.7061 16.6509 57.8585C16.572 58.0109 16.5267 58.1762 16.5174 58.3448C16.5081 58.5134 16.5351 58.682 16.5968 58.841C16.6585 58.9999 16.7536 59.1461 16.8768 59.2711L18.7552 61.1978C19.6567 60.9047 20.422 60.336 20.9237 59.5863L18.9454 57.5582Z" fill="#F5B02E"/>
<path d="M68.114 62.0625H64.1396V56.9375C64.1396 56.5977 63.9931 56.2718 63.7323 56.0315C63.4715 55.7912 63.1178 55.6562 62.749 55.6562C62.3801 55.6562 62.0264 55.7912 61.7656 56.0315C61.5048 56.2718 61.3583 56.5977 61.3583 56.9375V62.0625H57.3839C57.1206 62.8994 57.1206 63.7881 57.3839 64.625H68.114C68.3773 63.7881 68.3773 62.8994 68.114 62.0625Z" fill="#EC9E15"/>
<path d="M46.941 51.1145L40.499 53.0938L34.0569 51.1152C33.5031 50.9451 33.0215 50.6188 32.6802 50.1825C32.3389 49.7462 32.1552 49.222 32.1552 48.6842V32.5938H48.8427V48.6835C48.8427 49.2213 48.6591 49.7455 48.3178 50.1818C47.9764 50.6181 47.4948 50.9445 46.941 51.1145Z" fill="#DE4C3B"/>
<path d="M32.1552 47.4023C32.1552 47.9401 32.3389 48.4643 32.6802 48.9006C33.0215 49.3369 33.5031 49.6632 34.0569 49.8333L40.499 51.8125L46.941 49.8339C47.4948 49.6638 47.9764 49.3375 48.3178 48.9012C48.6591 48.4649 48.8427 47.9407 48.8427 47.4029V32.5938H32.1552V47.4023Z" fill="#F85542"/>
<path d="M37.7177 42.8438C37.3489 42.8438 36.9952 42.7088 36.7344 42.4685C36.4736 42.2282 36.3271 41.9023 36.3271 41.5625V37.7188C36.3271 37.3789 36.4736 37.053 36.7344 36.8128C36.9952 36.5725 37.3489 36.4375 37.7177 36.4375C38.0865 36.4375 38.4402 36.5725 38.701 36.8128C38.9618 37.053 39.1083 37.3789 39.1083 37.7188V41.5625C39.1083 41.9023 38.9618 42.2282 38.701 42.4685C38.4402 42.7088 38.0865 42.8438 37.7177 42.8438Z" fill="#4298D1"/>
<path d="M44.6709 37.7188C43.8109 37.7212 42.9729 37.9688 42.2718 38.4276C41.5707 38.8864 41.0409 39.5339 40.7552 40.2812H37.7177C37.4807 40.2812 37.2475 40.337 37.0404 40.4434C36.8334 40.5497 36.6592 40.7031 36.5346 40.8889C36.4099 41.0747 36.3389 41.2868 36.3283 41.505C36.3177 41.7232 36.3678 41.9403 36.4738 42.1357L36.9851 43.0766C37.1108 43.3081 37.1543 43.5702 37.1093 43.8258C37.0643 44.0813 36.9332 44.3173 36.7346 44.5004C36.4801 44.7418 36.3389 45.0658 36.3415 45.4024C36.3442 45.7389 36.4905 46.061 36.7488 46.299C37.007 46.537 37.3566 46.6718 37.7219 46.6743C38.0872 46.6768 38.4389 46.5467 38.7009 46.3123C39.1863 45.8658 39.5429 45.3146 39.7383 44.7089C39.9336 44.1031 39.9615 43.462 39.8193 42.8438H41.252C41.6646 43.3716 41.8875 44.0051 41.8896 44.6556V45.4062C41.8896 45.7461 42.0361 46.072 42.2969 46.3122C42.5577 46.5525 42.9114 46.6875 43.2802 46.6875C43.6491 46.6875 44.0028 46.5525 44.2636 46.3122C44.5244 46.072 44.6709 45.7461 44.6709 45.4062V44.6556C44.6664 43.4014 44.2046 42.185 43.3595 41.2018C43.4408 40.9384 43.6125 40.7064 43.8489 40.5404C44.0853 40.3745 44.3737 40.2835 44.6709 40.2812C45.0397 40.2812 45.3934 40.1463 45.6542 39.906C45.915 39.6657 46.0615 39.3398 46.0615 39C46.0615 38.6602 45.915 38.3343 45.6542 38.094C45.3934 37.8537 45.0397 37.7188 44.6709 37.7188Z" fill="#F8F8F8"/>
<path d="M16.8284 60.7813C16.6463 60.7814 16.4644 60.7707 16.2838 60.7493C15.2103 60.6207 14.2331 60.1127 13.5587 59.3325C12.8843 58.5523 12.5655 57.5611 12.6698 56.5683C12.7741 55.5756 13.2932 54.659 14.1175 54.0125C14.9418 53.3659 16.0066 53.04 17.0869 53.1035C18.1673 53.1671 19.1785 53.6151 19.9068 54.353C20.6352 55.0909 21.0236 56.0608 20.9901 57.0577C20.9565 58.0546 20.5035 59.0004 19.7269 59.6953C18.9503 60.3901 17.9109 60.7796 16.8284 60.7813Z" fill="#FDB62F"/>
</svg>
