<svg width="131" height="124" viewBox="0 0 131 124" fill="none" xmlns="http://www.w3.org/2000/svg">
<path d="M120.809 107.435C120.741 106.454 120.105 105.594 119.176 105.236C118.241 104.876 117.227 105.087 116.527 105.787L116.077 106.236L99.6005 89.7591C98.5882 88.747 96.9417 88.747 95.9294 89.7591L88.7591 96.9295C88.2695 97.4189 88 98.0708 88 98.7652C88 99.4595 88.2696 100.111 88.7589 100.601L105.236 117.078L104.787 117.527C104.11 118.203 103.891 119.194 104.215 120.113C104.545 121.049 105.361 121.695 106.342 121.799L119.463 123.202C119.561 123.213 119.659 123.219 119.756 123.219C120.403 123.219 121.021 122.969 121.486 122.511C122.023 121.982 122.285 121.245 122.204 120.489L120.809 107.435ZM107.311 119.035L108.26 118.086C108.817 117.529 108.817 116.626 108.26 116.069L90.9562 98.7652L97.765 91.9564L115.069 109.261C115.626 109.817 116.529 109.818 117.086 109.261L118.035 108.312L119.318 120.319L107.311 119.035Z" fill="#E0E0E0"/>
<path d="M96.9294 33.4598C97.4189 33.9491 98.0708 34.2186 98.765 34.2186C99.4592 34.2186 100.111 33.9491 100.601 33.4598L117.077 16.983L117.527 17.4325C118.227 18.1323 119.242 18.3432 120.176 17.983C121.105 17.6249 121.741 16.7651 121.809 15.7838L123.204 2.72923C123.285 1.974 123.023 1.23745 122.486 0.708487C121.951 0.181379 121.215 -0.07027 120.463 0.0169873L107.343 1.41981C106.361 1.52417 105.545 2.17033 105.215 3.10607C104.89 4.02483 105.11 5.01575 105.786 5.69171L106.236 6.14125L89.7591 22.618C89.2695 23.1075 89 23.7594 89 24.4537C89 25.1481 89.2696 25.7999 89.7589 26.2894L96.9294 33.4598ZM109.26 7.14956C109.528 6.88223 109.678 6.51951 109.678 6.14139C109.678 5.76328 109.528 5.40056 109.26 5.13323L108.311 4.18424L120.318 2.90061L119.035 14.9076L118.086 13.9586C117.529 13.4019 116.626 13.4019 116.069 13.9586L98.765 31.2627L91.956 24.4539L109.26 7.14956Z" fill="#E0E0E0"/>
<path d="M26.2892 89.759C25.2769 88.7469 23.6303 88.7471 22.6182 89.759L6.14121 106.236L5.69181 105.786C4.9919 105.087 3.97703 104.876 3.04287 105.236C2.11412 105.594 1.47765 106.454 1.41007 107.435L0.0142387 120.489C-0.0660323 121.245 0.19574 121.981 0.732543 122.51C1.19777 122.969 1.81542 123.219 2.46258 123.219C2.55967 123.219 2.65748 123.213 2.75543 123.202L15.8757 121.799C16.8579 121.695 17.6733 121.049 18.0036 120.113C18.3281 119.194 18.109 118.203 17.4323 117.527L16.9826 117.078L33.4596 100.601C33.9489 100.111 34.2184 99.4593 34.2184 98.765C34.2184 98.0706 33.9488 97.4189 33.4594 96.9295L26.2892 89.759ZM13.9582 116.069C13.4014 116.626 13.4014 117.529 13.9582 118.086L14.9073 119.035L2.90043 120.319L4.18405 108.312L5.13305 109.261C5.68981 109.817 6.59261 109.817 7.14938 109.261L24.4536 91.9562L31.2623 98.765L13.9582 116.069Z" fill="#E0E0E0"/>
<path d="M73.8989 59.1595H39.7553C37.0137 59.1595 34.791 56.9368 34.791 54.1952C34.791 51.4535 37.0137 49.2308 39.7553 49.2308H73.8989C76.6406 49.2308 78.8633 51.4535 78.8633 54.1952C78.8633 56.9368 76.6406 59.1595 73.8989 59.1595Z" fill="#EAAC9D"/>
<path d="M56.8271 75.0984C48.8891 75.0984 42.454 68.6634 42.454 60.7255V47.1091C42.454 39.1711 48.8891 32.7362 56.8269 32.7362C64.7649 32.7362 71.1998 39.1712 71.1998 47.1091V60.7255C71.2 68.6636 64.7651 75.0984 56.8271 75.0984Z" fill="#FFDDCE"/>
<path d="M60.5163 74.6219C59.3391 74.9347 58.1049 75.0997 56.8283 75.0997C48.8891 75.0997 42.4543 68.6648 42.4543 60.7256V47.1107C42.4543 39.1715 48.8891 32.7367 56.8283 32.7367C58.1051 32.7367 59.3391 32.9016 60.5163 33.2145C54.3629 34.8437 49.8302 40.4485 49.8302 47.1107V60.7256C49.8302 67.3881 54.3628 72.9926 60.5163 74.6219Z" fill="#FFCBBE"/>
<path d="M44.5093 29.9152H45.7722C49.602 29.9152 52.7068 33.0199 52.7068 36.8498V36.903C52.7068 40.7328 49.602 43.8376 45.7722 43.8376H44.5093C40.6795 43.8376 37.5747 40.7328 37.5747 36.903V36.8498C37.5747 33.0199 40.6795 29.9152 44.5093 29.9152Z" fill="#BE694F"/>
<path d="M47.6242 43.584C47.0342 43.7501 46.4132 43.8367 45.7728 43.8367H44.5111C40.6806 43.8367 37.5747 40.7333 37.5747 36.9029V36.8499C37.5747 33.0194 40.6804 29.916 44.5111 29.916H45.7728C46.4132 29.916 47.0344 30.0026 47.6242 30.1687C44.6917 30.9752 42.5392 33.6598 42.5392 36.8499V36.9029C42.5392 40.0929 44.6917 42.7775 47.6242 43.584Z" fill="#AA593D"/>
<path d="M51.5029 34.8304C51.5029 40.3355 55.9656 44.7982 61.4708 44.7982C70.4248 44.7982 77.6836 37.5395 77.6836 28.5854V27.2644H58.7057C54.5837 27.2644 51.3003 30.7134 51.5029 34.8304Z" fill="#BE694F"/>
<path d="M64.7062 44.4753C63.6613 44.6872 62.5779 44.798 61.4703 44.798C55.964 44.798 51.5028 40.3367 51.5028 34.8305C51.3006 30.7135 54.5846 27.2657 58.7064 27.2657H64.4703C60.3484 27.2657 57.0644 30.7135 57.2667 34.8305C57.2667 39.4627 60.4254 43.3558 64.7062 44.4753Z" fill="#AA593D"/>
<path d="M110.015 49V87.1365L72.9997 74.4443V61.6922L110.015 49Z" fill="#FFE07D"/>
<path d="M110.015 75.4482V87.1367L72.9997 74.4445V70.2505L110.015 75.4482Z" fill="#FFD064"/>
<path d="M78.4356 93.8232C73.3386 97.702 67.1259 99.7342 60.8514 99.7342C55.097 99.7342 49.2904 98.0268 44.2359 94.4709C39.4116 91.0755 35.7861 86.3652 33.75 80.8487C32.8257 78.3447 34.1058 75.5641 36.6117 74.6399C39.1157 73.7156 41.8943 74.9956 42.8205 77.4997C44.1741 81.1696 46.5872 84.304 49.8008 86.5644C56.5491 91.3133 65.318 91.1122 71.7647 86.7152L78.4356 93.8232Z" fill="#CBE2FF"/>
<path d="M72.7315 97.2032C68.9919 98.8739 64.9352 99.7343 60.8514 99.7343C55.097 99.7343 49.2904 98.0269 44.2359 94.471C39.4116 91.0756 35.7861 86.3654 33.75 80.8488C32.8257 78.3448 34.1058 75.5643 36.6117 74.64C37.2653 74.3983 37.9382 74.3074 38.5898 74.3499C37.2537 75.6397 36.7297 77.6448 37.4142 79.4991C39.4503 85.0157 43.0758 89.726 47.9001 93.1214C52.9545 96.6773 58.7612 98.3847 64.5156 98.3847C67.298 98.3845 70.067 97.9844 72.7315 97.2032Z" fill="#BED8FB"/>
<path d="M84.5556 87.463C82.8057 89.9477 80.7348 92.0746 78.4358 93.8226L71.7668 86.7147C73.6211 85.4501 75.284 83.8394 76.6491 81.8981C78.1863 79.7151 81.2027 79.1891 83.3858 80.7263C85.5688 82.2635 86.0928 85.28 84.5556 87.463Z" fill="#FFDDCE"/>
<path d="M115.359 82.5027L115.57 82.1086C116.316 80.7186 118.011 80.1433 119.448 80.792L123.871 82.7875C125.455 83.5024 126.103 85.4093 125.281 86.9407L124.756 87.9201C123.934 89.4515 121.987 89.967 120.516 89.0425L116.407 86.4617C115.072 85.6227 114.613 83.8928 115.359 82.5027Z" fill="#E0E0E0"/>
<path d="M118.869 68.0581L118.855 67.611C118.805 66.0344 119.985 64.6888 121.555 64.5318L126.383 64.0488C128.112 63.8757 129.626 65.2035 129.681 66.9404L129.715 68.0513C129.77 69.7884 128.341 71.2081 126.605 71.1433L121.756 70.9627C120.179 70.9039 118.918 69.6347 118.869 68.0581Z" fill="#E0E0E0"/>
<path d="M114.686 53.794L114.45 53.4138C113.619 52.0731 113.968 50.3178 115.249 49.397L119.188 46.5647C120.599 45.5501 122.574 45.943 123.49 47.4201L124.075 48.3646C124.991 49.8419 124.464 51.7854 122.928 52.5977L118.638 54.8656C117.244 55.603 115.517 55.1347 114.686 53.794Z" fill="#E0E0E0"/>
<path d="M57.2887 55.4991H60.1663C61.5733 55.4991 62.714 56.6398 62.714 58.0468V63.0864C62.714 65.2882 60.9291 67.0731 58.7273 67.0731C56.5255 67.0731 54.7406 65.2882 54.7406 63.0864V58.0468C54.741 56.6398 55.8816 55.4991 57.2887 55.4991Z" fill="#2B4D66"/>
<path d="M55.0107 53.2416C55.8118 53.2416 56.4609 52.5923 56.4609 51.7914V48.8879C56.4609 48.087 55.8118 47.4377 55.0107 47.4377C54.2096 47.4377 53.5605 48.087 53.5605 48.8879V51.7914C53.5605 52.5925 54.2096 53.2416 55.0107 53.2416Z" fill="black"/>
<path d="M62.5111 53.2416C63.3122 53.2416 63.9613 52.5923 63.9613 51.7914V48.8879C63.9613 48.087 63.3122 47.4377 62.5111 47.4377C61.71 47.4377 61.0609 48.087 61.0609 48.8879V51.7914C61.0609 52.5925 61.71 53.2416 62.5111 53.2416Z" fill="black"/>
<path d="M60.1662 54.049H57.2887C55.0842 54.049 53.2906 55.8424 53.2906 58.047V63.0866C53.2906 66.0844 55.7294 68.5233 58.7274 68.5233C61.7253 68.5233 64.1641 66.0844 64.1641 63.0866V58.047C64.1643 55.8424 62.3707 54.049 60.1662 54.049ZM61.2639 63.0866C61.2639 64.4851 60.126 65.6229 58.7276 65.6229C57.3291 65.6229 56.1911 64.4851 56.1911 63.0866V58.047C56.1911 57.4418 56.6836 56.9493 57.2888 56.9493H60.1664C60.7716 56.9493 61.2641 57.4416 61.2641 58.047V63.0866H61.2639Z" fill="black"/>
<path d="M29.2542 18.4126C28.6974 17.8558 27.7946 17.8558 27.2377 18.4126C26.6808 18.9694 26.6809 19.8722 27.2377 20.4291L31.2625 24.4537L24.4537 31.2625L7.14928 13.9582C6.88195 13.6909 6.51923 13.5406 6.14112 13.5406C5.763 13.5406 5.40028 13.6909 5.13295 13.9582L4.1841 14.9072L2.90033 2.90019L14.9073 4.18382L13.9582 5.13295C13.6909 5.40028 13.5406 5.763 13.5406 6.14112C13.5406 6.51923 13.6909 6.88195 13.9582 7.14928L18.1642 11.3553C18.721 11.9121 19.6238 11.9121 20.1807 11.3553C20.7376 10.7985 20.7375 9.89575 20.1807 9.33884L16.9828 6.14097L17.4318 5.692C18.1091 5.01547 18.3282 4.02456 18.0037 3.10579C17.6733 2.17005 16.8578 1.52389 15.8766 1.41953L2.75562 0.0169936C2.00423 -0.0702637 1.26754 0.181243 0.732446 0.708494C0.195642 1.23746 -0.0661298 1.97401 0.0142838 2.73024L1.40997 15.7833C1.4777 16.7648 2.11402 17.6246 3.04277 17.9827C3.97679 18.343 4.9918 18.132 5.69185 17.4322L6.14126 16.9828L22.6181 33.4596C23.1075 33.949 23.7592 34.2184 24.4537 34.2184C25.1481 34.2184 25.7998 33.949 26.2893 33.4596L33.4598 26.2891C34.4718 25.277 34.4718 23.6302 33.4598 22.6181L29.2542 18.4126Z" fill="#E0E0E0"/>
<path d="M23.7084 16.3088H23.7094C24.4969 16.3088 25.1346 15.6705 25.1346 14.8831C25.1346 14.0956 24.4959 13.4573 23.7084 13.4573C22.921 13.4573 22.2826 14.0956 22.2826 14.8831C22.2826 15.6705 22.921 16.3088 23.7084 16.3088Z" fill="#E0E0E0"/>
</svg>
