<svg width="97" height="90" viewBox="0 0 97 90" fill="none" xmlns="http://www.w3.org/2000/svg">
<circle cx="74.6572" cy="17.2081" r="13.6236" fill="#F25040"/>
<circle cx="23.9777" cy="73.3372" r="14.1685" fill="#F25040"/>
<circle cx="6.53931" cy="30.8315" r="5.44944" fill="#F25040"/>
<circle cx="49.045" cy="45.0001" r="5.44944" fill="#F25040"/>
<circle cx="90.4605" cy="59.1686" r="5.44944" fill="#F25040"/>
<path d="M74.5201 25.636C79.51 25.636 83.5693 21.5527 83.5693 16.5337C83.5693 11.5148 79.5098 7.43148 74.5201 7.43148C69.5304 7.43148 65.4711 11.5148 65.4711 16.5337C65.4711 21.5527 69.5306 25.636 74.5201 25.636ZM74.5201 11.4029C77.3328 11.4029 79.621 13.7046 79.621 16.5337C79.621 19.3629 77.3328 21.6646 74.5201 21.6646C71.7076 21.6646 69.4194 19.3629 69.4194 16.5337C69.4194 13.7046 71.7076 11.4029 74.5201 11.4029ZM22.8467 64.3642C17.8569 64.3642 13.7977 68.4474 13.7977 73.4664C13.7977 78.4854 17.8571 82.5687 22.8467 82.5687C27.8366 82.5687 31.8959 78.4854 31.8959 73.4664C31.8959 68.4474 27.8364 64.3642 22.8467 64.3642ZM22.8467 78.5973C20.0342 78.5973 17.7459 76.2956 17.7459 73.4664C17.7459 70.6372 20.0342 68.3356 22.8467 68.3356C25.6594 68.3356 27.9476 70.6372 27.9476 73.4664C27.9476 76.2956 25.6594 78.5973 22.8467 78.5973ZM91.7615 53.2029C89.325 47.1366 83.3706 43.0143 76.8004 43.0143H54.2185C53.3984 40.6312 51.1446 38.9153 48.5001 38.9153C45.8556 38.9153 43.6018 40.6312 42.7817 43.0143H20.1996C15.4781 43.0143 11.1771 40.1928 9.18587 35.9681C10.931 34.8993 12.0986 32.9677 12.0986 30.7669C12.0986 28.566 10.931 26.6342 9.18587 25.5654C11.1771 21.3409 15.4783 18.5192 20.1996 18.5192H58.5162C59.4923 26.5296 66.2974 32.7526 74.5201 32.7526C83.4112 32.7526 90.6444 25.4767 90.6444 16.5335C90.6444 7.59055 83.4109 0.314697 74.5201 0.314697C66.2972 0.314697 59.4923 6.53769 58.5162 14.5478H20.1996C13.6296 14.5478 7.675 18.6701 5.23826 24.7365C2.28495 25.1365 0 27.6884 0 30.7671C0 33.8458 2.28495 36.3974 5.23826 36.7972C7.67478 42.8636 13.6294 46.9859 20.1996 46.9859H42.7817C43.6018 49.369 45.8556 51.0849 48.5001 51.0849C51.1446 51.0849 53.3984 49.369 54.2185 46.9859H76.8004C81.5219 46.9859 85.8229 49.8074 87.8139 54.0321C86.0688 55.1008 84.9012 57.0325 84.9012 59.2333C84.9012 61.4341 86.0688 63.366 87.8139 64.4348C85.8229 68.6593 81.5217 71.481 76.8004 71.481H38.851C37.8747 63.4706 31.0696 57.2476 22.8467 57.2476C13.9558 57.2476 6.72259 64.5235 6.72259 73.4667C6.72259 82.4096 13.9558 89.6855 22.8467 89.6855C31.0698 89.6855 37.8749 83.4625 38.851 75.4524H76.8004C83.3706 75.4524 89.325 71.33 91.7615 65.2637C94.7151 64.8637 97 62.3118 97 59.2333C97 56.1548 94.7151 53.603 91.7615 53.2029ZM74.5201 4.28634C81.2339 4.28634 86.6961 9.78035 86.6961 16.5337C86.6961 23.2871 81.2339 28.7814 74.5201 28.7814C67.8063 28.7814 62.3443 23.2871 62.3443 16.5337C62.3443 9.78035 67.8063 4.28634 74.5201 4.28634ZM6.37975 32.8543C6.36351 32.8565 6.3475 32.8589 6.33105 32.8613C6.23892 32.8739 6.14482 32.8803 6.04919 32.8803C4.89059 32.8803 3.94805 31.9323 3.94805 30.7671C3.94805 29.6017 4.89059 28.6536 6.04919 28.6536C6.14439 28.6536 6.23805 28.66 6.32995 28.6724C6.34684 28.6753 6.36351 28.6775 6.3804 28.6799C7.38195 28.8403 8.14989 29.7151 8.14989 30.7671C8.15011 31.8191 7.38173 32.6943 6.37975 32.8543ZM48.5001 47.1134C47.3417 47.1134 46.3992 46.1654 46.3992 45.0002C46.3992 43.835 47.3415 42.887 48.5001 42.887C49.6587 42.887 50.601 43.835 50.601 45.0002C50.601 46.1654 49.6585 47.1134 48.5001 47.1134ZM22.8467 85.7139C16.1329 85.7139 10.6709 80.2198 10.6709 73.4664C10.6709 66.713 16.1329 61.2188 22.8467 61.2188C29.5607 61.2188 35.0229 66.713 35.0229 73.4664C35.0229 80.2198 29.5607 85.7139 22.8467 85.7139ZM90.9504 61.3466C90.8554 61.3466 90.7617 61.3402 90.6701 61.3278C90.6529 61.3249 90.6358 61.3225 90.6187 61.3203C89.6174 61.1597 88.8497 60.2849 88.8497 59.2331C88.8497 58.1809 89.6178 57.3061 90.6198 57.1459C90.6363 57.1437 90.6525 57.1413 90.669 57.1388C90.7611 57.1263 90.8552 57.1199 90.9506 57.1199C92.1092 57.1199 93.052 58.0679 93.052 59.2331C93.0517 60.3985 92.109 61.3466 90.9504 61.3466Z" fill="white"/>
</svg>
