<svg width="59" height="53" viewBox="0 0 59 53" fill="none" xmlns="http://www.w3.org/2000/svg">
<path d="M56.5823 49.8344H2.79283V24.5319H22.6992C23.2639 28.3273 26.9345 30.9981 30.7464 30.4358C33.8523 29.8735 36.1112 27.6244 36.6759 24.5319H56.5823V49.8344ZM29.617 18.9091C32.1582 18.9091 34.1347 21.0177 34.1347 23.4074C34.1347 25.9376 32.017 27.9056 29.617 27.9056C27.0757 27.9056 25.0992 25.797 25.0992 23.4074C25.0992 20.596 27.4993 18.9091 29.617 18.9091ZM57.7117 22.0017H36.3936C35.5465 18.2063 31.8759 15.676 28.064 16.5195C25.2404 17.0817 23.1227 19.1903 22.558 22.0017H1.38104C0.67514 22.0017 0.110474 22.5639 0.110474 23.2668V51.0995C0.110474 51.8024 0.67514 52.3646 1.38104 52.3646H57.5705C58.2764 52.3646 58.8411 51.8024 58.8411 51.0995V23.2668C58.9823 22.5639 58.4176 22.0017 57.7117 22.0017Z" fill="white"/>
<path d="M10.8401 33.9502H8.5813V45.1957H16.6284V43.3683H10.8401V33.9502Z" fill="white"/>
<path d="M21.1462 33.9502H23.4052V45.1957H21.1462V33.9502Z" fill="white"/>
<path d="M32.7229 42.2438L29.8994 33.9502H27.3582L31.4523 45.1957H33.8524L37.9466 33.9502H35.5465L32.7229 42.2438Z" fill="white"/>
<path d="M50.7939 43.3683H44.4409V40.2758H50.0881V38.3078H44.4409V35.7776H50.5116V33.9502H42.0409V45.1957H50.7939V43.3683Z" fill="white"/>
<path d="M19.0286 12.8647C18.4639 13.427 18.4639 14.1299 19.0286 14.6921C19.5933 15.2544 20.2992 15.2544 20.8639 14.6921C25.8052 9.77222 33.7112 9.77222 38.5113 14.6921C39.076 15.2544 39.782 15.2544 40.3467 14.6921C40.7703 14.1299 40.7703 13.427 40.3467 12.8647C34.4172 7.1014 24.9581 7.1014 19.0286 12.8647Z" fill="white"/>
<path d="M15.3579 9.0694C23.2639 1.05695 36.1113 1.05695 44.0173 9.0694C44.582 9.63168 45.2879 9.63168 45.8526 9.0694C46.4174 8.50713 46.4174 7.80428 45.8526 7.242C36.9583 -1.61387 22.558 -1.61387 13.6637 7.242C13.099 7.80428 13.099 8.50713 13.6637 9.0694C14.2284 9.77225 14.9343 9.35054 15.3579 9.0694Z" fill="white"/>
</svg>
