<svg width="54" height="48" viewBox="0 0 54 48" fill="none" xmlns="http://www.w3.org/2000/svg">
<path d="M27.1873 0.414551C27.752 0.414551 28.1756 0.836258 28.1756 1.39854C28.1756 1.96081 27.752 2.38252 27.1873 2.38252C26.6226 2.38252 26.1991 1.96081 26.1991 1.39854C26.0579 0.836258 26.6226 0.414551 27.1873 0.414551Z" fill="white"/>
<path d="M51.6115 45.2562H41.3054V26.701H51.6115V45.2562ZM2.76337 26.701H13.0695V45.2562H2.76337V26.701ZM5.44577 7.16188C5.44577 6.5996 5.86928 6.1779 6.434 6.1779C6.99872 6.1779 7.42227 6.5996 7.42227 7.16188V24.7331H5.30458L5.44577 7.16188ZM39.1877 33.1672H15.1871V31.1992H39.1877V33.1672ZM28.458 27.4039L29.8698 29.0907H27.0462L28.458 27.4039ZM35.2347 40.1957L39.1877 36.5409V43.8505L35.2347 40.1957ZM33.6817 41.6014L37.6347 45.2562H29.8698L33.6817 41.6014ZM20.6931 41.6014L24.6462 45.2562H16.8813L20.6931 41.6014ZM15.1871 36.5409L19.1402 40.1957L15.1871 43.8505V36.5409ZM20.6931 38.79L16.7401 35.1352H24.505L20.6931 38.79ZM29.8698 35.2758H37.6347L33.6817 38.9306L29.8698 35.2758ZM26.1991 43.9911L22.2461 40.3363L26.1991 36.6815V43.9911ZM28.1757 36.5409L32.1287 40.1957L28.1757 43.8505V36.5409ZM46.8114 7.16188C46.8114 6.5996 47.2349 6.1779 47.7996 6.1779C48.3643 6.1779 48.7879 6.5996 48.7879 7.16188V24.7331H46.6702L46.8114 7.16188ZM22.1049 12.7847C22.1049 12.2224 22.5285 11.8007 23.0932 11.8007C23.6579 11.8007 24.0814 12.2224 24.0814 12.7847C24.0814 13.3469 23.6579 13.7686 23.0932 13.7686C22.5285 13.7686 22.1049 13.3469 22.1049 12.7847ZM52.5997 24.5925H50.9056V7.16188C50.9056 5.47505 49.4938 4.06935 47.7996 4.06935C47.0937 4.06935 46.3878 4.35049 45.8231 4.7722L44.129 1.1174C43.9878 0.69569 43.5642 0.555119 43.1407 0.555119H31.7052C31.1405 0.555119 30.7169 0.976827 30.7169 1.5391C30.7169 2.10138 31.1405 2.52309 31.7052 2.52309H42.4348L44.8349 7.30245V24.5925H40.3171C39.7524 24.5925 39.3289 25.0142 39.3289 25.5765V28.9501H32.6934L29.5875 25.2953V20.516C29.7287 20.6565 30.011 20.7971 30.2934 20.7971C30.5757 20.7971 30.8581 20.6565 30.9993 20.516C31.4228 20.0943 31.4228 19.3914 30.9993 19.1103L29.5875 17.7046V15.4555C29.5875 14.8932 29.1639 14.4715 28.5992 14.4715C28.0345 14.4715 27.6109 14.8932 27.6109 15.4555V15.596L26.058 14.0498C26.1992 13.6281 26.3403 13.2064 26.3403 12.7847C26.3403 11.0978 24.9286 9.69213 23.2344 9.69213C21.5402 9.69213 20.1284 11.0978 20.1284 12.7847C20.1284 14.4715 21.5402 15.8772 23.2344 15.8772C23.6579 15.8772 24.2226 15.7366 24.505 15.596L27.4698 18.548V25.4359L24.3638 29.0907H15.1871V25.717C15.1871 25.1548 14.7636 24.7331 14.1989 24.7331H9.53997V7.30245L11.6577 2.38252H22.3873C22.952 2.38252 23.3755 1.96081 23.3755 1.39854C23.3755 0.836259 22.952 0.414551 22.3873 0.414551H10.9518C10.5282 0.414551 10.1047 0.695689 9.96349 0.976828L8.26936 4.63163C7.70464 4.20992 6.99875 3.92879 6.29286 3.92879C4.5987 3.92879 3.18689 5.33448 3.18689 7.02131V24.5925H1.49272C0.927999 24.5925 0.504486 25.0142 0.504486 25.5765V46.2402C0.504486 46.8024 0.927999 47.2242 1.49272 47.2242H52.4585C53.0233 47.2242 53.4468 46.8024 53.4468 46.2402V25.717C53.7292 25.1548 53.1644 24.5925 52.5997 24.5925Z" fill="white"/>
<path d="M46.3877 32.8861C45.823 32.8861 45.3994 32.4644 45.3994 31.9021C45.3994 31.3398 45.823 30.9181 46.3877 30.9181C46.9524 30.9181 47.376 31.3398 47.376 31.9021C47.5171 32.4644 46.9524 32.8861 46.3877 32.8861ZM46.3877 28.8096C44.6936 28.8096 43.2817 30.2153 43.2817 31.9021C43.2817 33.5889 44.6936 34.9946 46.3877 34.9946C48.0819 34.9946 49.4937 33.5889 49.4937 31.9021C49.4937 30.2153 48.2231 28.8096 46.3877 28.8096Z" fill="white"/>
<path d="M46.3877 41.1797C45.823 41.1797 45.3994 40.758 45.3994 40.1957C45.3994 39.6335 45.823 39.2118 46.3877 39.2118C46.9524 39.2118 47.376 39.6335 47.376 40.1957C47.5171 40.6175 46.9524 41.1797 46.3877 41.1797ZM46.3877 36.9626C44.6936 36.9626 43.2817 38.3683 43.2817 40.0552C43.2817 41.742 44.6936 43.1477 46.3877 43.1477C48.0819 43.1477 49.4937 41.742 49.4937 40.0552C49.4937 38.3683 48.2231 36.9626 46.3877 36.9626Z" fill="white"/>
<path d="M7.98693 32.8861C7.42221 32.8861 6.9987 32.4644 6.9987 31.9021C6.9987 31.3398 7.42221 30.9181 7.98693 30.9181C8.55165 30.9181 8.9752 31.3398 8.9752 31.9021C8.9752 32.4644 8.55165 32.8861 7.98693 32.8861ZM7.98693 28.8096C6.29278 28.8096 4.88101 30.2153 4.88101 31.9021C4.88101 33.5889 6.29278 34.9946 7.98693 34.9946C9.68108 34.9946 11.0929 33.5889 11.0929 31.9021C11.0929 30.2153 9.68108 28.8096 7.98693 28.8096Z" fill="white"/>
<path d="M7.98693 41.1797C7.42221 41.1797 6.9987 40.758 6.9987 40.1957C6.9987 39.6335 7.42221 39.2118 7.98693 39.2118C8.55165 39.2118 8.9752 39.6335 8.9752 40.1957C8.9752 40.6175 8.55165 41.1797 7.98693 41.1797ZM7.98693 36.9626C6.29278 36.9626 4.88101 38.3683 4.88101 40.0552C4.88101 41.742 6.29278 43.1477 7.98693 43.1477C9.68108 43.1477 11.0929 41.742 11.0929 40.0552C11.0929 38.3683 9.68108 36.9626 7.98693 36.9626Z" fill="white"/>
</svg>
