<svg width="50" height="65" viewBox="0 0 50 65" fill="none" xmlns="http://www.w3.org/2000/svg">
<path d="M44.8899 0.30957H4.65378C2.25373 0.30957 0.418396 2.27754 0.418396 4.52665V17.1779C0.418396 18.443 2.25371 18.443 2.25371 17.1779V4.52665C2.25371 3.26153 3.38316 2.13697 4.65378 2.13697H44.8899C46.1605 2.13697 47.29 3.26153 47.29 4.52665V60.4733C47.29 61.7384 46.1605 62.863 44.8899 62.863H4.65378C3.38316 62.863 2.25371 61.7384 2.25371 60.4733V22.2384C2.25371 20.9733 0.418396 20.9733 0.418396 22.2384V60.4733C0.418396 62.863 2.39491 64.6904 4.65378 64.6904H44.8899C47.29 64.6904 49.1253 62.7224 49.1253 60.4733V4.52665C49.1253 2.27754 47.1488 0.30957 44.8899 0.30957Z" fill="white"/>
<path d="M9.59511 53.8666L8.46569 54.9912C7.61862 55.8346 8.88923 57.2403 9.87749 56.2563L11.0069 55.1318C18.7718 62.1602 30.772 62.1602 38.5369 55.1318L39.6663 56.2563C40.5134 57.0997 41.9252 55.8346 40.9369 54.9912L39.8074 53.8666C45.737 47.4005 46.8665 37.5606 42.3487 29.9698C41.784 28.9859 40.0898 29.8293 40.6546 30.9538C42.3487 33.7652 43.1958 36.9983 43.1958 40.2314C43.1958 50.3524 34.8662 58.646 24.7013 58.646C14.5364 58.646 6.20677 50.3524 6.20677 40.2314C6.20677 30.1104 14.5364 21.8168 24.7013 21.8168C29.6426 21.8168 34.3015 23.7848 37.831 27.1585C38.2545 27.5802 38.8192 27.5802 39.2428 27.1585L41.0781 25.3311C41.9252 24.4876 40.6545 23.0819 39.8074 23.9254L38.678 25.0499C31.0543 18.0214 18.9129 18.0214 11.148 25.0499L10.0186 23.9254C9.17156 23.0819 7.75976 24.3471 8.60684 25.3311L9.73626 26.4556C6.48913 30.1104 4.37146 34.8898 4.37146 40.0908C4.37146 45.4325 6.34799 50.2118 9.59511 53.8666Z" fill="white"/>
<path d="M24.7013 54.4289C16.7952 54.4289 10.301 47.9627 10.301 40.0908C10.301 32.2189 16.7952 25.7527 24.7013 25.7527C32.6074 25.7527 39.1015 32.2189 39.1015 40.0908C39.1015 47.9627 32.6074 54.4289 24.7013 54.4289ZM24.7013 23.9253C15.807 23.9253 8.46564 31.2349 8.46564 40.0908C8.46564 48.9466 15.807 56.2563 24.7013 56.2563C33.5956 56.2563 40.937 48.9466 40.937 40.0908C40.937 31.2349 33.7368 23.9253 24.7013 23.9253Z" fill="white"/>
<path d="M24.7012 32.3594C22.5835 32.3594 20.4658 33.3434 18.9128 34.8896C18.0657 35.733 19.4775 36.9982 20.3246 36.1548C21.454 34.8896 23.0071 34.1868 24.7012 34.1868C27.9484 34.1868 30.6307 36.8576 30.6307 40.0907C30.6307 43.3238 27.9484 45.9946 24.7012 45.9946C21.4541 45.9946 18.7717 43.3238 18.7717 40.0907C18.7717 38.8256 16.9363 38.8256 16.9363 40.0907C16.9363 44.4483 20.4658 47.822 24.7012 47.822C29.0778 47.822 32.4661 44.3078 32.4661 40.0907C32.6073 35.8736 29.0778 32.3594 24.7012 32.3594Z" fill="white"/>
<path d="M20.6072 11.274C20.6072 9.02487 22.4425 7.19746 24.7014 7.19746C26.9602 7.19746 28.7955 9.02487 28.7955 11.274C28.7955 13.5231 26.9602 15.3505 24.7014 15.3505C22.4425 15.3505 20.6072 13.5231 20.6072 11.274ZM30.772 11.274C30.772 8.04088 28.0897 5.22949 24.7014 5.22949C21.4543 5.22949 18.6306 7.90031 18.6306 11.274C18.6306 14.5071 21.3131 17.3185 24.7014 17.3185C28.0897 17.3185 30.772 14.6476 30.772 11.274Z" fill="white"/>
<path d="M39.1016 14.5072V8.18153C39.1016 6.91641 40.937 6.91641 40.937 8.18153V14.5072C40.937 15.6317 39.1016 15.6317 39.1016 14.5072ZM42.9135 14.5072V8.18153C42.9135 4.52673 37.2663 4.52673 37.2663 8.18153V14.5072C37.1252 18.162 42.9135 18.162 42.9135 14.5072Z" fill="white"/>
<path d="M8.4657 14.5072V8.18153C8.4657 6.91641 10.301 6.91641 10.301 8.18153V14.5072C10.4422 15.6317 8.4657 15.6317 8.4657 14.5072ZM12.2775 14.5072V8.18153C12.2775 4.52673 6.63031 4.52673 6.63031 8.18153V14.5072C6.63031 18.162 12.2775 18.162 12.2775 14.5072Z" fill="white"/>
</svg>
