<svg width="74" height="62" viewBox="0 0 74 62" fill="none" xmlns="http://www.w3.org/2000/svg">
<path d="M64.6058 38.5528L58.1115 34.898L56.135 33.7734L34.111 21.1222L17.8754 11.8446L22.5343 3.83215C23.5226 2.14532 25.6403 1.58304 27.3344 2.56702L70.9589 27.5884L64.6058 38.5528ZM57.2645 40.6613C55.9939 41.083 54.5821 40.9425 53.3115 40.5208L55.9939 35.882L60.6528 38.5528C59.8057 39.5368 58.6763 40.3802 57.2645 40.6613ZM46.5348 41.2236L15.3342 23.2307C13.64 22.2467 13.0753 20.1382 14.0635 18.4514L17.0283 13.3909L45.6877 29.8375L54.2997 34.898L51.3349 39.9585C51.1937 40.099 51.1937 40.2396 51.0526 40.3802C50.0643 41.6453 48.0878 42.067 46.5348 41.2236ZM33.1228 41.2236C31.2874 44.4567 27.8991 46.2841 24.0873 46.2841H15.193V41.5047H24.0873C26.0638 41.5047 27.8991 40.5208 28.8874 38.8339L31.2874 34.7574L35.5228 37.1471L33.1228 41.2236ZM13.2165 52.188H8.83991V33.7734H13.2165V52.188ZM6.72222 57.3891C6.72222 58.6542 5.59279 59.7788 4.32217 59.7788H2.34564V28.0101H4.32217C5.59279 28.0101 6.72222 29.1346 6.72222 30.3998V57.3891ZM72.7942 26.1827L28.3227 0.739623C25.6403 -0.806641 22.252 0.177346 20.699 2.70759L15.6165 11.5635L12.2282 17.4674C10.6752 20.1382 11.6635 23.5119 14.2047 25.0581L29.4521 33.7734L27.0521 37.8499C26.3462 38.9745 25.2167 39.5368 23.9461 39.5368H15.0518V32.7894C15.0518 32.2272 14.6283 31.8055 14.0635 31.8055H8.69872V30.5403C8.69872 28.1507 6.72222 26.1827 4.32217 26.1827H1.35739C0.792675 26.1827 0.369141 26.6044 0.369141 27.1667V60.7628C0.369141 61.325 0.792675 61.7467 1.35739 61.7467H4.32217C6.72222 61.7467 8.69872 59.7788 8.69872 57.3891V54.2966H14.0635C14.6283 54.2966 15.0518 53.8748 15.0518 53.3126V48.3926H23.9461C28.3227 48.3926 32.4169 46.003 34.6758 42.3482L37.0758 38.2717L45.4054 43.051C46.2525 43.4727 47.2407 43.7539 48.229 43.7539C48.6525 43.7539 49.2172 43.7539 49.6408 43.6133C50.4879 43.3321 51.3349 42.9104 52.0408 42.2076C53.1703 42.7699 54.2997 42.9104 55.5703 42.9104C56.2762 42.9104 56.9821 42.7699 57.688 42.6293C59.5233 42.2076 61.0763 41.083 62.2058 39.5368L64.1823 40.6613C64.6058 40.9425 65.3117 40.8019 65.5941 40.2396L72.9354 27.4478C73.5001 27.1667 73.3589 26.4638 72.7942 26.1827Z" fill="white"/>
<path d="M60.6523 28.8536C60.9346 28.4319 61.3582 28.1507 61.7817 28.0102C61.9229 28.0102 62.0641 28.0102 62.2053 28.0102C63.1935 28.0102 64.0406 28.8536 64.0406 29.8376C64.0406 30.8215 63.1935 31.665 62.2053 31.665C61.217 31.665 60.3699 30.8215 60.3699 29.8376C60.3699 29.4159 60.5111 29.1347 60.6523 28.8536ZM60.3699 33.0707C60.9346 33.3518 61.6405 33.6329 62.3464 33.6329C62.6288 33.6329 63.0523 33.6329 63.3347 33.4924C65.3112 32.9301 66.5818 30.8215 66.0171 28.8536C65.4524 26.8856 63.3347 25.6205 61.3582 26.1828C59.3817 26.745 58.1111 28.8536 58.6758 30.8215C58.817 31.8055 59.3817 32.6489 60.3699 33.0707Z" fill="white"/>
<path d="M26.3469 23.0902L18.1584 18.4514C17.7349 18.1702 17.029 18.3108 16.7466 18.8731C16.4643 19.2948 16.6055 19.9976 17.1702 20.2788L25.3586 24.9176C25.7822 25.1987 26.488 24.9176 26.7704 24.4958C26.9116 23.9336 26.7704 23.3713 26.3469 23.0902Z" fill="white"/>
</svg>
