<svg width="46" height="79" viewBox="0 0 46 79" fill="none" xmlns="http://www.w3.org/2000/svg">
<path d="M15.4621 28.2543H35.6507V35.1422H15.4621V28.2543ZM14.4739 36.9696H36.639C37.2037 36.9696 37.6272 36.5479 37.6272 35.9857V27.2704C37.6272 26.7081 37.2037 26.2864 36.639 26.2864H14.4739C13.9092 26.2864 13.4856 26.7081 13.4856 27.2704V35.9857C13.6268 36.5479 14.0503 36.9696 14.4739 36.9696Z" fill="white"/>
<path d="M25.627 46.8097C24.3564 46.8097 23.3681 45.8257 23.3681 44.5606C23.3681 43.2955 24.3564 42.3115 25.627 42.3115C26.8976 42.3115 27.8859 43.2955 27.8859 44.5606C27.8859 45.6851 26.8976 46.6691 25.627 46.8097ZM25.627 40.3435C23.3681 40.3435 21.3916 42.1709 21.3916 44.5606C21.3916 46.9503 23.2269 48.7777 25.627 48.7777C28.0271 48.7777 29.8624 46.9503 29.8624 44.5606C29.7212 42.1709 27.8859 40.3435 25.627 40.3435Z" fill="white"/>
<path d="M16.7327 46.8097C15.4621 46.8097 14.4739 45.8257 14.4739 44.5606C14.4739 43.2955 15.4621 42.3115 16.7327 42.3115C18.0033 42.3115 18.9916 43.2955 18.9916 44.5606C18.9916 45.6851 17.8621 46.6691 16.7327 46.8097ZM16.7327 40.3435C14.4738 40.3435 12.4973 42.1709 12.4973 44.5606C12.4973 46.9503 14.3326 48.7777 16.7327 48.7777C18.9916 48.7777 20.9681 46.9503 20.9681 44.5606C20.8269 42.1709 18.9916 40.3435 16.7327 40.3435Z" fill="white"/>
<path d="M34.5213 46.8097C33.2507 46.8097 32.2624 45.8257 32.2624 44.5606C32.2624 43.2955 33.2507 42.3115 34.5213 42.3115C35.7919 42.3115 36.7801 43.2955 36.7801 44.5606C36.7801 45.6851 35.7919 46.6691 34.5213 46.8097ZM34.5213 40.3435C32.2624 40.3435 30.2859 42.1709 30.2859 44.5606C30.2859 46.9503 32.1213 48.7777 34.5213 48.7777C36.7802 48.7777 38.7567 46.9503 38.7567 44.5606C38.7567 42.1709 36.7802 40.3435 34.5213 40.3435Z" fill="white"/>
<path d="M10.8031 25.1619C10.2384 25.1619 9.81482 25.5836 9.81482 26.1459V27.2704C9.81482 27.8327 10.2384 28.2544 10.8031 28.2544C11.3678 28.2544 11.7913 27.8327 11.7913 27.2704V26.1459C11.7913 25.5836 11.3678 25.1619 10.8031 25.1619Z" fill="white"/>
<path d="M10.8031 29.5195C10.2384 29.5195 9.81482 29.9412 9.81482 30.5035V41.3274C9.81482 41.8896 10.2384 42.3113 10.8031 42.3113C11.3678 42.3113 11.7913 41.8896 11.7913 41.3274V30.5035C11.7913 29.9412 11.3678 29.5195 10.8031 29.5195Z" fill="white"/>
<path d="M43.9803 46.3879L42.1449 52.573C42.1449 52.7135 42.1449 52.7135 42.1449 52.8541V73.3772C42.1449 75.4858 40.4508 77.1726 38.3331 77.1726H37.6272V63.5374C37.6272 60.4448 35.086 57.774 31.8389 57.774H19.2739C16.1679 57.774 13.4855 60.3043 13.4855 63.5374V77.1726H12.7796C10.6619 77.1726 8.96777 75.4858 8.96777 73.3772V52.8541C8.96777 52.7135 8.96777 52.7135 8.96777 52.573L7.13245 46.3879V23.4751C7.13245 21.3665 8.82662 19.6797 10.9443 19.6797H40.1685C42.2862 19.6797 43.9803 21.3665 43.9803 23.4751V46.3879ZM35.6507 77.1726H15.462V63.5374C15.462 61.4288 17.1562 59.742 19.2739 59.742H31.8389C33.9566 59.742 35.6507 61.4288 35.6507 63.5374V77.1726ZM29.2976 15.6032H37.7684V17.7117H29.2976V15.6032ZM5.29713 36.1263H3.03825V26.8488H5.29713V36.1263ZM40.1685 17.7117H39.6037V14.6192C39.6037 14.0569 39.1802 13.6352 38.6155 13.6352H34.3801V0.983986C34.3801 0.421708 33.9565 0 33.3918 0C32.8271 0 32.4036 0.421708 32.4036 0.983986V13.7758H28.1682C27.6035 13.7758 27.18 14.1975 27.18 14.7598V17.8523H10.6619C7.55599 17.8523 4.87357 20.3826 4.87357 23.6157V25.3025H1.62646C1.06174 25.3025 0.638184 25.7242 0.638184 26.2865V37.3915C0.638184 37.9537 1.06174 38.3754 1.62646 38.3754H4.87357V46.8096C4.87357 46.9502 4.87357 46.9502 4.87357 47.0907L6.70893 53.2758V73.6584C6.70893 76.7509 9.25012 79.4217 12.4973 79.4217H37.9096C41.0155 79.4217 43.698 76.8915 43.698 73.6584V52.9947L45.5333 46.8096C45.5333 46.669 45.5333 46.669 45.5333 46.5285V23.4751C45.9568 20.242 43.4156 17.7117 40.1685 17.7117Z" fill="white"/>
<path d="M30.2859 64.9431H20.8269C20.2622 64.9431 19.8386 65.3648 19.8386 65.9271C19.8386 66.4894 20.2622 66.9111 20.8269 66.9111H30.2859C30.8506 66.9111 31.2742 66.4894 31.2742 65.9271C31.2742 65.3648 30.8506 64.9431 30.2859 64.9431Z" fill="white"/>
<path d="M30.2859 68.1763H20.8269C20.2622 68.1763 19.8386 68.598 19.8386 69.1603C19.8386 69.7225 20.2622 70.1442 20.8269 70.1442H30.2859C30.8506 70.1442 31.2742 69.7225 31.2742 69.1603C31.2742 68.598 30.8506 68.1763 30.2859 68.1763Z" fill="white"/>
<path d="M30.2859 71.2686H20.8269C20.2622 71.2686 19.8386 71.6903 19.8386 72.2525C19.8386 72.8148 20.2622 73.2365 20.8269 73.2365H30.2859C30.8506 73.2365 31.2742 72.8148 31.2742 72.2525C31.2742 71.6903 30.8506 71.2686 30.2859 71.2686Z" fill="white"/>
</svg>
