<svg width="59" height="60" viewBox="0 0 59 60" fill="none" xmlns="http://www.w3.org/2000/svg">
<path d="M44.3914 14.0215C44.3914 13.5998 43.9679 13.178 43.5443 13.178H42.5561V12.1941C42.5561 11.7724 42.1325 11.3506 41.709 11.3506C41.2855 11.3506 40.8619 11.7724 40.8619 12.1941V13.178H39.8737C39.4501 13.178 39.0266 13.5998 39.0266 14.0215C39.0266 14.4432 39.4501 14.8649 39.8737 14.8649H40.8619V15.8489C40.8619 16.2706 41.2855 16.6923 41.709 16.6923C42.1325 16.6923 42.5561 16.2706 42.5561 15.8489V14.8649H43.5443C43.9679 14.8649 44.3914 14.5837 44.3914 14.0215ZM57.3799 30.3275C57.3799 30.4681 57.2387 30.6086 57.0976 30.6086H45.662C45.5208 30.6086 45.3797 30.4681 45.3797 30.3275V27.235C45.3797 27.0944 45.5208 26.9538 45.662 26.9538H57.0976C57.2387 26.9538 57.3799 27.0944 57.3799 27.235V30.3275ZM55.6858 40.7296C55.6858 42.8382 53.9916 44.525 51.8739 44.525H47.0738V32.2955H55.6858V40.7296ZM49.8974 57.0357C49.8974 57.1763 49.7562 57.3168 49.615 57.3168H42.8384C42.6973 57.3168 42.5561 57.1763 42.5561 57.0357V46.2118H49.8974V57.0357ZM42.6973 33.9823H16.4379C15.4496 33.9823 14.6026 34.2635 13.8967 34.8257V32.1549C14.8849 32.0143 15.5908 31.1709 15.5908 30.1869V27.0944C15.5908 25.9699 14.7437 25.1264 13.6143 25.1264H10.5083V21.4716C10.5083 21.0499 10.0848 20.6282 9.66127 20.6282C9.23773 20.6282 8.81418 21.0499 8.81418 21.4716V25.1264H7.12004V8.11755C7.12004 4.74388 9.80245 2.07306 13.1908 2.07306H46.3679C49.7562 2.07306 52.4386 4.74388 52.4386 8.11755V25.267H50.7445V8.11755C50.7445 5.72787 48.768 3.7599 46.3679 3.7599H13.0496C10.6495 3.7599 8.67301 5.72787 8.67301 8.11755V17.5357C8.67301 17.9574 9.09654 18.3791 9.52008 18.3791C9.94362 18.3791 10.3672 17.9574 10.3672 17.5357V8.11755C10.3672 6.71185 11.4966 5.5873 12.9084 5.5873H46.0856C47.4974 5.5873 48.6268 6.71185 48.6268 8.11755V25.267H45.5208C44.3914 25.267 43.5443 26.1104 43.5443 27.235V30.3275C43.5443 31.3115 44.2502 32.1549 45.2385 32.2955V34.9663C44.5326 34.2635 43.6855 33.9823 42.6973 33.9823ZM13.4731 30.6086H2.03758C1.8964 30.6086 1.75521 30.4681 1.75521 30.3275V27.235C1.75521 27.0944 1.8964 26.9538 2.03758 26.9538H13.4731C13.6143 26.9538 13.7555 27.0944 13.7555 27.235V30.3275C13.7555 30.4681 13.6143 30.6086 13.4731 30.6086ZM16.5791 46.2118V57.0357C16.5791 57.1763 16.4379 57.3168 16.2967 57.3168H9.52008C9.3789 57.3168 9.23773 57.1763 9.23773 57.0357V46.2118H16.5791ZM7.26121 44.525C5.14352 44.525 3.44937 42.8382 3.44937 40.7296V32.2955H12.0613V44.525H7.26121ZM57.0976 25.267H53.9916V8.11755C53.9916 3.90047 50.4621 0.38623 46.2267 0.38623H13.0496C8.81418 0.38623 5.2847 3.90047 5.2847 8.11755V25.267H2.17875C1.04932 25.267 0.20224 26.1104 0.20224 27.235V30.3275C0.20224 31.3115 0.908144 32.1549 1.8964 32.2955V40.8702C1.8964 43.9627 4.57881 46.493 7.68476 46.3524V57.1763C7.68476 58.3008 8.53183 59.1442 9.66127 59.1442H16.4379C17.5673 59.1442 18.4144 58.3008 18.4144 57.1763V46.3524H32.3912C32.8147 46.3524 33.2382 45.9307 33.2382 45.509C33.2382 45.0873 32.8147 44.6656 32.3912 44.6656H13.7555V38.4805C13.7555 37.0748 14.8849 35.9503 16.2967 35.9503H42.5561C43.9679 35.9503 45.0973 37.0748 45.0973 38.4805V44.6656H36.0618C35.6383 44.6656 35.2147 45.0873 35.2147 45.509C35.2147 45.9307 35.6383 46.3524 36.0618 46.3524H40.5796V57.1763C40.5796 58.3008 41.4266 59.1442 42.5561 59.1442H49.3327C50.4621 59.1442 51.3092 58.3008 51.3092 57.1763V46.3524C54.4152 46.493 57.0976 44.1033 57.0976 40.8702V32.2955C58.0858 32.1549 58.7917 31.3115 58.7917 30.3275V27.235C59.0741 26.1104 58.227 25.267 57.0976 25.267ZM22.791 22.3151H21.8027V21.3311C21.8027 20.9094 21.3792 20.4877 20.9556 20.4877C20.5321 20.4877 20.1085 20.9094 20.1085 21.3311V22.3151H19.1203C18.6968 22.3151 18.2732 22.7368 18.2732 23.1585C18.2732 23.5802 18.6968 24.0019 19.1203 24.0019H20.1085V24.9859C20.1085 25.4076 20.5321 25.8293 20.9556 25.8293C21.3792 25.8293 21.8027 25.4076 21.8027 24.9859V24.0019H22.791C23.2145 24.0019 23.638 23.5802 23.638 23.1585C23.638 22.7368 23.2145 22.3151 22.791 22.3151ZM40.0149 22.3151H39.0266V21.3311C39.0266 20.9094 38.6031 20.4877 38.1795 20.4877C37.756 20.4877 37.3324 20.9094 37.3324 21.3311V22.3151H36.3442C35.9206 22.3151 35.4971 22.7368 35.4971 23.1585C35.4971 23.5802 35.9206 24.0019 36.3442 24.0019H37.3324V24.9859C37.3324 25.4076 37.756 25.8293 38.1795 25.8293C38.6031 25.8293 39.0266 25.4076 39.0266 24.9859V24.0019H40.0149C40.4384 24.0019 40.8619 23.5802 40.8619 23.1585C40.8619 22.7368 40.5796 22.3151 40.0149 22.3151ZM18.2732 14.8649H19.2615C19.685 14.8649 20.1085 14.4432 20.1085 14.0215C20.1085 13.5998 19.685 13.178 19.2615 13.178H18.2732V12.1941C18.2732 11.7724 17.8497 11.3506 17.4261 11.3506C17.0026 11.3506 16.5791 11.7724 16.5791 12.1941V13.178H15.5908C15.1673 13.178 14.7437 13.5998 14.7437 14.0215C14.7437 14.4432 15.1673 14.8649 15.5908 14.8649H16.5791V15.8489C16.5791 16.2706 17.0026 16.6923 17.4261 16.6923C17.8497 16.6923 18.2732 16.2706 18.2732 15.8489V14.8649Z" fill="white"/>
</svg>
