<svg width="68" height="51" viewBox="0 0 68 51" fill="none" xmlns="http://www.w3.org/2000/svg">
<path d="M9.03549 10.7402H16.9415V8.77228H9.03549V10.7402ZM16.9415 12.7082H9.03549C7.90605 12.7082 7.05897 11.7242 7.05897 10.7402V8.77228C7.05897 7.64772 7.90605 6.8043 9.03549 6.8043H16.9415C18.071 6.8043 18.918 7.64772 18.918 8.77228V10.7402C18.918 11.7242 18.071 12.7082 16.9415 12.7082ZM23.0123 10.7402H30.9183V8.77228H23.0123V10.7402ZM30.9183 12.7082H23.0123C21.8828 12.7082 21.0357 11.8648 21.0357 10.7402V8.77228C21.0357 7.64772 21.8828 6.8043 23.0123 6.8043H30.9183C32.0477 6.8043 32.8948 7.64772 32.8948 8.77228V10.7402C32.8948 11.7242 32.0477 12.7082 30.9183 12.7082ZM36.8478 10.7402H44.7539V8.77228H36.8478V10.7402ZM44.7539 12.7082H36.8478C35.7184 12.7082 34.8713 11.8648 34.8713 10.7402V8.77228C34.8713 7.64772 35.7184 6.8043 36.8478 6.8043H44.7539C45.8833 6.8043 46.7304 7.64772 46.7304 8.77228V10.7402C46.7304 11.7242 45.8833 12.7082 44.7539 12.7082ZM50.6834 10.7402H58.5895V8.77228H50.6834V10.7402ZM58.7307 12.7082H50.8246C49.6952 12.7082 48.8481 11.8648 48.8481 10.7402V8.77228C48.8481 7.64772 49.6952 6.8043 50.8246 6.8043H58.7307C59.8601 6.8043 60.7072 7.64772 60.7072 8.77228V10.7402C60.7072 11.7242 59.7189 12.7082 58.7307 12.7082ZM12.9885 25.0783C11.2944 25.0783 9.88256 25.3595 9.03549 25.5V28.5926C9.88256 28.7331 11.2944 29.0143 12.9885 29.0143C14.8238 29.0143 16.0945 28.7331 16.9415 28.5926V25.5C16.2356 25.3595 14.8238 25.0783 12.9885 25.0783ZM12.9885 44.3363C12.4238 44.3363 12.0003 43.9146 12.0003 43.3523V30.9822C10.4473 30.8417 9.31784 30.7011 8.47077 30.5605C7.76487 30.2794 7.05897 29.436 7.05897 28.5926V25.5C7.05897 24.6566 7.62369 23.8132 8.61195 23.5321C9.45902 23.3915 10.5885 23.1104 12.1414 23.1104V19.5961C12.1414 19.0338 12.565 18.6121 13.1297 18.6121C13.6944 18.6121 14.1179 19.0338 14.1179 19.5961V23.1104C15.6709 23.2509 16.8004 23.3915 17.6474 23.5321C18.4945 23.8132 19.2004 24.516 19.2004 25.5V28.5926C19.2004 29.436 18.6357 30.2794 17.6474 30.5605C16.8004 30.7011 15.6709 30.9822 14.1179 30.9822V43.3523C13.9768 43.9146 13.5532 44.3363 12.9885 44.3363ZM26.9653 29.0143C25.1299 29.0143 23.8593 29.2954 23.0123 29.436V32.5285C23.8593 32.6691 25.2711 32.9502 26.9653 32.9502C28.8006 32.9502 30.0712 32.6691 30.9183 32.5285V29.436C30.0712 29.2954 28.6594 29.0143 26.9653 29.0143ZM26.9653 44.3363C26.4006 44.3363 25.977 43.9146 25.977 43.3523V34.9182C24.424 34.7776 23.2946 34.637 22.4475 34.4965C21.6005 34.2153 20.8946 33.5125 20.8946 32.5285V29.436C20.8946 28.5926 21.4593 27.7491 22.4475 27.468C23.2946 27.3274 24.424 27.0463 25.977 27.0463V19.5961C25.977 19.0338 26.4006 18.6121 26.9653 18.6121C27.53 18.6121 27.9535 19.0338 27.9535 19.5961V27.0463C29.5065 27.1869 30.6359 27.3274 31.483 27.468C32.3301 27.7491 33.036 28.452 33.036 29.436V32.5285C33.036 33.3719 32.4713 34.2153 31.483 34.4965C30.6359 34.637 29.5065 34.9182 27.9535 34.9182V43.3523C27.9535 43.9146 27.53 44.3363 26.9653 44.3363ZM40.8009 44.3363C40.2361 44.3363 39.8126 43.9146 39.8126 43.3523V38.8541C38.2596 38.7136 37.1302 38.573 36.2831 38.4324C35.436 38.1513 34.7301 37.4484 34.7301 36.4644V33.3719C34.7301 32.5285 35.2949 31.6851 36.2831 31.4039C37.1302 31.2634 38.2596 30.9822 39.8126 30.9822V19.5961C39.8126 19.0338 40.2361 18.6121 40.8009 18.6121C41.3656 18.6121 41.7891 19.0338 41.7891 19.5961V31.9662C41.7891 32.5285 41.3656 32.9502 40.8009 32.9502C38.9655 32.9502 37.6949 33.2313 36.8478 33.3719V36.4644C37.6949 36.605 39.1067 36.8862 40.8009 36.8862C42.6362 36.8862 43.9068 36.605 44.7539 36.4644V33.3719H44.6127C44.048 33.2313 43.7656 32.6691 43.9068 32.2474C44.048 31.6851 44.6127 31.4039 45.0363 31.5445C45.1774 31.5445 45.1774 31.5445 45.3186 31.5445C46.1657 31.8257 46.8716 32.5285 46.8716 33.5125V36.605C46.8716 37.4484 46.3069 38.2919 45.3186 38.573C44.4715 38.7136 43.3421 38.9947 41.7891 38.9947V43.4929C41.7891 43.9146 41.3656 44.3363 40.8009 44.3363ZM54.7776 29.0143C52.9423 29.0143 51.6717 29.2954 50.8246 29.436V32.5285C51.6717 32.6691 53.0835 32.9502 54.7776 32.9502C56.613 32.9502 57.8836 32.6691 58.7307 32.5285V29.436C57.8836 29.2954 56.4718 29.0143 54.7776 29.0143ZM54.7776 44.3363C54.2129 44.3363 53.7894 43.9146 53.7894 43.3523V34.9182C52.2364 34.7776 51.107 34.637 50.2599 34.4965C49.4128 34.2153 48.7069 33.5125 48.7069 32.5285V29.436C48.7069 28.5926 49.2716 27.7491 50.2599 27.468C51.107 27.3274 52.2364 27.0463 53.7894 27.0463V19.5961C53.7894 19.0338 54.2129 18.6121 54.7776 18.6121C55.3424 18.6121 55.7659 19.0338 55.7659 19.5961V27.0463C57.3189 27.1869 58.4483 27.3274 59.2954 27.468C60.1425 27.7491 60.8483 28.452 60.8483 29.436V32.5285C60.8483 33.3719 60.2836 34.2153 59.2954 34.4965C58.5895 34.637 57.3189 34.9182 55.7659 34.9182V43.3523C55.7659 43.9146 55.2012 44.3363 54.7776 44.3363ZM62.8249 50.2402H4.94128C2.25887 50.2402 0 47.9911 0 45.3203V5.82032C0 3.1495 2.25887 0.900391 4.94128 0.900391H62.8249C65.5073 0.900391 67.7661 3.1495 67.7661 5.82032V7.50715C67.7661 8.06943 67.3426 8.49114 66.7779 8.49114C66.2132 8.49114 65.7896 8.06943 65.7896 7.50715V5.82032C65.7896 4.13349 64.519 2.86836 62.8249 2.86836H4.94128C3.24713 2.86836 1.97651 4.13349 1.97651 5.82032V45.3203C1.97651 47.0072 3.24713 48.2723 4.94128 48.2723H62.8249C64.519 48.2723 65.7896 47.0072 65.7896 45.3203V11.4431C65.7896 10.8808 66.2132 10.4591 66.7779 10.4591C67.3426 10.4591 67.7661 10.8808 67.7661 11.4431V45.3203C67.7661 47.9911 65.5073 50.2402 62.8249 50.2402Z" fill="white"/>
</svg>
