<svg width="54" height="61" viewBox="0 0 54 61" fill="none" xmlns="http://www.w3.org/2000/svg">
<path d="M40.374 2.24556L33.5974 6.32207H18.9146L12.9851 2.24556H40.374ZM41.0798 28.1103L33.4561 36.5445H20.1853L12.5616 28.1103V16.7242L20.1853 8.29004H33.4561L41.0798 16.7242V28.1103ZM51.2448 34.4359L43.0564 27.9698V16.8648L51.2448 10.3986V34.4359ZM38.9622 39.4964L35.4327 37.3879L38.9622 33.452V39.4964ZM38.9622 49.758C38.9622 50.3203 38.5386 50.742 37.9739 50.742H15.6675C15.1028 50.742 14.6793 50.3203 14.6793 49.758V44.6975H17.7852V45.6815C17.7852 47.3683 19.197 48.774 20.8912 48.774H33.0326C34.7268 48.774 36.1386 47.3683 36.1386 45.6815V44.6975H39.2445L38.9622 49.758ZM43.0564 54.8185H10.5851V52.8505H43.0564V54.8185ZM37.9739 56.7865H43.0564V58.7545H37.9739V56.7865ZM15.6675 58.895H10.5851V56.9271H15.6675V58.895ZM19.7618 44.6975H34.0209V45.6815C34.0209 46.2438 33.5973 46.6655 33.0326 46.6655H20.8912C20.3265 46.6655 19.9029 46.2438 19.9029 45.6815L19.7618 44.6975ZM40.374 42.589H13.1263L19.9029 38.5125H33.5974L40.374 42.589ZM14.6793 33.452L18.2087 37.3879L14.6793 39.4964V33.452ZM2.39663 10.3986L10.5851 16.8648V27.9698L2.39663 34.4359V10.3986ZM2.11434 7.44663C1.6908 7.16549 0.984901 7.16549 0.702542 7.5872C0.561363 7.72777 0.420166 8.0089 0.420166 8.14947V36.4039C0.420166 36.9662 0.843722 37.3879 1.40844 37.3879C1.6908 37.3879 1.83193 37.2473 1.97311 37.1068L11.4322 29.6566L12.5616 30.9217V40.4804L9.03208 42.589C8.60854 42.8701 8.32617 43.4324 8.74971 43.9947C8.89089 44.2758 9.31448 44.4164 9.59683 44.4164H12.7028V49.4769C12.7028 49.758 12.7028 50.1797 12.8439 50.4609H9.59683C9.03212 50.4609 8.60856 50.8826 8.60856 51.4448V59.879C8.60856 60.4413 9.03212 60.863 9.59683 60.863H16.6558C17.2205 60.863 17.6441 60.4413 17.6441 59.879V56.7865H35.8562V59.879C35.8562 60.4413 36.2797 60.863 36.8445 60.863H43.9034C44.4682 60.863 44.8917 60.4413 44.8917 59.879V51.726C44.8917 51.1637 44.4682 50.742 43.9034 50.742H40.6563C40.7975 50.4609 40.7975 50.0392 40.7975 49.758V44.6975H43.9034C44.4682 44.6975 44.8917 44.2758 44.8917 43.7135C44.8917 43.2918 44.7505 43.0107 44.4682 42.8701L40.9387 40.7616V31.2029L42.0681 29.9377L51.5272 37.3879C51.9507 37.669 52.6566 37.669 52.939 37.2473C53.0801 37.1068 53.2213 36.8256 53.2213 36.6851V8.29004C53.2213 7.72777 52.7978 7.30606 52.2331 7.30606C51.9507 7.30606 51.8095 7.44663 51.5272 7.5872L42.0681 15.0374L35.4327 7.5872L44.6093 2.10499C45.0329 1.82385 45.3153 1.26157 44.8917 0.699296C44.7505 0.418158 44.3269 0.277588 44.0446 0.277588H9.4556C8.89089 0.277588 8.46742 0.699296 8.46742 1.26157C8.46742 1.54271 8.60858 1.96442 8.89094 2.10499L17.6441 8.0089L11.291 15.0374L2.11434 7.44663Z" fill="white"/>
<path d="M36.9857 22.4876C36.9857 28.1104 32.468 32.6086 26.8208 32.6086C21.1736 32.6086 16.6559 28.1104 16.6559 22.4876C16.6559 16.8648 21.1736 12.3666 26.8208 12.3666C32.468 12.3666 36.9857 16.8648 36.9857 22.4876ZM14.6793 22.4876C14.6793 29.2349 20.1854 34.5766 26.8208 34.5766C33.5974 34.5766 38.9622 29.0944 38.9622 22.4876C38.9622 15.8808 33.4563 10.3986 26.8208 10.3986C20.0442 10.2581 14.6793 15.7403 14.6793 22.4876Z" fill="white"/>
<path d="M18.6324 22.4876C18.6324 23.0498 19.0559 23.4716 19.6207 23.4716C20.1854 23.4716 20.6089 23.0498 20.6089 22.4876C20.6089 19.1139 23.2913 16.4431 26.6796 16.4431C27.2444 16.4431 27.6679 16.0214 27.6679 15.4591C27.6679 14.8968 27.2444 14.4751 26.6796 14.4751C22.3031 14.3345 18.7736 17.9893 18.6324 22.4876Z" fill="white"/>
<path d="M30.915 19.3949C31.4797 19.3949 31.9032 19.8166 31.9032 20.3789C31.9032 20.9412 31.4797 21.3629 30.915 21.3629C30.3503 21.3629 29.9267 20.9412 29.9267 20.3789C29.9267 19.8166 30.3503 19.3949 30.915 19.3949ZM30.915 23.4714C32.6091 23.4714 34.0209 22.0657 34.0209 20.3789C34.0209 18.6921 32.6091 17.2864 30.915 17.2864C29.2208 17.2864 27.809 18.6921 27.809 20.3789C27.809 22.0657 29.2208 23.4714 30.915 23.4714Z" fill="white"/>
</svg>
