<svg width="68" height="55" viewBox="0 0 68 55" fill="none" xmlns="http://www.w3.org/2000/svg">
<path d="M55.1526 41.6976C57.6939 39.1673 59.2469 35.6531 59.2469 31.8577C59.2469 30.7332 59.1057 29.6086 58.8233 28.4841H62.6351C64.4705 28.4841 66.0235 30.0303 66.0235 31.8577V41.6976H55.1526ZM32.9875 31.8577C32.9875 25.251 38.3523 19.7688 45.1289 19.7688C51.7644 19.7688 57.2703 25.1104 57.2703 31.8577C57.2703 38.4645 51.9055 43.9467 45.1289 43.9467C38.4935 43.9467 32.9875 38.4645 32.9875 31.8577ZM24.5167 48.3043H16.7519H13.3636V43.8061H24.5167V48.3043ZM15.7637 52.5214C15.7637 52.5214 15.7637 52.662 15.7637 52.5214H9.12822V50.2723H15.9048V52.5214H15.7637ZM2.49278 44.9307V43.8061H11.3871V48.3043H7.99881H5.88112C4.04579 48.3043 2.49278 46.7581 2.49278 44.9307ZM59.388 52.5214C59.388 52.5214 59.388 52.662 59.388 52.5214H52.7526V50.2723H59.5292V52.5214H59.388ZM62.6351 26.5161H58.2586C56.1409 21.4556 51.0584 17.8008 45.2701 17.8008C39.3406 17.8008 34.3993 21.4556 32.2816 26.5161H14.493C13.9283 26.5161 13.5047 26.9378 13.5047 27.5001C13.5047 28.0623 13.9283 28.4841 14.493 28.4841H31.5757C31.2933 29.6086 31.1522 30.7332 31.1522 31.8577C31.1522 35.6531 32.7052 39.1673 35.2464 41.6976H2.49278V31.8577C2.49278 30.0303 4.04579 28.4841 5.88112 28.4841H10.3988C10.9635 28.4841 11.3871 28.0623 11.3871 27.5001C11.3871 26.9378 10.9635 26.5161 10.3988 26.5161H5.88112C2.91635 26.5161 0.516235 28.9058 0.516235 31.8577V44.9307C0.516235 47.8826 2.91635 50.2723 5.88112 50.2723H7.01053V52.5214C7.01053 53.646 7.85756 54.4894 8.98699 54.4894H15.6224C16.7519 54.4894 17.599 53.646 17.599 52.5214V50.2723H29.8816C30.4463 50.2723 30.8698 49.8506 30.8698 49.2883C30.8698 48.726 30.4463 48.3043 29.8816 48.3043H26.4933V43.8061H37.6465C39.7641 45.2118 42.4465 45.9147 45.1289 45.9147C47.9525 45.9147 50.4937 45.0712 52.6114 43.8061H65.8823V44.9307C65.8823 46.7581 64.3293 48.3043 62.494 48.3043H60.3763H51.6232H33.9757C33.411 48.3043 32.9875 48.726 32.9875 49.2883C32.9875 49.8506 33.411 50.2723 33.9757 50.2723H50.6349V52.5214C50.6349 53.646 51.482 54.4894 52.6114 54.4894H59.2469C60.3763 54.4894 61.2233 53.646 61.2233 52.5214V50.2723H62.3528C65.3176 50.2723 67.7176 47.8826 67.7176 44.9307V31.8577C68 28.9058 65.5999 26.5161 62.6351 26.5161Z" fill="white"/>
<path d="M45.1289 39.5891C40.8935 39.5891 37.364 36.0748 37.364 31.8577C37.364 27.6407 40.8935 24.1264 45.1289 24.1264C49.3644 24.1264 52.8939 27.6407 52.8939 31.8577C52.8939 36.0748 49.3644 39.5891 45.1289 39.5891ZM45.1289 22.1584C39.7641 22.1584 35.3875 26.5161 35.3875 31.8577C35.3875 37.1994 39.7641 41.557 45.1289 41.557C50.4938 41.557 54.8704 37.1994 54.8704 31.8577C54.8704 26.5161 50.4938 22.1584 45.1289 22.1584Z" fill="white"/>
<path d="M47.3878 30.8735C46.6819 30.8735 46.2584 30.3112 46.2584 29.749C46.2584 29.0461 46.8231 28.6244 47.3878 28.6244C48.0937 28.6244 48.5172 29.1867 48.5172 29.749C48.5172 30.3112 47.9525 30.8735 47.3878 30.8735ZM47.3878 26.5159C45.6937 26.5159 44.2819 27.9216 44.2819 29.6084C44.2819 31.2952 45.6937 32.7009 47.3878 32.7009C49.082 32.7009 50.4938 31.2952 50.4938 29.6084C50.4938 27.9216 49.082 26.5159 47.3878 26.5159Z" fill="white"/>
<path d="M14.6341 39.3078H21.1284C21.6931 39.3078 22.1167 38.8861 22.1167 38.3238C22.1167 37.7616 21.6931 37.3398 21.1284 37.3398H14.6341C14.0693 37.3398 13.6459 37.7616 13.6459 38.3238C13.6459 38.8861 14.0693 39.3078 14.6341 39.3078Z" fill="white"/>
<path d="M14.6341 35.0908H21.1284C21.6931 35.0908 22.1167 34.6691 22.1167 34.1068C22.1167 33.5445 21.6931 33.1228 21.1284 33.1228H14.6341C14.0693 33.1228 13.6459 33.5445 13.6459 34.1068C13.6459 34.5285 14.0693 35.0908 14.6341 35.0908Z" fill="white"/>
<path d="M45.1289 9.22607C41.4583 9.22607 38.2111 11.194 36.517 14.4271C36.2346 14.8488 36.517 15.5517 36.9406 15.6923C37.3641 15.9734 38.0699 15.6923 38.2111 15.2706C39.6229 12.7403 42.1641 11.194 44.9877 11.194C47.8112 11.194 50.4937 12.7403 51.7643 15.2706C51.9055 15.5517 52.329 15.8328 52.6113 15.8328C52.7525 15.8328 52.8937 15.8328 53.0348 15.6923C53.4584 15.4111 53.7407 14.8488 53.4584 14.4271C52.0466 11.194 48.7995 9.22607 45.1289 9.22607Z" fill="white"/>
<path d="M55.5762 12.0374C55.7174 12.0374 55.9998 12.0374 56.141 11.8969C56.5645 11.6157 56.7056 10.9129 56.2821 10.4912C53.5997 6.97695 49.5055 4.86841 44.9877 4.86841C40.47 4.86841 36.3758 6.97695 33.6933 10.4912C33.411 10.9129 33.411 11.4752 33.8346 11.8969C34.2581 12.178 34.8228 12.178 35.2464 11.7563C37.5053 8.66378 41.0347 6.97695 44.9877 6.97695C48.9408 6.97695 52.3291 8.80435 54.7292 11.7563C55.0115 11.8969 55.2938 12.0374 55.5762 12.0374Z" fill="white"/>
<path d="M31.4345 8.10149C31.5757 8.24206 31.858 8.38263 32.1404 8.38263C32.4228 8.38263 32.7051 8.24206 32.8463 8.10149C35.9522 4.58726 40.47 2.47871 45.2701 2.47871C50.0702 2.47871 54.5879 4.44669 57.6938 8.10149C58.1174 8.5232 58.6821 8.5232 59.1056 8.24206C59.5291 7.82035 59.5292 7.25807 59.2468 6.83636C55.7174 2.90042 50.6349 0.510742 45.4113 0.510742C40.0465 0.510742 35.1051 2.75985 31.5757 6.83636C30.8698 7.1175 31.011 7.82035 31.4345 8.10149Z" fill="white"/>
</svg>
