<svg width="83" height="57" viewBox="0 0 83 57" fill="none" xmlns="http://www.w3.org/2000/svg">
<path d="M33.2011 41.4323V27.7971C33.2011 26.3914 32.0717 25.2668 30.6599 25.2668H15.2714C14.5655 25.2668 14.1419 25.8291 14.1419 26.3914C14.1419 27.0942 14.7066 27.516 15.2714 27.516H30.6599C30.8011 27.516 30.8011 27.516 30.8011 27.6565V41.2918C30.8011 41.4323 30.8011 41.4323 30.6599 41.4323H7.36531C7.36531 41.4323 7.22412 41.4323 7.22412 41.2918V27.6565C7.22412 27.516 7.22413 27.516 7.36531 27.516H10.1889C10.8948 27.516 11.3183 26.9537 11.3183 26.3914C11.3183 25.6886 10.7536 25.2668 10.1889 25.2668H7.36531C5.95351 25.2668 4.8241 26.3914 4.8241 27.7971V41.4323C4.8241 42.838 5.95351 43.9626 7.36531 43.9626H30.6599C32.0717 43.9626 33.2011 42.838 33.2011 41.4323Z" fill="white"/>
<path d="M17.8126 34.5445L20.3538 32.9982V36.0907L17.8126 34.5445ZM16.542 32.5765C15.8361 32.9982 15.4125 33.701 15.4125 34.5445C15.4125 35.3879 15.8361 36.0907 16.542 36.5124L19.0832 38.0587C19.5067 38.3398 19.9303 38.3398 20.3538 38.3398C20.7774 38.3398 21.2009 38.1993 21.4832 38.0587C22.1891 37.637 22.7538 36.7936 22.7538 35.9502V32.7171C22.7538 31.8736 22.3303 31.0302 21.4832 30.6085C20.7773 30.1868 19.7891 30.1868 19.0832 30.6085L16.542 32.5765Z" fill="white"/>
<path d="M40.5425 28.2188C40.5425 27.5159 39.9778 27.0942 39.4131 27.0942H37.1542C36.4483 27.0942 35.8835 27.6565 35.8835 28.2188C35.8835 28.9216 36.4483 29.3433 37.1542 29.3433H39.4131C39.9778 29.4839 40.5425 28.9216 40.5425 28.2188Z" fill="white"/>
<path d="M40.5425 32.5765C40.5425 31.8736 39.9778 31.4519 39.4131 31.4519H37.1542C36.4483 31.4519 35.8835 32.0142 35.8835 32.5765C35.8835 33.2793 36.4483 33.701 37.1542 33.701H39.4131C39.9778 33.8416 40.5425 33.2793 40.5425 32.5765Z" fill="white"/>
<path d="M40.5425 37.0747C40.5425 36.3719 39.9778 35.9502 39.4131 35.9502H37.1542C36.4483 35.9502 35.8835 36.5125 35.8835 37.0747C35.8835 37.7776 36.4483 38.1993 37.1542 38.1993H39.4131C39.9778 38.1993 40.5425 37.637 40.5425 37.0747Z" fill="white"/>
<path d="M40.5425 41.4324C40.5425 40.7296 39.9778 40.3079 39.4131 40.3079H37.1542C36.4483 40.3079 35.8835 40.8701 35.8835 41.4324C35.8835 42.1353 36.4483 42.557 37.1542 42.557H39.4131C39.9778 42.557 40.5425 41.9947 40.5425 41.4324Z" fill="white"/>
<path d="M15.2714 20.4876L10.6125 13.178C11.3184 12.8968 11.8831 12.3345 12.0242 11.6317H13.0125L18.6597 20.4876H15.2714ZM2.42406 25.4075C2.42406 24.0018 3.55348 22.8772 4.96527 22.8772H40.8249C42.2367 22.8772 43.3661 24.0018 43.3661 25.4075V46.0712C43.3661 47.4769 42.2367 48.6014 40.8249 48.6014H4.96527C3.55348 48.6014 2.42406 47.4769 2.42406 46.0712V25.4075ZM10.6125 51.1317H25.154L23.7422 53.8025C23.601 54.0836 23.3186 54.3648 22.8951 54.3648H11.6007C11.036 54.3648 10.6125 53.9431 10.6125 53.3808V51.1317ZM50.9898 25.4075C50.9898 25.2669 51.131 25.1264 51.2722 25.1264H54.237C54.3781 25.1264 54.5193 25.2669 54.5193 25.4075V46.0712C54.5193 46.2118 54.3781 46.3523 54.237 46.3523H51.2722C51.131 46.3523 50.9898 46.2118 50.9898 46.0712V25.4075ZM63.9783 46.0712V25.4075C63.9783 25.2669 64.1195 25.1264 64.2607 25.1264H67.5078V46.3523H64.2607C64.1195 46.3523 63.9783 46.3523 63.9783 46.0712ZM61.5783 44.2438H57.0606V27.2349H61.5783V44.2438ZM48.5898 44.2438H45.9073V27.2349H48.5898V44.2438ZM26.4246 20.4876H23.0363L27.8364 12.8968C28.2599 13.178 28.8246 13.3185 29.5305 13.3185H31.0835L26.4246 20.4876ZM35.7424 10.9288H29.5305C29.2482 10.9288 28.9658 10.6477 28.9658 10.3666V5.02493C28.9658 4.7438 29.2482 4.46266 29.5305 4.46266H35.7424C36.0248 4.46266 36.3071 4.7438 36.3071 5.02493V10.3666C36.3071 10.6477 36.0248 10.9288 35.7424 10.9288ZM44.6367 6.00892C44.4956 6.5712 44.4955 6.99291 44.4955 7.55518C44.4955 8.11746 44.4956 8.67974 44.6367 9.10145H38.7072V6.00892H44.6367ZM25.8599 11.6317L20.9186 19.5036L15.9773 11.6317H25.8599ZM12.1654 6.00892H26.5658V9.10145H12.1654V6.00892ZM9.76541 10.9288H4.54175C3.27113 10.9288 2.28287 9.94486 2.28287 8.67974V6.5712C2.28287 5.30607 3.27113 4.32209 4.54175 4.32209H9.76541V10.9288ZM7.93005 13.3185L12.4478 20.4876H5.10646C2.42405 20.4876 0.165175 22.7367 0.165175 25.4075V46.0712C0.165175 48.742 2.42405 50.9911 5.10646 50.9911H8.21243V53.2402C8.21243 55.0676 9.76539 56.6139 11.6007 56.6139H22.8951C24.1657 56.6139 25.2952 55.911 25.8599 54.7865L27.9776 50.9911H41.1072C43.6485 50.9911 45.7662 49.0232 46.0485 46.6335H48.8721C49.1545 47.8986 50.2839 48.742 51.5545 48.742H54.5193C55.7899 48.742 56.9193 47.758 57.2017 46.6335H61.8607C62.143 47.8986 63.2724 48.742 64.5431 48.742H67.7902V50.2883C67.7902 51.8345 69.0608 52.9591 70.4726 52.9591H80.214C81.2023 52.9591 82.0493 52.1157 82.0493 51.1317V28.9217C82.0493 28.2189 81.4846 27.7972 80.9199 27.7972C80.214 27.7972 79.7904 28.3595 79.7904 28.9217V50.5694H70.1902C70.0491 50.5694 69.9079 50.4288 69.9079 50.2883V21.1904C69.9079 21.0498 70.0491 20.9093 70.1902 20.9093H79.3669V23.8612C79.3669 24.5641 79.9316 24.9858 80.4963 24.9858C81.2022 24.9858 81.6258 24.4235 81.6258 23.8612V20.347C81.6258 19.363 80.7787 18.5196 79.7904 18.5196H70.1902C68.6373 18.5196 67.5078 19.7847 67.5078 21.1904V22.7367H64.2607C62.9901 22.7367 61.8606 23.7207 61.5783 24.8452H56.9194C56.637 23.5801 55.5076 22.7367 54.237 22.7367H51.2722C50.0016 22.7367 48.8721 23.7207 48.5898 24.8452H45.7662C45.4838 22.315 43.3661 20.4876 40.8249 20.4876H29.2482L33.7659 13.3185H35.6012C36.8719 13.3185 37.8601 12.6157 38.2837 11.6317H45.4838C45.7662 12.194 46.1897 12.6157 46.6132 13.0374C48.025 14.3025 49.7192 15.0054 51.5545 15.0054C51.8369 15.0054 68.0725 13.5997 68.0725 13.5997C71.0373 13.3185 73.4374 10.7883 73.4374 7.83632C73.4374 4.88437 71.1785 2.35412 68.0725 2.07298L64.1195 1.65127C63.4136 1.65127 62.8489 2.07298 62.8489 2.77582C62.8489 3.47867 63.2724 4.04095 63.9783 4.04095L67.9314 4.46266C69.7667 4.60323 71.0373 6.14949 71.0373 7.83632C71.0373 9.52315 69.6255 11.0694 67.9314 11.21L52.1193 12.6157C50.7075 12.7563 49.4369 12.3345 48.4486 11.3506C47.4603 10.3666 46.8956 9.10145 46.8956 7.69575C46.8956 6.29006 47.4603 5.02493 48.4486 4.04095C49.4369 3.05696 50.8487 2.63526 52.1193 2.77582L58.8959 3.3381C59.6018 3.3381 60.1665 2.91639 60.1665 2.21355C60.1665 1.5107 59.743 0.948423 59.0371 0.948423L52.2604 0.386146C50.2839 0.245576 48.1662 0.948422 46.7544 2.21355C46.3309 2.63525 45.9074 3.05696 45.625 3.61924H38.4248C38.0013 2.63525 36.8719 1.93241 35.7424 1.93241H29.5305C28.2599 1.93241 27.2716 2.63525 26.8481 3.61924H12.1654C11.8831 2.63525 11.036 1.93241 9.90656 1.93241H4.68294C2.14171 1.93241 0.0239868 4.04095 0.0239868 6.5712V8.67974C0.0239868 11.21 2.14171 13.3185 4.68294 13.3185H7.93005Z" fill="white"/>
</svg>
