<svg width="53" height="55" viewBox="0 0 53 55" fill="none" xmlns="http://www.w3.org/2000/svg">
<path d="M44.984 46.6176L40.4662 51.1158C40.1839 51.3969 39.9015 51.3969 39.6192 51.1158L38.3485 49.8507C38.0662 49.5695 38.0662 49.2884 38.3485 49.0072L42.8663 44.509C43.1486 44.2279 43.431 44.2279 43.7134 44.509L44.984 45.7741C45.2663 46.0553 45.2663 46.477 44.984 46.6176ZM4.46544 30.4521L5.45369 29.3275L11.5244 35.372L10.395 36.356C9.5479 37.0588 8.2773 37.0588 7.43022 36.2154L4.60663 33.404C3.75955 32.5606 3.75954 31.2955 4.46544 30.4521ZM23.6659 6.55528L24.0894 6.13357L34.819 16.8168C33.8308 17.8008 32.7014 18.6442 31.4307 19.066L21.9717 9.64781C22.2541 8.38268 22.8188 7.3987 23.6659 6.55528ZM12.6539 34.388L6.30078 28.0624L12.0891 21.1745L13.5009 22.5802C14.2068 23.283 15.3363 22.1585 14.6304 21.4556L13.0774 19.9094L20.8423 10.7724L29.8778 19.7688L20.7011 27.5001L17.0304 23.8453C16.3245 23.1425 15.1951 24.267 15.901 24.9699L19.4305 28.4841L12.6539 34.388ZM52.0429 34.8097C52.0429 31.0144 49.6429 27.6407 46.2546 26.0944C42.7251 24.6887 38.6309 25.5322 35.9485 28.203L15.6186 48.445C12.795 51.2563 8.13612 51.5375 5.03017 49.0072C1.50068 46.0553 1.21831 40.7136 4.46544 37.4805L5.45369 36.4966C6.01841 37.0588 6.58313 37.7617 7.28903 38.0428C8.55965 38.7457 10.2538 38.4645 11.3833 37.4805L31.5719 20.4717C33.2661 19.9094 34.6779 18.9254 35.9485 17.6603C36.6544 18.082 37.3603 17.2386 37.0779 16.5357C38.0662 15.5517 38.9132 14.4272 39.478 13.162C39.9015 12.1781 38.3485 11.6158 38.0662 12.5998C37.6426 13.7243 36.7956 14.5677 35.9485 15.5517L25.2188 4.86845C26.7718 3.32219 28.7483 2.19763 31.0072 2.19763C32.9837 2.19763 34.9602 3.04105 36.372 4.44674C37.7838 5.85243 38.6309 7.82041 38.6309 9.78838C38.6309 10.7724 40.1839 10.7724 40.1839 9.78838C40.1839 7.3987 39.1956 5.00902 37.5015 3.32219C35.8073 1.63535 33.5484 0.651367 31.0072 0.651367C28.1836 0.651367 25.9247 1.91649 24.0894 3.88446C23.3835 3.46276 22.6776 4.30617 22.96 5.00902C21.6894 6.27414 20.7011 7.67984 20.1364 9.36667L3.05365 29.4681C2.20657 30.5926 1.92422 31.9983 2.48894 33.2635C2.7713 34.1069 3.47719 34.6692 4.18309 35.372L3.19483 36.356C-0.475833 40.0108 -0.475833 46.0553 3.19483 49.5695C6.8655 53.2243 12.9362 53.2243 16.4657 49.5695L36.9367 29.187C40.1839 25.9539 45.6899 26.235 48.5135 29.7492C51.0547 32.8418 50.7723 37.4805 47.9487 40.2919L44.7016 43.525C43.8545 42.6816 42.4427 42.541 41.5957 43.525L37.0779 48.0233C36.2308 48.8667 36.2308 50.2724 37.0779 51.1158L35.2426 52.9432C34.5367 53.646 35.6661 54.7706 36.372 54.0677L38.2074 52.2403C39.0544 53.0838 40.4662 53.2243 41.3133 52.2403L45.831 47.7421C46.6781 46.8987 46.6781 45.493 45.831 44.6496L49.3605 41.4165C51.0547 39.7297 52.0429 37.34 52.0429 34.8097Z" fill="white"/>
</svg>
