<svg width="60" height="60" viewBox="0 0 60 60" fill="none" xmlns="http://www.w3.org/2000/svg">
<path d="M28.856 24.5801H30.8326V34.4199H28.856V24.5801Z" fill="white"/>
<path d="M53.4212 28.5159H6.26726C5.70255 28.5159 5.27899 28.9376 5.27899 29.4999V34.4198H7.25549V30.4838H29.8442H52.4329V34.4198H54.4095V29.4999C54.4095 28.9376 53.9859 28.5159 53.4212 28.5159Z" fill="white"/>
<path d="M43.6798 20.644H13.7498C11.9144 20.644 10.3615 19.0977 10.3615 17.2703C10.3615 15.4429 11.9144 13.8967 13.7498 13.8967H14.3145C14.5968 13.8967 14.8792 13.7561 15.0204 13.475C15.1616 13.1938 15.3027 12.9127 15.1616 12.6315C15.1616 12.3504 15.0204 12.0693 15.0204 11.7881C15.0204 9.67958 16.8557 7.85217 18.9734 7.85217C19.397 7.85217 19.8205 7.99274 20.244 8.13331C20.8087 8.27388 21.3735 8.13331 21.5146 7.57104C22.5029 5.04079 24.6206 3.21338 27.1618 2.36997C31.8207 0.964273 36.762 3.63509 38.1738 8.27388C38.315 8.55502 38.4562 8.83616 38.7385 8.83616C39.0209 8.83616 39.3033 8.97673 39.5856 8.69559C40.5739 8.13331 41.7033 7.71161 42.9739 7.71161C44.6681 7.71161 46.221 8.41445 47.4916 9.53901C48.7622 10.8041 49.327 12.3504 49.327 14.0372C49.6093 17.692 46.9269 20.5034 43.6798 20.644ZM49.0446 8.41445C47.4916 6.86819 45.374 6.02477 43.1151 6.02477C41.9857 6.02477 40.8562 6.30591 39.7268 6.72762C37.6091 1.80769 31.9619 -1.0037 26.5971 0.683134C23.7735 1.52655 21.3735 3.49452 20.1028 6.16534C19.6793 6.02477 19.397 6.02477 18.9734 6.02477C15.7263 6.02477 13.0439 8.69559 13.0439 11.9287C10.3615 12.2098 8.1026 14.4589 8.1026 17.2703C8.1026 20.2223 10.5027 22.612 13.4674 22.612H43.5386C47.9152 22.3308 51.3035 18.676 51.3035 14.3184C51.5858 12.0693 50.5976 9.96072 49.0446 8.41445Z" fill="white"/>
<path d="M39.7268 51.0072C39.7268 51.5694 39.3033 51.9911 38.7386 51.9911H21.0911C20.5264 51.9911 20.1028 51.5694 20.1028 51.0072V39.1993C20.1028 38.637 20.5264 38.2153 21.0911 38.2153H38.7386C39.3033 38.2153 39.7268 38.637 39.7268 39.1993V51.0072ZM38.7386 36.3879H21.0911C19.397 36.3879 18.1263 37.6531 18.1263 39.3399V51.1477C18.1263 52.8346 19.397 54.0997 21.0911 54.0997H38.7386C40.4327 54.0997 41.7033 52.8346 41.7033 51.1477V39.3399C41.7033 37.6531 40.4327 36.3879 38.7386 36.3879Z" fill="white"/>
<path d="M28.1501 56.9111L28.7148 53.9592H30.9737L31.5384 56.9111H28.1501ZM33.7973 57.7546L32.809 52.8346C32.6678 52.4129 32.2443 51.9912 31.8208 51.9912H27.8677C27.4442 51.9912 27.0207 52.2724 26.8795 52.8346L25.8912 57.7546C25.8912 58.0357 25.8912 58.3168 26.0324 58.598C26.1736 58.8791 26.4559 59.0197 26.7383 59.0197H32.6678C32.9502 59.0197 33.2326 58.8791 33.3737 58.598C33.7973 58.3168 33.7973 58.0357 33.7973 57.7546Z" fill="white"/>
<path d="M24.903 56.9111H34.7856V58.8791H24.903V56.9111Z" fill="white"/>
<path d="M19.1146 48.0552H40.7151V50.0232H19.1146V48.0552Z" fill="white"/>
<path d="M10.2202 50.7259C10.2202 51.0071 10.0791 51.1476 9.79673 51.1476H2.73777C2.45541 51.1476 2.31421 51.0071 2.31421 50.7259V39.7615C2.31421 39.4804 2.45541 39.3398 2.73777 39.3398H9.79673C10.0791 39.3398 10.2202 39.4804 10.2202 39.7615V50.7259ZM9.79673 37.3718H2.73777C1.46716 37.3718 0.337708 38.3558 0.337708 39.7615V50.7259C0.337708 51.991 1.46716 53.1156 2.73777 53.1156H9.79673C11.0673 53.1156 12.1967 52.1316 12.1967 50.7259V39.7615C12.1967 38.3558 11.0673 37.3718 9.79673 37.3718Z" fill="white"/>
<path d="M4.29077 47.0713H8.24377V49.0393H4.29077V47.0713Z" fill="white"/>
<path d="M57.3743 46.0871H48.48V39.1992H57.3743V46.0871ZM58.3625 37.3718H47.4917C46.927 37.3718 46.5035 37.7935 46.5035 38.3558V47.2117C46.5035 47.774 46.927 48.1957 47.4917 48.1957H58.3625C58.9272 48.1957 59.3508 47.774 59.3508 47.2117V38.3558C59.3508 37.7935 58.9272 37.3718 58.3625 37.3718Z" fill="white"/>
<path d="M54.8329 51.0071H46.3622L48.1975 48.0551H56.6683L54.8329 51.0071ZM59.2095 46.6494C59.0683 46.3683 58.6448 46.0872 58.3624 46.0872H47.4916C47.2092 46.0872 46.7857 46.2277 46.6445 46.5089L43.6798 51.4288C43.5386 51.7099 43.5386 52.1316 43.6798 52.4128C43.8209 52.6939 44.2445 52.9751 44.5269 52.9751H55.3977C55.68 52.9751 56.1036 52.8345 56.2447 52.5533L59.2095 47.6334C59.4919 47.3523 59.4919 46.9306 59.2095 46.6494Z" fill="white"/>
</svg>
