<svg width="24" height="24" viewBox="0 0 24 24" fill="none" xmlns="http://www.w3.org/2000/svg">
<path d="M23.3138 3.28105C22.9607 2.92738 22.3878 2.92677 22.0348 3.27955L11.1835 14.1021L7.26845 9.84997C6.93015 9.48276 6.35818 9.45894 5.99036 9.79719C5.62281 10.1355 5.59928 10.7077 5.93758 11.0753L10.4904 16.0197C10.6571 16.2009 10.8904 16.3062 11.1365 16.3113C11.1431 16.3116 11.1495 16.3116 11.1558 16.3116C11.3949 16.3116 11.6249 16.2166 11.7944 16.0477L23.312 4.56032C23.6659 4.20758 23.6665 3.63472 23.3138 3.28105Z" fill="#E21501"/>
<path d="M23.0955 11.0955C22.5959 11.0955 22.191 11.5004 22.191 12C22.191 17.6195 17.6195 22.191 12 22.191C6.38081 22.191 1.80905 17.6195 1.80905 12C1.80905 6.38081 6.38081 1.80905 12 1.80905C12.4996 1.80905 12.9045 1.40414 12.9045 0.904547C12.9045 0.404906 12.4996 0 12 0C5.38312 0 0 5.38312 0 12C0 18.6166 5.38312 24 12 24C18.6166 24 24 18.6166 24 12C24 11.5004 23.5951 11.0955 23.0955 11.0955Z" fill="#828282"/>
</svg>
