<svg width="13" height="13" viewBox="0 0 13 13" fill="none" xmlns="http://www.w3.org/2000/svg">
<path d="M12.9687 11.4019L12.2121 8.85981C12.1364 8.63551 11.9095 8.48598 11.6825 8.48598H11.1529V4.82243H12.0608C12.2878 4.82243 12.5147 4.6729 12.5904 4.4486C12.666 4.2243 12.5904 4 12.3634 3.85047L6.84046 0.11215C6.68914 -0.0373832 6.38651 -0.0373832 6.2352 0.11215L0.71225 3.7757C0.485279 3.92523 0.409622 4.14953 0.485279 4.37383C0.560936 4.59813 0.787907 4.74766 1.01488 4.74766H1.92276V8.41121H1.3175C1.09053 8.41121 0.863564 8.56075 0.787907 8.78505L0.0313381 11.3271C-0.0443188 11.4766 0.0313381 11.7009 0.106995 11.7757C0.182652 11.9252 0.409622 12 0.560936 12H12.4391C12.5904 12 12.8173 11.9252 12.893 11.7757C12.9687 11.7757 13.0443 11.6262 12.9687 11.4019ZM4.57075 8.48598H2.98196V4.82243H4.57075V8.48598ZM7.2944 8.48598H5.7056V4.82243H7.2944V8.48598ZM10.018 8.48598H8.42925V4.82243H10.018V8.48598Z" fill="#E21501"/>
</svg>
