<svg width="49" height="52" viewBox="0 0 49 52" fill="none" xmlns="http://www.w3.org/2000/svg">
<path d="M46.7499 30.3742C45.6089 28.6235 43.8535 27.223 41.8348 26.5227V3.23876C41.8348 1.48808 40.3427 0 38.5873 0H15.7672C15.6794 0 15.5916 5.34133e-06 15.5039 0.0875391H15.4161C15.3283 0.175073 15.1528 0.175057 15.065 0.262591L0.934087 14.4431C0.846317 14.5306 0.758547 14.6181 0.758547 14.7932V14.8807C0.758547 14.9683 0.670778 15.0558 0.670778 15.1433L0.583008 15.2309V48.7563C0.583008 50.507 2.07509 51.995 3.83049 51.995H34.1988C34.4621 51.995 34.6377 51.9075 34.8132 51.82L38.4996 49.0189L42.1859 51.82C42.3614 51.9951 42.6247 51.995 42.8003 51.995C43.4147 51.995 43.8535 51.4699 43.8535 50.9447V43.8544C48.5053 40.9658 49.7341 34.8384 46.7499 30.3742ZM14.7139 3.76394V10.8542C14.7139 12.6049 13.2219 14.0929 11.4665 14.0929H4.26934L14.7139 3.76394ZM33.1456 49.8942H3.83049C3.2161 49.8942 2.77725 49.369 2.77725 48.8438V16.3688H11.4665C14.4506 16.3688 16.9082 13.9179 16.9082 10.9417V2.27588H38.5873C39.2017 2.27588 39.6406 2.80107 39.6406 3.32627V26.085C37.0952 25.8224 34.4621 26.5227 32.4434 28.1859L25.5096 22.2336V14.0929H28.7571V5.4271H20.0679V14.0929H23.3154V22.7588C23.3154 23.1089 23.4909 23.3715 23.6665 23.5466L30.8636 29.6739C30.4247 30.1991 30.0737 30.8119 29.8103 31.4246H11.3787V28.1859H14.6262V19.52H5.93696V28.1859H9.18445V32.475C9.18445 33.0878 9.71106 33.5254 10.2377 33.5254H29.1082C28.9326 34.2257 28.8449 34.926 28.8449 35.7138V36.239L21.9988 41.1409H14.6262C14.0118 38.865 11.642 37.4644 9.35999 37.9896C7.07797 38.6024 5.67365 40.9658 6.20027 43.2417C6.81466 45.5175 9.18445 46.9181 11.4665 46.3929C12.9585 46.0428 14.1873 44.8173 14.6262 43.2417H22.3499C22.6132 43.2417 22.7888 43.1541 22.9643 43.0666L29.2837 38.6024C29.9859 40.7032 31.3024 42.6289 33.2334 43.8544L33.1456 49.8942ZM22.3499 11.9921V7.70296H26.6506V11.9921H22.3499ZM8.21898 21.7084H12.5197V25.9975H8.21898V21.7084ZM12.5197 42.2788C12.5197 43.5043 11.5542 44.4671 10.3255 44.4671C9.09668 44.4671 8.13121 43.5043 8.13121 42.2788C8.13121 41.0533 9.09668 40.0904 10.3255 40.0904C11.5542 40.0904 12.5197 41.1409 12.5197 42.2788ZM41.8348 48.7563L39.2017 46.8306C38.8506 46.568 38.324 46.568 37.8852 46.8306L35.2521 48.7563V44.9048C37.3585 45.6926 39.6406 45.6926 41.747 44.9048V48.7563H41.8348ZM38.5873 43.4167C34.3744 43.4167 30.9513 40.0029 30.9513 35.8013C30.9513 31.5997 34.3744 28.1859 38.5873 28.1859C42.8003 28.1859 46.2233 31.5997 46.2233 35.8013C46.2233 40.0029 42.8003 43.4167 38.5873 43.4167Z" fill="#E41F13"/>
<path d="M37.5336 36.4141L35.0761 33.9631L33.584 35.4512L36.8315 38.69C37.2703 39.1276 37.9725 39.1276 38.3236 38.69L43.7653 33.2629L42.2732 31.7748L37.5336 36.4141Z" fill="#E41F13"/>
<path d="M34.2861 5.51465H36.3926V14.1805H34.2861V5.51465Z" fill="#E41F13"/>
</svg>
