<svg width="53" height="47" viewBox="0 0 53 47" fill="none" xmlns="http://www.w3.org/2000/svg">
<path d="M48.5212 35.3636H47.3802C46.7658 34.5758 46.5025 33.613 46.5025 32.5626C46.5025 30.5493 47.7313 28.0983 47.7313 28.0983C48.1701 27.3105 48.4334 26.4352 48.4334 25.4723C48.4334 22.5837 46.0636 20.2203 43.1672 20.2203C40.2708 20.2203 37.901 22.5837 37.901 25.4723C37.901 26.3477 38.1643 27.3105 38.6032 28.0983C38.6032 28.0983 39.832 30.6368 39.832 32.6501C39.832 33.788 39.5687 34.6634 38.9543 35.4512H37.8133C37.55 35.4512 37.2866 35.4512 37.0233 35.5387V0.962876C37.0233 0.437674 36.5845 0 36.0579 0H4.19744C3.67082 0 3.23197 0.437674 3.23197 0.962876V36.8517C1.73988 37.727 0.774414 39.3026 0.774414 41.1408C0.774414 43.8544 3.05643 46.1303 5.77729 46.1303H32.1082C33.7759 46.1303 35.1802 45.3425 36.1456 44.117C36.5845 45.2549 37.7255 46.1303 38.9543 46.1303H47.6435C49.3111 46.1303 50.6277 44.8173 50.6277 43.1541V42.804C51.5931 42.5414 52.2953 41.7536 52.2953 40.7907V39.04C52.2075 37.0268 50.5399 35.3636 48.5212 35.3636ZM27.0176 41.4035C27.0176 41.491 27.0176 41.5785 27.0176 41.6661V41.7536C27.0176 41.8411 27.0176 41.8411 27.0176 41.9286V42.0162C27.0176 42.1037 27.0176 42.1037 27.0176 42.1913C27.0176 42.1913 27.0176 42.1913 27.0176 42.2788C27.0176 42.3663 27.0176 42.4539 27.1054 42.5414C27.1054 42.5414 27.1054 42.5414 27.1054 42.6289C27.1054 42.7165 27.1054 42.7164 27.1054 42.804V42.8915C27.1054 42.9791 27.1054 42.9791 27.1931 43.0666V43.1541C27.1931 43.2417 27.1931 43.2417 27.2809 43.3292C27.2809 43.3292 27.2809 43.3292 27.2809 43.4167C27.2809 43.5043 27.3687 43.5918 27.3687 43.5918C27.3687 43.6793 27.4564 43.6793 27.4564 43.7669C27.4564 43.7669 27.4564 43.7669 27.4564 43.8544L27.5442 43.9419V44.0295L27.632 44.117C27.632 44.117 27.632 44.117 27.632 44.2045C27.632 44.2921 27.7197 44.2921 27.7197 44.3796H5.68952C4.0219 44.3796 2.70535 43.0666 2.70535 41.4035C2.70535 40.178 3.49528 39.1276 4.54852 38.6024C4.72405 38.5148 4.81182 38.5148 4.98736 38.4273H5.07513C5.07513 38.4273 5.07513 38.4273 5.1629 38.4273H5.25067H5.33844C5.33844 38.4273 5.33844 38.4273 5.42621 38.4273H5.51398C5.51398 38.4273 5.51398 38.4273 5.60175 38.4273C5.68952 38.4273 5.68952 38.4273 5.77729 38.4273H28.0708C27.4564 39.3026 27.1054 40.2655 27.1054 41.4035C27.0176 41.2284 27.0176 41.3159 27.0176 41.4035ZM35.0924 36.6766C35.0046 36.7642 34.9169 36.8517 34.9169 36.9392C34.9169 36.9392 34.9169 37.0268 34.8291 37.0268C34.8291 37.0268 34.8291 37.1143 34.7413 37.1143C34.7413 37.1143 34.7413 37.1143 34.7413 37.2018C34.7413 37.2018 34.7413 37.2894 34.6536 37.2894C34.478 37.6395 34.3902 37.9021 34.3025 38.2522V38.3398C34.3025 38.3398 34.3025 38.3398 34.3025 38.4273V38.5148V38.6024V38.6899C34.3025 38.7774 34.3025 38.7774 34.3025 38.865V40.6156C34.3025 40.7032 34.3025 40.7907 34.3025 40.7907C34.3902 41.3159 34.5658 41.7536 34.9169 42.0162C34.478 43.1541 33.337 43.9419 32.1082 43.9419C30.4406 43.9419 29.1241 42.6289 29.1241 40.9658C29.1241 39.3027 30.4406 37.9896 32.1082 37.9896C32.6348 37.9896 33.0737 37.552 33.0737 37.0268C33.0737 36.5016 32.6348 36.0639 32.1082 36.0639H5.77729C5.68952 36.0639 5.60175 36.0639 5.51398 36.0639H5.42621C5.33844 36.0639 5.33844 36.0639 5.25067 36.0639V1.83821H35.0924V36.6766ZM43.255 22.2336C45.0982 22.2336 46.5025 23.7216 46.5025 25.4723C46.5025 26.0851 46.3269 26.6103 46.0636 27.1355C46.0636 27.1355 46.0636 27.223 45.9759 27.223C45.8881 27.4856 44.4838 30.1991 44.4838 32.6501C44.4838 33.7005 44.6593 34.5758 45.0982 35.4512H41.3241C41.6751 34.5758 41.9384 33.7005 41.9384 32.6501C41.9384 30.1991 40.5341 27.3981 40.4464 27.223V27.1355C40.183 26.6103 40.0075 26.0851 40.0075 25.4723C39.9197 23.6341 41.4118 22.2336 43.255 22.2336ZM48.5212 43.1541C48.5212 43.6793 48.0823 44.117 47.5557 44.117H38.8665C38.3399 44.117 37.901 43.6793 37.901 43.1541V42.8915H48.6089L48.5212 43.1541ZM50.1888 40.7032C50.1888 40.7907 50.1888 40.7907 50.101 40.7907H36.3212C36.3212 40.7907 36.3212 40.7907 36.3212 40.7032V38.9525C36.3212 38.6024 36.4967 38.2522 36.6723 37.9896L36.76 37.9021C37.0233 37.6395 37.4622 37.4644 37.901 37.4644H48.6089C49.4866 37.4644 50.1888 38.1647 50.1888 39.04V40.7032Z" fill="#E41F13"/>
<path d="M32.02 26.8728C31.8444 26.6978 31.6689 26.5227 31.6689 26.4352C31.5811 26.3476 31.5811 26.085 31.5811 25.8224C31.5811 25.2972 31.4933 24.5094 30.9667 23.9842C30.4401 23.459 29.6502 23.3715 29.1235 23.3715C28.8602 23.3715 28.5969 23.3715 28.5092 23.2839C28.4214 23.2839 28.2459 23.0213 28.0703 22.9338C27.6315 22.5837 27.1048 22.0585 26.2271 22.0585C25.4372 22.0585 24.8228 22.5837 24.384 22.9338C24.2084 23.1089 24.0329 23.2839 23.9451 23.2839C23.8574 23.3715 23.5941 23.3715 23.3307 23.3715C22.8041 23.3715 22.0142 23.459 21.4876 23.9842C20.961 24.5094 20.8732 25.2972 20.8732 25.8224C20.8732 26.085 20.8732 26.3476 20.7854 26.4352C20.7854 26.5227 20.5221 26.6978 20.4343 26.8728C20.0833 27.3105 19.5566 27.8357 19.5566 28.711C19.5566 29.4988 20.0833 30.1116 20.4343 30.5492C20.6099 30.7243 20.7854 30.8994 20.7854 30.9869C20.8732 31.0744 20.8732 31.337 20.8732 31.5996C20.8732 32.1248 20.961 32.9127 21.4876 33.4379C22.0142 33.9631 22.8041 34.0506 23.3307 34.0506C23.5941 34.0506 23.8574 34.0506 23.9451 34.1381C24.0329 34.1381 24.2084 34.4007 24.384 34.4882C24.8228 34.8384 25.3494 35.3636 26.2271 35.3636C27.1048 35.3636 27.6315 34.8384 28.0703 34.4882C28.2459 34.3132 28.4214 34.1381 28.5092 34.1381C28.5969 34.0506 28.8602 34.0506 29.1235 34.0506C29.6502 34.0506 30.4401 33.9631 30.9667 33.4379C31.4933 32.9127 31.5811 32.1248 31.5811 31.5996C31.5811 31.337 31.5811 31.0744 31.6689 30.9869C31.6689 30.8994 31.9322 30.7243 32.02 30.5492C32.371 30.1116 32.8976 29.5864 32.8976 28.711C32.8976 27.8357 32.4588 27.3105 32.02 26.8728ZM30.5279 29.1487C30.2646 29.4113 30.0012 29.7614 29.8257 30.1991C29.6502 30.6368 29.6502 31.0744 29.5624 31.4246C29.5624 31.5996 29.5624 31.8622 29.4746 31.9498C29.3869 31.9498 29.1235 32.0373 28.948 32.0373C28.5969 32.0373 28.1581 32.1248 27.7192 32.2999C27.2804 32.475 27.0171 32.7376 26.666 33.0002C26.4905 33.0877 26.3149 33.3503 26.2271 33.3503C26.1394 33.2628 25.8761 33.0877 25.7883 33.0002C25.525 32.7376 25.1739 32.475 24.7351 32.2999C24.2962 32.1248 23.8574 32.1248 23.5063 32.0373C23.3307 32.0373 23.0674 32.0373 22.9797 31.9498C22.9797 31.8622 22.8919 31.5996 22.8919 31.4246C22.8919 31.0744 22.8041 30.5492 22.6286 30.1991C22.453 29.7614 22.1897 29.4988 21.9264 29.1487C21.8387 28.9736 21.5753 28.7986 21.5753 28.711C21.6631 28.6235 21.8387 28.3609 21.9264 28.2734C22.1897 28.0108 22.453 27.6606 22.6286 27.223C22.8041 26.7853 22.8041 26.3476 22.8919 25.9975C22.8919 25.8224 22.8919 25.5598 22.9797 25.4723C23.0674 25.4723 23.3307 25.3847 23.5063 25.3847C23.8574 25.3847 24.2962 25.2972 24.7351 25.1222C25.1739 24.9471 25.4372 24.6845 25.7883 24.4219C25.9638 24.3343 26.1394 24.0717 26.2271 24.0717C26.3149 24.1593 26.5782 24.3343 26.666 24.4219C26.9293 24.6845 27.2804 24.9471 27.7192 25.1222C28.1581 25.2972 28.5969 25.2972 28.948 25.3847C29.1235 25.3847 29.3869 25.3847 29.4746 25.4723C29.4746 25.5598 29.5624 25.8224 29.5624 25.9975C29.5624 26.3476 29.6502 26.7853 29.8257 27.223C30.0012 27.6606 30.2646 27.9232 30.5279 28.2734C30.6156 28.4484 30.8789 28.6235 30.8789 28.711C30.8789 28.7986 30.7034 28.9736 30.5279 29.1487Z" fill="#E41F13"/>
<path d="M17.8888 23.9843H8.32191C7.79529 23.9843 7.35645 24.4219 7.35645 24.9471C7.35645 25.4723 7.79529 25.91 8.32191 25.91H17.8888C18.4154 25.91 18.8543 25.4723 18.8543 24.9471C18.8543 24.5095 18.4154 23.9843 17.8888 23.9843Z" fill="#E41F13"/>
<path d="M17.8888 28.7111H8.32191C7.79529 28.7111 7.35645 29.1487 7.35645 29.6739C7.35645 30.1991 7.79529 30.6367 8.32191 30.6367H17.8888C18.4154 30.6367 18.8543 30.1991 18.8543 29.6739C18.8543 29.1487 18.4154 28.7111 17.8888 28.7111Z" fill="#E41F13"/>
<path d="M18.6795 12.4298C18.6795 15.1433 18.6795 17.8569 18.6795 20.5704C18.6795 20.9206 18.5918 21.0956 18.2407 21.0081C17.9774 21.0081 17.6263 21.0081 17.363 21.0081C16.8364 21.0081 16.8364 21.0081 16.8364 20.4829C16.8364 18.2945 16.8364 16.1062 16.8364 13.9178C16.8364 13.3051 16.8364 13.3051 16.222 13.3051C15.8709 13.3051 15.6076 13.3051 15.2565 13.3051C14.9054 13.3051 14.8177 13.3926 14.8177 13.7428C14.8177 15.9311 14.8177 18.207 14.8177 20.3954C14.8177 20.9206 14.8177 20.9205 14.291 20.9205C13.94 20.9205 13.5889 20.9205 13.2378 20.9205C12.9745 20.9205 12.8867 20.833 12.8867 20.5704C12.8867 20.4829 12.8867 20.3954 12.8867 20.3954C12.8867 15.0558 12.8867 9.7162 12.8867 4.2891C12.8867 3.76389 12.8867 3.76392 13.4133 3.76392C14.9932 3.76392 16.573 3.76392 18.1529 3.76392C18.504 3.76392 18.5918 3.85145 18.5918 4.20159C18.6795 7.00267 18.6795 9.71622 18.6795 12.4298ZM14.8177 8.57828C14.8177 9.45362 14.8177 10.329 14.8177 11.1168C14.8177 11.3794 14.9054 11.4669 15.1687 11.4669C15.6076 11.4669 16.0464 11.4669 16.4853 11.4669C16.7486 11.4669 16.8364 11.3794 16.8364 11.1168C16.8364 9.36608 16.8364 7.61541 16.8364 5.95226C16.8364 5.68966 16.7486 5.60211 16.4853 5.60211C16.0464 5.60211 15.6076 5.60211 15.2565 5.60211C14.9054 5.60211 14.8177 5.68964 14.8177 6.03978C14.9054 6.91512 14.8177 7.79048 14.8177 8.57828Z" fill="#E41F13"/>
<path d="M7.26941 12.4297C7.26941 9.71621 7.26941 7.00265 7.26941 4.28911C7.26941 3.85144 7.26941 3.85144 7.70826 3.85144C8.67373 3.85144 9.63919 3.85144 10.6047 3.85144C10.9557 3.85144 11.0435 3.93897 11.0435 4.28911C11.0435 4.63924 11.0435 4.98939 11.0435 5.33952C11.0435 5.60212 10.9557 5.77719 10.6924 5.77719C10.3414 5.77719 9.9025 5.77719 9.55143 5.77719C9.28812 5.77719 9.20035 5.86472 9.20035 6.12732C9.20035 7.87799 9.20035 9.54112 9.20035 11.2918C9.20035 11.5544 9.28812 11.642 9.55143 11.642C9.99027 11.642 10.3414 11.642 10.7802 11.642C11.0435 11.642 11.1313 11.7295 11.1313 11.9921C11.1313 12.4297 11.1313 12.7799 11.1313 13.2175C11.1313 13.4801 11.0435 13.5677 10.7802 13.5677C10.3414 13.5677 9.9025 13.5677 9.55143 13.5677C9.28812 13.5677 9.20035 13.6552 9.20035 13.9178C9.20035 15.6685 9.20035 17.3316 9.20035 19.0823C9.20035 19.3449 9.28812 19.4324 9.55143 19.4324C9.99027 19.4324 10.4291 19.4324 10.7802 19.4324C10.9557 19.4324 11.0435 19.52 11.0435 19.695C11.0435 20.1327 11.0435 20.5704 11.0435 20.9205C11.0435 21.1831 10.9557 21.1831 10.6924 21.1831C9.6392 21.1831 8.58596 21.1831 7.53272 21.1831C7.18164 21.1831 7.18164 21.008 7.18164 20.7454C7.26941 17.8568 7.26941 15.1433 7.26941 12.4297Z" fill="#E41F13"/>
<path d="M20.6982 12.4298C20.6982 9.80382 20.6982 7.17781 20.6982 4.5518C20.6982 3.764 20.6982 3.93906 21.4004 3.93906C22.2781 3.93906 23.2436 3.93906 24.1213 3.93906C24.3846 3.93906 24.4723 4.02659 24.4723 4.28919C24.4723 4.63932 24.4723 5.07701 24.4723 5.42714C24.4723 5.68974 24.3846 5.77727 24.1213 5.77727C23.6824 5.77727 23.2436 5.77727 22.8925 5.77727C22.6292 5.77727 22.5414 5.8648 22.5414 6.1274C22.5414 6.30247 22.5414 6.39 22.5414 6.56507C22.5414 10.5916 22.5414 14.6182 22.5414 18.6447C22.5414 19.4325 22.4536 19.345 23.2436 19.345C23.5946 19.345 23.858 19.345 24.209 19.345C24.3846 19.345 24.4723 19.4325 24.4723 19.6076C24.4723 20.0452 24.4723 20.4829 24.4723 20.9206C24.4723 21.0956 24.3846 21.1832 24.209 21.1832C23.1558 21.1832 22.1026 21.1832 21.0493 21.1832C20.786 21.1832 20.6982 21.0957 20.6982 20.8331C20.6982 20.3079 20.6982 19.8702 20.6982 19.345C20.6982 16.9816 20.6982 14.7057 20.6982 12.4298Z" fill="#E41F13"/>
<path d="M33.1615 3.85144H26.9298C26.5787 3.85144 26.3154 4.28911 26.3154 4.8143C26.3154 5.33949 26.5787 5.77716 26.9298 5.77716H33.1615C33.5126 5.77716 33.7759 5.33949 33.7759 4.8143C33.7759 4.28911 33.5126 3.85144 33.1615 3.85144Z" fill="#E41F13"/>
<path d="M33.1615 8.49084H26.9298C26.5787 8.49084 26.3154 8.92852 26.3154 9.45372C26.3154 9.97892 26.5787 10.4166 26.9298 10.4166H33.1615C33.5126 10.4166 33.7759 9.97892 33.7759 9.45372C33.7759 8.92852 33.5126 8.49084 33.1615 8.49084Z" fill="#E41F13"/>
<path d="M33.1615 17.6818H26.9298C26.5787 17.6818 26.3154 18.1194 26.3154 18.6447C26.3154 19.1699 26.5787 19.6075 26.9298 19.6075H33.1615C33.5126 19.6075 33.7759 19.1699 33.7759 18.6447C33.7759 18.1194 33.5126 17.6818 33.1615 17.6818Z" fill="#E41F13"/>
<path d="M33.1615 12.955H26.9298C26.5787 12.955 26.3154 13.3926 26.3154 13.9178C26.3154 14.443 26.5787 14.8806 26.9298 14.8806H33.1615C33.5126 14.8806 33.7759 14.443 33.7759 13.9178C33.7759 13.4801 33.5126 12.955 33.1615 12.955Z" fill="#E41F13"/>
</svg>
