<svg width="13" height="13" viewBox="0 0 13 13" fill="none" xmlns="http://www.w3.org/2000/svg">
<path d="M12.8399 1.50327C12.6153 1.28758 12.1661 1.28758 11.9415 1.50327L7.67429 5.60131L5.87755 3.87582C6.02728 3.08497 5.80269 2.22222 5.12891 1.64706C4.67972 1.21569 4.08081 1 3.40703 1C3.33217 1 3.25731 1 3.18244 1C2.95785 1 2.73326 1.14379 2.65839 1.35948C2.58353 1.57516 2.65839 1.79085 2.80812 2.00654L3.55676 2.72549L2.80812 3.58823L2.05948 2.86928C1.90975 2.72549 1.6103 2.6536 1.3857 2.72549C1.16111 2.79739 1.01138 3.01307 1.01138 3.22876C0.93652 3.94771 1.23598 4.59477 1.76002 5.16994C2.20921 5.60131 2.88299 5.88889 3.55676 5.88889C3.70649 5.88889 3.93108 5.88889 4.08081 5.817L5.05404 6.82353L2.50867 9.26797C1.90975 9.84313 1.90975 10.8497 2.50867 11.4967C2.80812 11.7843 3.25731 11.9281 3.63163 11.9281C4.00595 11.9281 4.45513 11.7843 4.75459 11.4967L7.29997 9.05229L8.12347 9.84314C8.12347 9.91503 8.12347 9.91503 8.12347 9.98693C8.12347 10.4902 8.34806 10.9935 8.72238 11.4248C9.0967 11.8562 9.62075 12 10.2197 12C10.7437 12 11.2678 11.7843 11.7169 11.4248C12.0913 11.0654 12.3159 10.5621 12.3159 9.98693C12.3159 9.41176 12.0913 8.98039 11.7169 8.54902C11.3426 8.18954 10.8186 7.97386 10.2197 7.97386C10.1448 7.97386 10.1448 7.97386 10.0699 7.97386L8.49779 6.46405L12.765 2.36601C13.0645 2.15033 13.0645 1.79085 12.8399 1.50327ZM3.93108 10.634C3.85622 10.7059 3.78135 10.7059 3.63163 10.7059C3.4819 10.7059 3.4819 10.634 3.40703 10.634C3.25731 10.4902 3.25731 10.2745 3.40703 10.1307L7.00051 6.67974L7.52456 7.183L3.93108 10.634ZM9.69562 9.41177C9.84534 9.26797 10.0699 9.19608 10.2945 9.19608C10.5191 9.19608 10.7437 9.26797 10.8934 9.41177C11.0432 9.55556 11.118 9.77124 11.118 9.98693C11.118 10.2026 11.0432 10.4183 10.8934 10.5621C10.7437 10.7059 10.5191 10.7778 10.2945 10.7778C10.0699 10.7778 9.84534 10.7059 9.69562 10.5621C9.54589 10.4183 9.47102 10.2026 9.47102 9.98693C9.47102 9.77124 9.54589 9.55556 9.69562 9.41177Z" fill="#E21501"/>
</svg>
