<svg width="57" height="55" viewBox="0 0 57 55" fill="none" xmlns="http://www.w3.org/2000/svg">
<path d="M24.9451 17.5944C25.4717 17.5944 25.8228 18.032 25.8228 18.4697C25.8228 18.9949 25.3839 19.345 24.9451 19.345C24.5062 19.345 24.0674 18.9074 24.0674 18.4697C24.0674 17.9445 24.5062 17.5944 24.9451 17.5944Z" fill="#E41F13"/>
<path d="M32.0545 17.5944C32.5811 17.5944 32.9322 18.032 32.9322 18.4697C32.9322 18.9949 32.4933 19.345 32.0545 19.345C31.6156 19.345 31.1768 18.9074 31.1768 18.4697C31.1768 17.9445 31.5278 17.5944 32.0545 17.5944Z" fill="#E41F13"/>
<path d="M30.2993 23.7216H24.9453V25.4723H30.2993C31.7914 25.4723 32.9324 24.2469 32.9324 22.8463H31.177C31.177 23.3715 30.7381 23.7216 30.2993 23.7216Z" fill="#E41F13"/>
<path d="M52.4175 5.25202H55.9283V2.27588L55.6649 2.01328C54.3484 0.700272 52.593 0 50.5743 0C48.4678 0 46.5369 0.962866 45.1326 2.53847C44.606 3.15121 43.816 3.58889 43.0261 3.58889H36.7067C34.6002 1.40054 31.7038 0.0875391 28.4563 0.0875391C25.2088 0.0875391 22.2247 1.48808 20.206 3.58889H13.8865C13.0966 3.58889 12.3067 3.23874 11.7801 2.53847C10.4635 0.962866 8.44481 0 6.33833 0C4.31963 0 2.56423 0.700272 1.24768 2.01328L0.984375 2.27588V5.25202H5.5484L6.16279 8.75337H1.07214V11.7295L1.33545 11.9921C2.652 13.3051 4.4074 14.0054 6.4261 14.0054C8.53258 14.0054 10.4635 13.0425 11.8678 11.4669C12.3944 10.8542 13.1844 10.4165 13.9743 10.4165H17.134C17.134 10.504 17.134 10.5041 17.134 10.5916C16.0808 10.9417 15.2909 11.9046 15.2909 13.1301C14.7642 13.2176 14.2376 13.4802 13.8865 13.8303L10.7268 16.9815C9.93689 17.7693 9.67358 19.0823 10.288 20.1328C10.4635 20.3954 10.3757 20.7455 10.288 21.0081C9.3225 22.6712 8.62035 24.4219 8.09373 26.1726C8.00596 26.5227 7.74265 26.7853 7.47934 26.8728C6.33833 27.223 5.63617 28.2734 5.63617 29.4113V33.8755C5.63617 35.0135 6.4261 36.0639 7.47934 36.414C7.74265 36.5016 8.00596 36.7642 8.09373 37.1143C8.62035 38.9525 9.3225 40.7032 10.288 42.2788C10.4635 42.5414 10.4635 42.8915 10.288 43.1541C9.76135 44.2045 9.93689 45.43 10.7268 46.3053L13.8865 49.4566C14.6765 50.2444 15.993 50.507 17.0462 49.8942C17.3096 49.7192 17.6606 49.8067 17.9239 49.8942C19.5916 50.8571 21.347 51.5574 23.1024 52.0826C23.4534 52.1701 23.7168 52.4327 23.8045 52.6953C24.1556 53.8332 25.2088 54.5335 26.3498 54.5335H30.8261C31.9671 54.5335 33.0203 53.7457 33.3714 52.6953C33.4592 52.4327 33.7225 52.1701 34.0736 52.0826C35.9167 51.5574 37.6721 50.8571 39.252 49.8942C39.5153 49.7192 39.8664 49.7192 40.1297 49.8942C41.1829 50.4194 42.4117 50.2444 43.2894 49.4566L46.4491 46.3053C47.2391 45.5175 47.5024 44.2045 46.888 43.1541C46.7124 42.8915 46.8002 42.5414 46.888 42.2788C47.8534 40.6156 48.5556 38.865 49.0822 37.1143C49.17 36.7642 49.4333 36.5016 49.6966 36.414C50.8376 36.0639 51.5398 35.0135 51.5398 33.8755V29.4113C51.5398 28.2734 50.7498 27.223 49.6966 26.8728C49.4333 26.7853 49.17 26.5227 49.0822 26.1726C48.5556 24.3344 47.8534 22.5837 46.888 21.0081C46.7124 20.7455 46.7124 20.3954 46.888 20.1328C47.4146 19.0823 47.2391 17.8569 46.4491 16.9815L43.2894 13.8303C42.9383 13.4802 42.4117 13.2176 41.8851 13.1301C41.8851 11.9921 41.0952 11.0293 40.0419 10.5916C40.0419 10.5041 40.0419 10.504 40.0419 10.4165H43.2016C43.9916 10.4165 44.7815 10.7667 45.3081 11.4669C46.6247 13.0425 48.6434 14.0054 50.7498 14.0054C52.7685 14.0054 54.5239 13.3051 55.8405 11.9921L56.1038 11.7295V8.75337H52.593C51.6275 8.75337 50.8376 7.96557 50.8376 7.0027C50.6621 6.03983 51.452 5.25202 52.4175 5.25202ZM38.1988 10.504H34.688V7.0027H32.9326V10.504H31.1772V2.01328C34.9513 3.15122 37.8477 6.4775 38.1988 10.504ZM29.4218 1.75067V10.504H27.6664V1.75067C27.9297 1.75067 28.2808 1.66314 28.5441 1.66314C28.8074 1.66314 29.0707 1.66314 29.4218 1.75067ZM25.8232 2.1008V10.5916H24.0678V7.09024H22.3124V10.5916H18.8016C19.1527 6.4775 22.0491 3.15121 25.8232 2.1008ZM13.8865 8.75337C12.57 8.75337 11.3412 9.3661 10.4635 10.4165C9.41027 11.642 8.00596 12.3423 6.4261 12.3423C5.02179 12.3423 3.79301 11.9046 2.91531 11.1168V10.504H8.35704L7.21603 3.41381H2.82754V2.88862C3.79301 2.10081 5.02179 1.66314 6.33833 1.66314C7.91819 1.66314 9.41028 2.36342 10.3757 3.58889C11.2534 4.63929 12.4822 5.25202 13.7988 5.25202H18.7139C18.0117 6.30243 17.4851 7.5279 17.2218 8.75337H13.8865ZM17.9239 12.2547H39.1642C39.6909 12.2547 40.0419 12.6924 40.0419 13.1301C40.0419 13.5677 39.6031 14.0054 39.1642 14.0054H17.9239C17.3973 14.0054 17.0462 13.5677 17.0462 13.1301C16.9585 12.6924 17.3973 12.2547 17.9239 12.2547ZM36.4434 18.4696C37.4088 18.4696 38.1988 19.2574 38.1988 20.2203C38.1988 21.1832 37.4088 21.971 36.4434 21.971V18.4696ZM38.2865 17.1566C37.7599 16.894 37.1455 16.6314 36.5311 16.6314V15.7561H38.2865V17.1566ZM30.8261 29.0612L31.1772 30.6368L28.5441 33.8755L25.911 30.6368L26.2621 29.0612H30.8261ZM37.3211 38.7774H29.334C30.7383 38.7774 32.0549 38.0772 32.8448 37.0268H37.3211V38.7774ZM19.6793 37.0268H24.1556C24.9455 38.0772 26.2621 38.7774 27.6664 38.7774H19.6793V37.0268ZM27.5786 37.0268C26.0865 37.0268 24.9455 35.8013 24.9455 34.4008V32.2999L28.4563 36.6766L31.9671 32.2999V34.4008C31.9671 35.8888 30.7383 37.0268 29.334 37.0268H27.5786ZM23.2779 35.2761H19.6793V34.4008C20.7326 33.5254 21.9614 32.8251 23.1901 32.3875V34.4008C23.1901 34.6634 23.1901 34.926 23.2779 35.2761ZM19.6793 40.5281H27.6664V42.2788H19.6793V40.5281ZM29.4218 40.5281H37.4088V42.2788H29.4218V40.5281ZM37.3211 35.2761H33.7225C33.8103 35.0135 33.8103 34.6634 33.8103 34.4008V32.3875C35.1268 32.9127 36.2678 33.6129 37.3211 34.4008V35.2761ZM31.1772 27.3105H25.8232C23.8923 27.3105 22.3124 25.7349 22.3124 23.8092V15.8436H34.688V23.8092C34.688 25.7349 33.1081 27.3105 31.1772 27.3105ZM20.557 21.971C19.5916 21.971 18.8016 21.1832 18.8016 20.2203C18.8016 19.2574 19.5916 18.4696 20.557 18.4696V21.971ZM20.557 16.7189C19.9426 16.7189 19.3283 16.894 18.8016 17.2441V15.8436H20.557V16.7189ZM17.0462 20.658C17.3096 22.4086 18.7139 23.7216 20.557 23.7216C20.557 26.1726 22.2247 28.1859 24.5067 28.7986L24.2434 30.0241C19.8549 31.2495 16.0808 34.3132 14.1498 38.4273C13.1844 36.3265 12.57 34.0506 12.57 31.6872C12.57 27.5731 14.1498 23.6341 17.0462 20.658ZM17.8362 35.9764V43.5043C16.7829 42.6289 15.9052 41.5785 15.2031 40.4406C15.8175 38.7774 16.6952 37.2894 17.8362 35.9764ZM19.6793 44.0295H27.6664V47.5308C24.77 47.3557 21.9614 46.3929 19.6793 44.9048V44.0295ZM29.4218 44.0295H37.4088V44.9048C35.1268 46.4804 32.406 47.3557 29.4218 47.5308V44.0295ZM39.1642 35.9764C40.3052 37.2894 41.2707 38.7774 41.7973 40.4406C41.0074 41.5785 40.1297 42.6289 39.1642 43.5043V35.9764ZM42.9383 38.5148C41.0074 34.4008 37.2333 31.3371 32.8448 30.1116L32.5815 28.8861C34.8635 28.2734 36.5311 26.2601 36.5311 23.8092C38.3743 23.8092 39.7786 22.4962 40.0419 20.7455C42.9383 23.7216 44.5182 27.6607 44.5182 31.7747C44.4304 34.1382 43.9038 36.414 42.9383 38.5148ZM41.9729 15.1433L45.1326 18.2945C45.3959 18.5571 45.4837 18.9948 45.3081 19.345C44.8693 20.1328 44.8693 21.0956 45.3959 21.971C46.2736 23.459 46.9757 25.0346 47.4146 26.7853C47.6779 27.6607 48.2923 28.4485 49.17 28.7111C49.5211 28.7986 49.7844 29.1487 49.7844 29.5864V34.0506C49.7844 34.4883 49.5211 34.7509 49.17 34.9259C48.2923 35.1885 47.5901 35.8888 47.4146 36.8517C46.9757 38.5148 46.2736 40.0904 45.3959 41.5785C44.957 42.3663 44.8693 43.3292 45.3081 44.2045C45.4837 44.5547 45.3959 44.9923 45.1326 45.2549L41.9729 48.4062C41.7096 48.6688 41.2707 48.7563 40.9196 48.5812C40.1297 48.1435 39.1642 48.1436 38.2865 48.6688C36.7944 49.5441 35.2146 50.2444 33.547 50.682C32.6693 50.9446 31.8793 51.5574 31.616 52.4327C31.5283 52.7828 31.1772 53.0454 30.7383 53.0454H26.2621C25.911 53.0454 25.5599 52.7828 25.3844 52.4327C25.1211 51.5574 24.4189 50.8571 23.4534 50.682C21.7858 50.2444 20.206 49.5441 18.6261 48.6688C17.8362 48.2311 16.8707 48.1435 15.993 48.5812C15.6419 48.7563 15.2031 48.6688 14.9398 48.4062L11.7801 45.2549C11.5167 44.9923 11.429 44.5547 11.6045 44.2045C12.0434 43.4167 12.0434 42.4539 11.5167 41.5785C10.6391 40.0904 9.93689 38.5148 9.49804 36.7642C9.23474 35.8888 8.62035 35.101 7.74265 34.8384C7.39157 34.7509 7.12826 34.4008 7.12826 33.9631V29.4989C7.12826 29.1487 7.39157 28.7986 7.74265 28.6235C8.62035 28.3609 9.32251 27.6607 9.49804 26.6978C9.93689 25.0346 10.6391 23.459 11.5167 21.8834C11.9556 21.0956 12.0434 20.1328 11.6045 19.2574C11.429 18.9073 11.5167 18.4696 11.7801 18.207L14.9398 15.0558C15.2031 14.7932 15.4664 14.7932 15.8175 14.7932C16.0808 15.1433 16.5196 15.4059 16.8707 15.4935V18.1195C12.9211 21.4458 10.6391 26.3476 10.6391 31.5121C10.6391 41.2284 18.6261 49.1939 28.3685 49.1939C38.111 49.1939 46.098 41.2284 46.098 31.5121C46.098 26.3476 43.816 21.4458 39.8664 18.1195V15.4935C40.3052 15.3184 40.6563 15.0558 40.9196 14.7932C41.3585 14.8807 41.7096 14.9683 41.9729 15.1433ZM52.4175 10.504H54.1729V11.0293C53.2074 11.8171 51.9786 12.2547 50.6621 12.2547C49.0822 12.2547 47.5901 11.5545 46.6247 10.329C45.747 9.27858 44.5182 8.66583 43.2016 8.66583H39.7786C39.5153 7.35283 38.9887 6.21489 38.2865 5.16448H43.2016C44.5182 5.16448 45.747 4.55175 46.6247 3.50135C47.6779 2.27588 49.0822 1.57561 50.6621 1.57561C52.0664 1.57561 53.2952 2.01327 54.1729 2.80108V3.32628H52.4175C50.4865 3.32628 48.9067 4.90189 48.9067 6.82763C48.8189 8.92844 50.4865 10.504 52.4175 10.504Z" fill="#E41F13"/>
</svg>
