<svg width="13" height="13" viewBox="0 0 13 13" fill="none" xmlns="http://www.w3.org/2000/svg">
<path d="M10.3676 2.25434C9.53751 0.901734 8.17912 0.0751445 6.59433 0C6.51887 0 6.4434 0 6.36793 0C4.78315 0 3.34929 0.901734 2.59463 2.25434C1.83997 3.60694 1.76451 5.33526 2.59463 6.68786L5.83967 12.6243C5.9906 12.8497 6.217 13 6.51887 13C6.82073 13 7.04713 12.8497 7.19806 12.6243L10.4431 6.68786C11.1978 5.33526 11.1978 3.60694 10.3676 2.25434ZM6.51887 5.93642C5.53781 5.93642 4.70768 5.10983 4.70768 4.13295C4.70768 3.15607 5.46234 2.25434 6.51887 2.25434C7.49992 2.25434 8.33005 3.08092 8.33005 4.0578C8.33005 5.10983 7.49992 5.93642 6.51887 5.93642Z" fill="#E21501"/>
</svg>
