<svg width="61" height="59" viewBox="0 0 61 59" fill="none" xmlns="http://www.w3.org/2000/svg">
<path d="M59.7715 30.9432H55.9974C55.9096 30.7681 55.9096 30.6806 55.8218 30.5055L58.5427 27.792C58.8938 27.4418 58.8938 26.7416 58.5427 26.3914L54.242 22.1023C54.0664 22.0147 53.8909 21.9272 53.7153 21.8397V20.2641L54.4175 20.6142C54.8563 20.8768 55.383 21.0519 55.9096 21.0519C56.1729 21.0519 56.524 21.0519 56.7873 20.9643C57.5772 20.7017 58.2794 20.1765 58.6305 19.3887L58.806 18.9511C59.5081 17.5505 58.9815 15.7998 57.5772 15.012L53.7153 12.8237L43.6218 7.04647L32.0362 0.393902C31.0707 -0.131301 29.9297 -0.131301 29.052 0.393902L3.42326 15.012C2.01895 15.7998 1.49233 17.5505 2.19449 18.9511L2.37003 19.3887C3.15995 20.8768 4.91535 21.4895 6.40744 20.7017C6.4952 20.7017 6.4952 20.6142 6.58297 20.6142L7.28513 20.2641V24.9033H1.22902C0.7024 24.9033 0.175781 25.341 0.175781 25.8662V45.999C0.175781 46.5242 0.61463 46.9618 1.22902 46.9618H7.28513V52.0388C5.61751 52.0388 4.21319 53.3518 4.21319 55.1025C4.21319 56.7656 5.52974 58.1661 7.28513 58.1661H53.7153C55.383 58.1661 56.7873 56.8531 56.7873 55.1025C56.7873 53.4393 55.4707 52.0388 53.7153 52.0388V48.0122C53.8909 48.0122 54.0664 47.9247 54.242 47.7496L58.5427 43.4605C58.8938 43.1103 58.8938 42.4101 58.5427 42.06L55.8218 39.3464C55.9096 39.1713 55.9096 39.0838 55.9974 38.9087H59.7715C60.2981 38.9087 60.8247 38.4711 60.8247 37.8583V31.8185C60.8247 31.3808 60.3858 30.9432 59.7715 30.9432ZM5.61751 18.9511C5.09089 19.2137 4.4765 19.0386 4.21319 18.6009C4.21319 18.6009 4.21319 18.6009 4.21319 18.5134L4.03765 18.0757C3.77434 17.638 3.94988 17.0253 4.4765 16.7627L30.1053 2.14458C30.4564 1.96951 30.8074 1.96951 31.0707 2.14458L56.6995 16.7627C57.1384 17.0253 57.3139 17.638 57.1384 18.0757L56.9628 18.5134C56.6995 19.0386 56.0851 19.2137 55.6463 18.9511C55.6463 18.9511 55.6463 18.9511 55.5585 18.9511L32.124 5.64592C31.1585 5.12072 30.0175 5.12072 29.1398 5.64592L5.61751 18.9511ZM9.30384 19.1261L30.0175 7.30907C30.3686 7.134 30.7197 7.134 30.983 7.30907L51.6966 19.1261V23.2402L50.1168 24.8158C49.9412 24.7283 49.8535 24.7283 49.6779 24.6407V20.8768C49.6779 20.3516 49.2391 19.8264 48.6247 19.8264H42.5686C42.042 19.8264 41.6031 20.2641 41.6031 20.8768V24.6407C41.4276 24.7283 41.3398 24.7283 41.1643 24.8158L38.4434 22.1023C38.0923 21.7521 37.3902 21.7521 37.0391 22.1023L36.688 22.4524C34.8448 19.0386 30.5441 17.8131 27.1211 19.6513C25.1902 20.7017 23.7858 22.6275 23.5225 24.8158H9.30384V19.1261ZM37.5657 52.0388H35.547V39.1713C36.7758 39.609 37.5657 40.7469 37.5657 41.9724V52.0388ZM33.5283 41.0096H27.4722V38.9963H33.5283V41.0096ZM25.4535 39.1713V52.0388H23.4348V41.9724C23.4348 40.7469 24.2247 39.609 25.4535 39.1713ZM27.4722 43.0228H33.5283V52.1263H27.4722C27.4722 52.0388 27.4722 43.0228 27.4722 43.0228ZM32.5628 36.983H28.5254C26.8578 36.983 25.4535 35.67 25.4535 33.9193V30.8556H35.547V33.9193C35.547 35.5825 34.2304 36.983 32.5628 36.983ZM31.5096 20.9643C33.5283 21.402 35.0204 22.8901 35.4592 24.9033H31.5096V20.9643ZM29.4909 24.9033H25.5412C25.9801 22.8901 27.4722 21.402 29.4909 20.9643V24.9033ZM36.6002 28.9299H24.4002C23.8736 28.9299 23.4348 28.4922 23.4348 27.8795C23.4348 27.3543 23.8736 26.9166 24.4002 26.9166H36.5125C37.0391 26.9166 37.5657 27.3543 37.5657 27.8795C37.5657 28.4922 37.1269 28.9299 36.6002 28.9299ZM2.19449 26.9166H21.5916C20.9772 28.4922 21.7671 30.1554 23.347 30.7681H23.4348V34.0069C23.4348 35.2323 23.8736 36.4578 24.7513 37.3331C22.7326 38.0334 21.4161 39.9591 21.4161 42.06V45.1236H2.19449C2.19449 45.0361 2.19449 26.9166 2.19449 26.9166ZM9.30384 47.0494H21.4161V52.1263H9.30384V47.0494ZM54.7686 55.1025C54.7686 55.6277 54.3297 56.0653 53.8031 56.0653H7.28513C6.75851 56.0653 6.2319 55.6277 6.2319 55.1025C6.2319 54.5773 6.67074 54.1396 7.28513 54.1396H53.7153C54.3297 54.0521 54.7686 54.4897 54.7686 55.1025ZM39.5844 52.0388V46.6117L41.1643 45.0361C41.3398 45.1236 41.4276 45.1236 41.6031 45.2112V48.9751C41.6031 49.5003 42.042 50.0255 42.5686 50.0255H48.6247C49.1513 50.0255 49.6779 49.5878 49.6779 48.9751V45.2112C49.8535 45.1236 49.9412 45.1236 50.1168 45.0361L51.6966 46.6117V52.0388H39.5844ZM58.806 36.983H55.2952C54.8563 36.983 54.5053 37.2456 54.3297 37.6833C54.1542 38.2085 53.9786 38.6461 53.7153 39.1713C53.5398 39.5215 53.6276 40.0467 53.8909 40.3093L56.3484 42.7602L53.5398 45.5613L51.0822 43.1104C50.7312 42.7602 50.2923 42.7602 49.9412 42.9353C49.5024 43.1979 48.9758 43.373 48.4492 43.548C48.0103 43.7231 47.747 44.0732 47.747 44.5109V48.0122H43.7096V44.5109C43.7096 44.0732 43.4463 43.7231 43.0074 43.548C42.4808 43.373 42.042 43.1979 41.5153 42.9353C41.1643 42.7602 40.6376 42.8478 40.3743 43.1104L39.6722 43.8106V41.9724C39.6722 39.8716 38.3556 37.9459 36.3369 37.2456C37.2146 36.3703 37.6535 35.1448 37.6535 33.9193V30.6806C39.2333 30.1554 40.0233 28.4047 39.4966 26.8291C39.1456 25.9537 38.4434 25.2535 37.5657 24.9909C37.5657 24.8158 37.5657 24.7283 37.4779 24.5532L37.829 24.2031L40.2866 26.654C40.6376 27.0041 41.0765 27.0042 41.4276 26.8291C41.8664 26.5665 42.393 26.3914 42.9197 26.2163C43.3585 26.0413 43.6218 25.6911 43.6218 25.2535V21.7521H47.6592V25.2535C47.6592 25.6911 47.9225 26.0413 48.3614 26.2163C48.888 26.3914 49.3269 26.5665 49.8535 26.8291C50.2045 27.0042 50.7312 26.9166 50.9945 26.654L53.452 24.2031L56.2607 27.0042L53.8031 29.4551C53.452 29.8052 53.452 30.2429 53.6276 30.593C53.8909 31.0307 54.0664 31.5559 54.242 32.0811C54.4175 32.5188 54.7686 32.7814 55.2074 32.7814H58.7182L58.806 36.983Z" fill="#E41F13"/>
<path d="M45.6406 27.8795C41.7787 27.8795 38.5312 31.0307 38.5312 34.9697C38.5312 38.9088 41.691 42.06 45.6406 42.06C49.5902 42.06 52.75 38.9088 52.75 34.9697C52.75 31.0307 49.5902 27.8795 45.6406 27.8795ZM45.6406 39.9592C42.832 39.9592 40.55 37.6833 40.55 34.8822C40.55 32.0811 42.832 29.8053 45.6406 29.8053C48.4492 29.8053 50.7312 32.0811 50.7312 34.8822C50.7312 37.6833 48.4492 39.9592 45.6406 39.9592Z" fill="#E41F13"/>
<path d="M4.21289 28.9299H8.2503V30.9432H4.21289V28.9299Z" fill="#E41F13"/>
<path d="M10.2695 28.9299H18.4321V30.9432H10.2695V28.9299Z" fill="#E41F13"/>
<path d="M4.21289 34.9697H18.4316V36.983H4.21289V34.9697Z" fill="#E41F13"/>
<path d="M4.21289 41.0095H18.4316V43.0228H4.21289V41.0095Z" fill="#E41F13"/>
</svg>
