<svg width="62" height="68" viewBox="0 0 62 68" fill="none" xmlns="http://www.w3.org/2000/svg">
<path d="M60.5611 9.10351L57.6647 6.56503L60.5611 4.02655C61 3.58888 61.1755 2.97615 60.9122 2.45094C60.7367 1.92574 60.2101 1.48807 59.5957 1.48807H47.5712V0.962871C47.5712 0.437669 47.1324 0 46.6058 0C46.0791 0 45.6403 0.437669 45.6403 0.962871V14.3555L37.4777 18.7322C37.4777 18.3821 37.3022 18.0319 37.1266 17.6818L35.9856 15.4935C35.1957 13.9179 33.2647 13.3051 31.7727 14.0929L30.895 14.5306C30.105 14.8807 29.5784 15.581 29.3151 16.3688C29.0518 17.1566 29.1396 18.0319 29.4906 18.7322L30.6317 21.0081C30.895 21.5333 31.3338 21.971 31.7727 22.2336C31.1583 23.0214 30.895 24.0718 30.5439 25.1222L30.3683 25.91C30.1928 26.4352 30.5439 26.9604 31.0705 27.1354C31.1583 27.1354 31.246 27.1354 31.3338 27.1354C31.7727 27.1354 32.1237 26.8728 32.2993 26.4352L32.4748 25.6474C32.9137 24.0718 33.177 23.284 34.0547 22.8463L35.5468 22.0585L35.7223 21.971C35.8101 21.971 35.8101 21.8834 35.8978 21.8834L46.7813 16.0187C46.6935 17.3317 45.9914 18.6447 44.7626 19.3449L37.741 23.6341L35.5468 24.9471C35.1079 25.2097 34.9324 25.8224 35.1957 26.3476C35.459 26.7853 35.9856 26.9604 36.5122 26.6978L34.8446 31.7747L33.6158 32.2999L30.2806 33.7005L31.246 30.2867C31.4216 29.7615 31.0705 29.2363 30.5439 29.0612C30.0173 28.8861 29.4906 29.2363 29.3151 29.7615L27.7353 35.0135C27.7353 35.101 27.7353 35.1885 27.7353 35.1885L27.2964 42.4538C27.2964 42.7164 27.3842 43.2417 27.2086 43.5043L22.8201 52.6953H19.6604C17.8173 52.6953 16.2374 54.1834 16.2374 56.1091V58.9977C15.7986 58.8227 15.3597 58.7351 14.8331 58.7351H6.75827C4.91511 58.7351 3.33525 60.2232 3.33525 62.1489V65.6503H0.965468C0.438849 65.6503 0 66.0879 0 66.6132C0 67.1384 0.438849 67.576 0.965468 67.576H59.5079C60.0345 67.576 60.4734 67.1384 60.4734 66.6132C60.4734 66.0879 60.0345 65.6503 59.5079 65.6503H56.9626V40.0904C56.9626 38.2522 55.4705 36.6766 53.5396 36.6766H47.5712V19.4325C48.7122 17.9444 49.0633 16.0187 48.5367 14.1805C48.4489 13.9179 48.2734 13.6553 48.0101 13.5677C47.8345 13.4802 47.7468 13.4802 47.5712 13.4802V11.642H59.5957C60.2101 11.642 60.7367 11.2918 60.9122 10.6791C61.0878 10.0664 61 9.45364 60.5611 9.10351ZM31.1583 16.9815C31.246 16.7189 31.4216 16.4563 31.7727 16.2813L32.6504 15.8436C32.8259 15.7561 33.0014 15.7561 33.177 15.7561C33.6158 15.7561 33.9669 16.0187 34.2302 16.3688L35.3712 18.6447C35.6345 19.1699 35.459 19.7826 35.0201 20.1328L34.6691 20.3078L33.9669 20.658C33.4403 20.9206 32.7381 20.7455 32.3871 20.1328L31.246 17.8569C31.1583 17.5943 31.0705 17.3317 31.1583 16.9815ZM29.2273 53.0454C28.8763 52.8704 28.5252 52.7828 28.1741 52.7828L29.2273 51.2948V53.0454ZM33.8791 45.0799C34.318 44.4671 34.4935 43.8544 34.5813 43.3292C34.5813 43.2416 35.1079 40.5281 35.1079 40.5281C35.1079 40.5281 35.5468 40.7907 35.6345 40.8782L35.7223 40.9658L36.2489 46.4804H32.9137C32.9137 46.3929 33.8791 45.0799 33.8791 45.0799ZM39.7597 39.6528L38.882 46.3929H38.1799L37.6532 40.7032C37.5655 40.0029 37.1266 39.3026 36.5122 39.04L35.5468 38.4273L36.2489 34.7509C36.2489 34.7509 39.0576 38.0772 39.1453 38.1647C39.6719 38.865 39.8475 39.2151 39.7597 39.6528ZM29.0518 44.3796C29.2273 43.7669 29.3151 43.1541 29.3151 42.5414L29.6662 35.8888L34.2302 34.0506L33.3525 38.6899L32.6504 42.5414C32.5626 42.979 32.4748 43.5042 32.2115 43.8544L25.4532 52.7828H24.9266L29.0518 44.3796ZM5.35396 62.0614C5.35396 61.2736 5.96835 60.6609 6.75827 60.6609H14.9209C15.7108 60.6609 16.3252 61.2736 16.3252 62.0614V65.6503H5.35396V62.0614ZM18.2561 62.0614V56.1091C18.2561 55.3213 18.8705 54.7086 19.6604 54.7086H27.7353C28.5252 54.7086 29.1396 55.3213 29.1396 56.1091V65.6503H18.2561V62.0614ZM55.0317 40.0904V65.6503H44.0604V59.698C44.0604 59.1728 43.6216 58.7351 43.095 58.7351C42.5683 58.7351 42.1295 59.1728 42.1295 59.698V65.6503H31.1583V49.8067C31.1583 49.0189 31.7727 48.4061 32.5626 48.4061H40.6374C41.4273 48.4061 42.0417 49.0189 42.0417 49.8067V54.7961C42.0417 55.3213 42.4806 55.759 43.0072 55.759C43.5338 55.759 43.9727 55.3213 43.9727 54.7961V40.0904C43.9727 39.3026 44.5871 38.6899 45.377 38.6899H46.4302H53.4518C54.4173 38.6899 55.0317 39.3026 55.0317 40.0904ZM45.4647 36.6766C43.6216 36.6766 42.0417 38.1647 42.0417 40.0904V46.6555C41.6906 46.4804 41.3396 46.3929 40.9007 46.3929L41.6906 39.8278C41.8662 38.5148 41.164 37.727 40.5496 36.8517C40.4619 36.7642 36.6 32.2124 36.6 32.2124L38.9698 25.0346L45.4647 21.0956V36.6766ZM47.5712 9.62871V3.50135H58.1036L55.8216 5.51462C55.4705 5.77723 55.295 6.21489 55.295 6.56503C55.295 6.91516 55.4705 7.35283 55.8216 7.61543L58.1036 9.62871H47.5712Z" fill="#E41F13"/>
</svg>
