<svg width="61" height="62" viewBox="0 0 61 62" fill="none" xmlns="http://www.w3.org/2000/svg">
<path d="M44.3241 23.6799C45.1141 23.6799 45.904 23.3298 46.5184 22.8046C46.8695 22.4545 46.8695 21.8417 46.5184 21.4916C46.1673 21.1415 45.5529 21.1415 45.2018 21.4916C44.9385 21.7542 44.5874 21.8418 44.2364 21.8418H43.9731C43.622 21.8418 43.2709 21.6667 43.0076 21.4916C42.6565 21.1415 42.0421 21.1415 41.691 21.4916C41.34 21.8417 41.34 22.4545 41.691 22.8046C42.3054 23.4173 43.0954 23.6799 43.8853 23.6799H44.3241Z" fill="#E41F13"/>
<path d="M60.7362 44.0753V37.6853C60.7362 33.4837 57.3132 29.9823 53.0125 29.9823H48.3607V26.7436C50.4671 25.4306 51.7837 23.1547 51.7837 20.5287V19.916H53.2758C55.2945 19.916 56.9621 18.2528 56.9621 16.2395C56.9621 15.2767 56.611 14.4013 55.9966 13.7011V10.5499C55.9966 7.83631 54.7679 5.29783 52.6614 3.54716C52.3103 3.19702 51.6959 3.28456 51.3448 3.6347C50.9938 3.98483 51.0815 4.59757 51.4326 4.9477C53.1002 6.34824 54.0657 8.36151 54.0657 10.5499V12.5631C53.8024 12.4756 53.4513 12.4756 53.188 12.4756H51.6959C51.4326 9.76206 49.1506 7.57372 46.342 7.57372H37.6527C36.9506 7.57372 36.424 8.18645 36.424 8.79918V12.3881H34.9319C34.5808 12.3881 34.3175 12.3881 34.0542 12.4756V3.72224C34.0542 3.02197 34.4053 2.40924 35.0197 2.0591C35.634 1.70897 36.3362 1.70897 36.9506 2.14664L37.4772 2.49677C38.1794 2.93444 39.0571 3.19703 39.9348 3.19703H46.7808C47.1319 3.19703 47.5707 3.19704 47.9218 3.28457C48.4484 3.3721 48.8873 3.02197 48.975 2.49677C49.0628 1.97157 48.7117 1.53389 48.1851 1.44636C47.7463 1.35882 47.2197 1.35882 46.7808 1.35882H39.9348C39.4081 1.35882 38.8815 1.18375 38.4427 0.921148L37.9161 0.571018C36.775 -0.129251 35.3707 -0.21679 34.142 0.483479C32.9132 1.18375 32.211 2.3217 32.211 3.72224V13.6135C31.5966 14.3138 31.2455 15.1892 31.2455 16.152C31.2455 18.1653 32.9132 19.8284 34.9319 19.8284H36.424V20.5287C36.424 23.1547 37.8283 25.4306 39.847 26.7436V27.9691H26.7693C27.1204 26.7436 27.3837 25.4306 27.3837 24.0301C27.3837 16.5022 21.3276 10.3748 13.8671 10.3748C6.4067 10.3748 0.350586 16.5022 0.350586 24.0301C0.350586 31.558 6.4067 37.6853 13.8671 37.6853C14.2182 37.6853 14.5693 37.6853 14.8326 37.6853V55.017C14.8326 56.33 15.8858 57.2929 17.1146 57.2929H24.0484V58.6059C24.0484 59.8314 25.0139 60.7942 26.2427 60.7942H29.1391C30.3679 60.7942 31.3333 59.8314 31.3333 58.6059V57.2929H32.6499V61.0568C32.6499 61.582 33.0887 61.9322 33.5276 61.9322H53.5391C54.0657 61.9322 54.4168 61.4945 54.4168 61.0568V57.9056C54.4168 57.3804 53.9779 57.0303 53.5391 57.0303C53.0125 57.0303 52.6614 57.4679 52.6614 57.9056V60.0939H34.493V57.2929H42.129C43.4455 57.2929 44.411 56.2425 44.411 55.017V49.8525H52.6614V53.704C52.6614 54.2292 53.1002 54.5793 53.5391 54.5793C54.0657 54.5793 54.4168 54.1417 54.4168 53.704V49.8525H55.9966C56.8743 49.8525 57.752 49.5899 58.4542 49.1522C59.7707 48.3644 60.7362 46.8763 60.7362 45.1257V44.0753ZM55.2067 16.2395C55.2067 17.29 54.329 18.0778 53.3635 18.0778H51.8714V14.3138H53.3635C54.4168 14.4014 55.2067 15.1891 55.2067 16.2395ZM35.0197 18.0778C33.9664 18.0778 33.1765 17.2024 33.1765 16.2395C33.1765 15.2767 34.0542 14.4014 35.0197 14.4014H36.5117V18.1653H35.0197V18.0778ZM38.3549 20.6162V19.0406V13.526V9.58701H46.5175C48.4484 9.58701 50.1161 11.1626 50.1161 13.1759V20.7913C50.1161 23.855 47.6585 26.3059 44.5866 26.3059H43.8844C40.8125 26.1309 38.3549 23.6799 38.3549 20.6162ZM41.7779 27.6189C42.3923 27.794 43.0945 27.8815 43.7966 27.8815H44.4988C45.2009 27.8815 45.9031 27.794 46.5175 27.6189V31.5579C46.5175 32.6084 45.6398 33.4837 44.5866 33.4837H44.3232V30.42C44.3232 29.107 43.27 28.1441 42.0412 28.1441H41.6902L41.7779 27.6189ZM43.5333 48.1018H42.4801C41.7779 48.1018 41.1635 47.4891 41.1635 46.7888V44.9506H44.3232V48.1018H43.5333ZM42.129 29.8948C42.3923 29.8948 42.6556 30.1574 42.6556 30.42V32.2582C42.4801 32.2582 42.3045 32.1707 42.129 32.1707H24.7506C25.2772 31.4704 25.7161 30.6826 26.0671 29.8948H42.129ZM2.01821 24.1176C2.01821 17.5526 7.2844 12.213 13.7794 12.213C20.2743 12.213 25.5405 17.5526 25.5405 24.1176C25.5405 30.6826 20.2743 36.0222 13.7794 36.0222C7.2844 36.0222 2.01821 30.6826 2.01821 24.1176ZM29.5779 58.6934C29.5779 58.956 29.4024 59.1311 29.1391 59.1311H26.2427C25.9794 59.1311 25.8038 58.956 25.8038 58.6934V57.3804H29.4902C29.5779 57.4679 29.5779 58.6934 29.5779 58.6934ZM42.6556 55.1045C42.6556 55.3671 42.3923 55.6297 42.129 55.6297H17.1146C16.8513 55.6297 16.588 55.3671 16.588 55.1045V37.5103C19.1333 36.9851 21.3276 35.7596 23.1707 34.0089H42.129C42.3923 34.0089 42.6556 34.2715 42.6556 34.5341V43.1999H39.3204C39.3204 44.4254 39.3204 46.7888 39.3204 46.7888C39.3204 48.5395 40.7247 49.94 42.4801 49.94H42.6556V55.1045ZM58.6297 46.5262C58.1909 47.4891 57.2254 48.1894 56.0844 48.1894C55.5578 48.1894 46.6053 48.1894 46.0786 48.1894V45.0382H55.1189C55.6455 45.0382 55.9966 44.6005 55.9966 44.1628C55.9966 43.6376 55.5578 43.2875 55.1189 43.2875H54.4168V37.4227C54.4168 36.8975 53.9779 36.5474 53.5391 36.5474C53.0125 36.5474 52.6614 36.985 52.6614 37.4227V43.1999H44.411V35.3219H44.6743C46.6053 35.3219 48.2729 33.8338 48.4484 31.9081H53.1002C56.3477 31.9081 58.9808 34.5341 58.9808 37.7728V45.3008C58.9808 45.4758 58.893 46.001 58.6297 46.5262Z" fill="#E41F13"/>
<path d="M23.0835 23.4173C23.6101 23.2422 23.9612 22.8046 23.9612 22.2794C23.9612 21.7541 23.6101 21.3165 23.0835 21.1414L14.2188 18.4278C13.9555 18.3403 13.6044 18.3403 13.3411 18.4278L4.47633 21.1414C3.94971 21.3165 3.59863 21.7541 3.59863 22.2794C3.59863 22.542 3.6864 22.8045 3.77417 22.9796V25.9558C3.77417 26.481 4.21302 26.8311 4.65187 26.8311C5.17849 26.8311 5.52957 26.3934 5.52957 25.9558V23.7674L6.93389 24.2051V28.4067C6.93389 29.107 7.37273 29.7197 8.07489 29.8948L13.1655 31.2078C13.3411 31.2953 13.5166 31.2953 13.6922 31.2953C13.8677 31.2953 14.0432 31.2953 14.2188 31.2078L19.3094 29.8948C20.0116 29.7197 20.4504 29.107 20.4504 28.4067V24.2051L23.0835 23.4173ZM13.7799 20.1785L20.626 22.2794L13.7799 24.3802L6.93389 22.2794L13.7799 20.1785ZM18.7828 28.1441L13.9555 29.3696C13.8677 29.3696 13.8677 29.3696 13.7799 29.3696L8.95259 28.1441V24.7303L13.4289 26.1308C13.6044 26.1308 13.6922 26.2184 13.8677 26.2184C14.0432 26.2184 14.131 26.2184 14.3065 26.1308L18.7828 24.7303V28.1441Z" fill="#E41F13"/>
</svg>
