<svg width="62" height="62" viewBox="0 0 62 62" fill="none" xmlns="http://www.w3.org/2000/svg">
<path d="M37.074 20.871C34.3982 20.871 32.2213 23.048 32.2213 25.7237C32.2213 28.3994 34.3983 30.5764 37.074 30.5764C39.7497 30.5764 41.9267 28.3994 41.9267 25.7237C41.9267 23.048 39.7498 20.871 37.074 20.871ZM37.074 28.1545C35.7336 28.1545 34.6432 27.0641 34.6432 25.7237C34.6432 24.3833 35.7336 23.2929 37.074 23.2929C38.4144 23.2929 39.5049 24.3833 39.5049 25.7237C39.5049 27.0641 38.4145 28.1545 37.074 28.1545Z" fill="#E21501"/>
<path d="M29.7787 25.7237C29.7787 23.0479 27.6016 20.871 24.926 20.871C22.2503 20.871 20.0732 23.048 20.0732 25.7237C20.0732 28.3994 22.2503 30.5764 24.926 30.5764C27.6016 30.5764 29.7787 28.3994 29.7787 25.7237ZM24.926 28.1545C23.5856 28.1545 22.4951 27.0641 22.4951 25.7237C22.4951 24.3833 23.5856 23.2929 24.926 23.2929C26.2663 23.2929 27.3568 24.3833 27.3568 25.7237C27.3568 27.0641 26.2663 28.1545 24.926 28.1545Z" fill="#E21501"/>
<path d="M31.0112 31.4236C28.3353 31.4236 26.1584 33.6006 26.1584 36.2763C26.1584 38.952 28.3355 41.129 31.0112 41.129C33.6868 41.129 35.8639 38.952 35.8639 36.2763C35.8639 33.6006 33.6868 31.4236 31.0112 31.4236ZM31.0112 38.7071C29.6708 38.7071 28.5803 37.6167 28.5803 36.2763C28.5803 34.9359 29.6708 33.8455 31.0112 33.8455C32.3515 33.8455 33.442 34.9359 33.442 36.2763C33.442 37.6167 32.3515 38.7071 31.0112 38.7071Z" fill="#E21501"/>
<path d="M60.7891 11.9143H57.0975C56.7964 11.9143 56.5059 12.0265 56.2829 12.2293L49.9715 17.9662C49.719 18.1957 49.5752 18.521 49.5752 18.8622V21.7101H46.8349V20.3803C46.8349 17.5047 44.4955 15.1653 41.62 15.1653H40.2902V12.4249H43.1381C43.4792 12.4249 43.8047 12.2811 44.034 12.0286L49.7709 5.71732C49.9736 5.49439 50.0858 5.204 50.0858 4.90272V1.21094C50.0858 0.542258 49.5436 0 48.8749 0H13.1254C12.4567 0 11.9144 0.542258 11.9144 1.21094V4.90248C11.9144 5.20364 12.0267 5.49414 12.2294 5.71708L17.9662 12.0284C18.1957 12.2808 18.521 12.4247 18.8622 12.4247H21.7101V15.1651H20.3803C17.5048 15.1651 15.1654 17.5045 15.1654 20.38V21.7098H12.4249V18.8619C12.4249 18.5208 12.2811 18.1953 12.0286 17.966L5.71708 12.2293C5.49414 12.0265 5.20376 11.9143 4.90248 11.9143H1.21094C0.542258 11.9143 0 12.4566 0 13.1252V48.8746C0 49.5433 0.542258 50.0856 1.21094 50.0856H4.90248C5.20364 50.0856 5.49414 49.9733 5.71708 49.7706L12.0284 44.0338C12.2808 43.8043 12.4247 43.479 12.4247 43.1378V40.29H15.1651V41.6197C15.1651 44.4952 17.5045 46.8346 20.3801 46.8346H21.7098V49.5751H18.8619C18.5208 49.5751 18.1953 49.7189 17.966 49.9714L12.229 56.2827C12.0263 56.5056 11.9141 56.796 11.9141 57.0973V60.7891C11.9141 61.4577 12.4563 62 13.125 62H25.71C26.3787 62 26.921 61.4577 26.921 60.7891C26.921 60.1204 26.3787 59.5781 25.71 59.5781H14.3359V57.5657L19.3976 51.9972H42.602L47.6636 57.5657V59.5781H36.3614C35.6927 59.5781 35.1505 60.1204 35.1505 60.7891C35.1505 61.4577 35.6927 62 36.3614 62H48.8746C49.5433 62 50.0856 61.4577 50.0856 60.7891V57.0975C50.0856 56.7964 49.9733 56.5059 49.7706 56.2829L44.0338 49.9716C43.8043 49.7192 43.479 49.5753 43.1378 49.5753H40.29V46.8348H41.6196H41.6199C43.0127 46.8348 44.3224 46.2924 45.3072 45.3075C46.2923 44.3225 46.8347 43.0129 46.8347 41.6199V40.2902H49.5751V43.138C49.5751 43.4791 49.7189 43.8046 49.9714 44.0339L56.2827 49.7709C56.5056 49.9736 56.796 50.0858 57.0973 50.0858H60.7891C61.4577 50.0858 62 49.5436 62 48.8749V13.1252C62 12.4564 61.4577 11.9143 60.7891 11.9143ZM14.3363 4.43433V2.42188H47.6637V4.43433L42.6021 10.0028H19.3978L14.3363 4.43433ZM24.1318 12.4247H37.8682V15.1651H24.1318V12.4247ZM10.0028 42.6022L4.43433 47.6637H2.42188V14.3363H4.43433L10.0028 19.3979V42.6022ZM12.4247 37.8682V24.1318H15.1652V37.8682H12.4247ZM37.8682 49.5753H24.1318V46.8348H37.8682V49.5753ZM44.4131 41.6198C44.4131 42.3659 44.1226 43.0672 43.595 43.595C43.0675 44.1223 42.3661 44.413 41.6199 44.413H41.6198H20.3802C18.84 44.413 17.5871 43.16 17.5871 41.6199L17.5872 22.9212V22.921V22.9207V20.3802C17.5872 18.84 18.8401 17.5872 20.3802 17.5872H41.6199C43.1601 17.5872 44.413 18.8403 44.413 20.3803V41.6198H44.4131ZM46.8349 37.8682V24.1318H49.5752V37.8682H46.8349ZM59.5781 47.6637H57.5657L51.9972 42.602L51.9971 19.3978L57.5655 14.336H59.5781V47.6637Z" fill="#E21501"/>
<path d="M31.9966 60.3253C31.8097 59.8764 31.3613 59.579 30.8754 59.5793C30.3363 59.5798 29.8595 59.9502 29.7125 60.466C29.4104 61.526 30.6426 62.3978 31.551 61.7953C32.0281 61.4789 32.2131 60.853 31.9966 60.3253Z" fill="#E21501"/>
</svg>
