<?xml version="1.0" encoding="utf-8"?><svg viewBox="0 0 31 31" xmlns="http://www.w3.org/2000/svg" xmlns:xlink="http://www.w3.org/1999/xlink"><style>:root>svg{display:none}:root>svg:target{display:block}</style><svg viewBox="0 0 10 7" id="ic_arrow_down" xmlns="http://www.w3.org/2000/svg"><rect width="2.239" height="6.717" rx="1" transform="scale(-1 1) rotate(-45 -2.839 12.26)"/><rect width="2.239" height="6.717" rx="1" transform="scale(-1 1) rotate(45 -.792 -1.912)"/></svg><svg viewBox="0 0 14 17" id="ic_callback" xmlns="http://www.w3.org/2000/svg"><path fill-rule="evenodd" clip-rule="evenodd" d="M11.044 11v3.857a.658.658 0 0 1-.657.658H1.972a.658.658 0 0 1-.657-.658V1.973c0-.362.295-.657.657-.657h8.415c.363 0 .657.295.657.657V5h1.315V1.972A1.975 1.975 0 0 0 10.387 0H1.972A1.974 1.974 0 0 0 0 1.972v12.886c0 1.087.885 1.972 1.972 1.972h8.415a1.975 1.975 0 0 0 1.972-1.972V11h-1.315z"/><path d="M6 7.235h8v2H6z"/><path d="M4 8.235l4-4 1 1-4 4z"/><path d="M8 12.236l-4-4 1-1 4 4z"/></svg><svg viewBox="0 0 31 31" id="ic_download" xmlns="http://www.w3.org/2000/svg"><path d="M14.472 23.309a1.453 1.453 0 0 0 2.056 0l5.48-5.48a1.453 1.453 0 1 0-2.055-2.055l-3 3V2.905a1.453 1.453 0 0 0-2.906 0v15.867l-3-3a1.453 1.453 0 0 0-2.055 2.056l5.48 5.48z"/><path d="M28.094 14.047A1.454 1.454 0 0 0 26.64 15.5v11.14H4.359V15.5a1.453 1.453 0 1 0-2.906 0v11.625a2.422 2.422 0 0 0 2.422 2.422h23.25a2.422 2.422 0 0 0 2.422-2.422V15.5a1.453 1.453 0 0 0-1.453-1.453z"/></svg><svg viewBox="0 0 18 18" id="ic_phone" xmlns="http://www.w3.org/2000/svg"><path d="M17.144 5.865c-.34.34-.85.34-1.105 0L11.534 1.36c-.34-.34-.34-.85 0-1.105.34-.34.85-.34 1.105 0l4.505 4.505c.34.255.34.765 0 1.105zM14 7.736c-.34.34-.85.34-1.105 0l-3.23-3.23c-.34-.34-.34-.85 0-1.106.34-.34.85-.34 1.104 0L14 6.63c.34.256.34.766 0 1.106z"/><path fill-rule="evenodd" clip-rule="evenodd" d="M5.79.85H2.312C1.068.85.06 1.877.06 3.137c0 3.688 1.45 7.169 4.086 9.796 2.635 2.628 6.12 4.075 9.824 4.075a2.25 2.25 0 0 0 2.247-2.247V11.3l-3.812-1.914-2.4 1.594a4.494 4.494 0 0 1-3.906-3.895l1.598-2.387L5.79.85zm.535 9.903c1.826 1.82 3.966 1.734 4.08 1.76l2.106-1.4 2.194 1.1v2.54c0 .421-.328.755-.742.755-6.835 0-12.4-5.549-12.4-12.364 0-.427.348-.787.756-.787H4.86l1.104 2.227L4.56 6.685c.026.12-.06 2.247 1.765 4.068z"/></svg><svg fill="none" viewBox="0 0 21 20" id="ic_search" xmlns="http://www.w3.org/2000/svg"><circle cx="8.5" cy="8.5" r="7.5" stroke="currentColor" stroke-width="2"/><path stroke="currentColor" stroke-width="2" stroke-linecap="round" d="M14.081 13.667L19 18.586"/></svg></svg>